<?xml version="1.0" encoding="UTF-8" standalone="no"?>
<svg width="40px" height="29px" viewBox="0 0 40 29" version="1.1" xmlns="http://www.w3.org/2000/svg" xmlns:xlink="http://www.w3.org/1999/xlink">
    <!-- Generator: Sketch 42 (36781) - http://www.bohemiancoding.com/sketch -->
    <title>Youtube-color</title>
    <desc>Created with Sketch.</desc>
    <defs></defs>
    <g id="Symbols" stroke="none" stroke-width="1" fill="none" fill-rule="evenodd">
        <g id="Footer" transform="translate(-497.000000, -173.000000)" fill="#FFFFFF">
            <path d="M512.87,192.428393 L512.86875,181.088437 L523.67625,186.777964 L512.87,192.428393 Z M536.6,179.1234 C536.6,179.1234 536.20875,176.342329 535.01,175.117649 C533.48875,173.509548 531.78375,173.50198 531.0025,173.408647 C525.405,173 517.00875,173 517.00875,173 L516.99125,173 C516.99125,173 508.595,173 502.9975,173.408647 C502.215,173.50198 500.51125,173.509548 498.98875,175.117649 C497.79,176.342329 497.4,179.1234 497.4,179.1234 C497.4,179.1234 497,182.390054 497,185.655446 L497,188.717777 C497,191.984431 497.4,195.249823 497.4,195.249823 C497.4,195.249823 497.79,198.030894 498.98875,199.255574 C500.51125,200.863675 502.51,200.813225 503.4,200.980972 C506.6,201.291241 517,201.387097 517,201.387097 C517,201.387097 525.405,201.374484 531.0025,200.965837 C531.78375,200.871243 533.48875,200.863675 535.01,199.255574 C536.20875,198.030894 536.6,195.249823 536.6,195.249823 C536.6,195.249823 537,191.984431 537,188.717777 L537,185.655446 C537,182.390054 536.6,179.1234 536.6,179.1234 L536.6,179.1234 Z" id="Youtube"></path>
        </g>
    </g>
</svg>