<?xml version="1.0" encoding="UTF-8" standalone="no"?>
<svg width="73px" height="73px" viewBox="0 0 73 73" version="1.1" xmlns="http://www.w3.org/2000/svg" xmlns:xlink="http://www.w3.org/1999/xlink">
    <!-- Generator: Sketch 42 (36781) - http://www.bohemiancoding.com/sketch -->
    <title>Fill 2</title>
    <desc>Created with Sketch.</desc>
    <defs></defs>
    <g id="Formulare" stroke="none" stroke-width="1" fill="none" fill-rule="evenodd">
        <g id="Formular-Kassenrezept-Ausfüllen" transform="translate(-1134.000000, -1111.000000)" fill="#FFFFFF">
            <g id="Group" transform="translate(1035.000000, 994.000000)">
                <path d="M165.71006,181.496606 C167.49653,179.008412 168.320243,177.245794 168.184717,176.208752 C168.047432,175.171709 167.288842,173.963006 165.915988,172.579103 C164.402328,170.919127 162.066716,169.156509 158.903871,167.291248 C155.739266,165.424218 153.129083,164.491588 151.066282,164.491588 C150.51538,164.491588 149.964478,164.631394 149.415337,164.905697 C145.427019,167.393891 142.883719,168.637988 141.783676,168.637988 C140.681872,168.637988 139.10309,167.742521 137.040289,165.942739 L136.83436,165.942739 C134.359703,163.868655 132.296901,161.865358 130.645956,159.927539 L130.2341,159.51343 C130.096815,159.377164 129.820484,159.170109 129.408627,158.892267 C128.996771,158.476388 127.139898,156.402303 123.839768,152.670012 L123.839768,152.462958 C121.500635,149.836727 120.263307,147.900679 120.127781,146.656582 C119.988736,144.996606 121.087019,142.648218 123.427911,139.604339 C125.765284,136.564 123.63384,131.100945 117.033579,123.220485 L116.827651,123.01343 C115.451277,121.355224 113.939377,120.525236 112.288432,120.525236 C111.186628,120.525236 109.607846,121.1464 107.545045,122.392267 L107.133189,122.599321 C104.933102,123.983224 103.488085,125.64143 102.801658,127.575709 C101.427043,131.723879 102.59573,137.186933 106.307716,143.959564 C110.70789,152.117867 115.931776,159.306376 121.982894,165.52863 C126.244023,169.954642 131.471429,174.378885 137.658073,178.801358 C144.94652,184.055588 150.721308,186.681818 154.984197,186.681818 C157.460614,186.681818 159.38437,186.405745 160.758984,185.85183 C162.133599,185.299685 163.782784,183.848533 165.71006,181.496606 M168.184717,170.090909 C172.31032,174.237309 172.31032,178.801358 168.184717,183.777745 C166.535532,185.715564 164.918028,187.166715 163.337486,188.13297 C161.756944,189.102764 160.450972,189.654909 159.419572,189.791176 C158.388171,189.932752 156.909712,190 154.984197,190 C149.621265,190 143.228693,187.235733 135.80296,181.703661 C129.889126,177.419224 124.527955,172.786158 119.714165,167.80977 C113.527521,161.313212 108.094186,153.914109 103.419442,145.619539 C99.2955993,137.878885 98.0565104,131.516824 99.7074556,126.538667 C100.532928,123.914206 102.456684,121.633067 105.482243,119.695248 L105.688172,119.488194 C108.164589,117.828218 110.362916,117 112.288432,117 C114.900375,117 117.239507,118.244097 119.302309,120.732291 L119.508237,120.939345 C122.671082,125.087515 124.871168,128.338448 126.108497,130.686836 C128.171299,134.974812 128.100896,138.638085 125.902569,141.678424 C124.251624,143.892315 123.427911,145.481503 123.427911,146.447758 C123.427911,146.863636 124.320267,148.107733 126.108497,150.181818 L126.314425,150.388873 C129.614556,154.121164 131.401026,156.128 131.677357,156.402303 C131.812882,156.402303 131.951928,156.473091 132.089213,156.609358 C132.226499,156.750933 132.365544,156.88897 132.50283,157.025236 L132.914686,157.439345 C135.665674,160.207152 137.658073,162.14143 138.897162,163.245721 L139.10309,163.454545 C140.340419,164.562376 141.165891,165.112752 141.577748,165.112752 C142.265935,165.112752 144.258333,164.075709 147.558464,162.001624 C148.519461,161.313212 149.689908,160.964582 151.066282,160.964582 C153.54094,160.964582 156.531298,162.001624 160.037356,164.075709 C163.545174,166.149794 166.259201,168.15663 168.184717,170.090909" id="Fill-2"></path>
            </g>
        </g>
    </g>
</svg>