<?xml version="1.0" encoding="UTF-8" standalone="no"?>
<svg width="34px" height="34px" viewBox="0 0 34 34" version="1.1" xmlns="http://www.w3.org/2000/svg" xmlns:xlink="http://www.w3.org/1999/xlink">
    <!-- Generator: Sketch 42 (36781) - http://www.bohemiancoding.com/sketch -->
    <title>Group 2</title>
    <desc>Created with Sketch.</desc>
    <defs></defs>
    <g id="Symbols" stroke="none" stroke-width="1" fill="none" fill-rule="evenodd">
        <g id="Header" transform="translate(-926.000000, -13.000000)" fill-rule="nonzero" fill="#707376">
            <g id="Group-2" transform="translate(926.000000, 13.000000)">
                <path d="M17,0 C7.62580769,0 0,7.62580769 0,17 C0,20.1979615 0.888576923,23.3024231 2.57419231,25.9982308 C1.90269231,28.3507692 0.689807692,32.8008462 0.676730769,32.8472692 C0.613961538,33.0774231 0.681307692,33.3232692 0.853269231,33.4886923 C1.02523077,33.6541154 1.27369231,33.7129615 1.49992308,33.6436538 L8.23846154,31.5709615 C10.8780385,33.1611154 13.9007692,34 17,34 C26.3741923,34 34,26.3741923 34,17 C34,7.62580769 26.3741923,0 17,0 Z M17,32.6923077 C14.0452692,32.6923077 11.1670385,31.8665 8.67588462,30.3051154 C8.57061538,30.2390769 8.44965385,30.2057308 8.32869231,30.2057308 C8.26396154,30.2057308 8.19923077,30.2155385 8.13646154,30.2345 L2.2525,32.0456538 C2.68469231,30.4679231 3.46146154,27.6459231 3.91196154,26.0760385 C3.96426923,25.8942692 3.93484615,25.6981154 3.83219231,25.5392308 C2.18057692,22.9977308 1.30769231,20.0449615 1.30769231,17 C1.30769231,8.34765385 8.34765385,1.30769231 17,1.30769231 C25.6523462,1.30769231 32.6923077,8.34765385 32.6923077,17 C32.6923077,25.6523462 25.6523462,32.6923077 17,32.6923077 Z" id="Shape"></path>
                <path d="M26.9214556,20.5501187 C25.846408,19.9531936 24.9309286,19.3545213 24.2629548,18.9177468 C23.7528022,18.5846335 23.3841645,18.3441163 23.1139467,18.208425 C22.358618,17.8316342 21.7861522,18.0977755 21.5683473,18.3179098 C21.5409761,18.345281 21.5165167,18.3749817 21.4955515,18.4064295 C20.7111045,19.5833912 19.6867227,20.7091047 19.3868042,20.7696707 C19.0402964,20.7155107 17.4184071,19.7936253 15.806418,18.4512716 C14.1606517,17.0797997 13.1252049,15.7665644 12.9732074,14.8720502 C14.029037,13.7853552 14.409322,13.1016575 14.409322,12.3236165 C14.409322,11.5216985 12.5387623,8.17367636 12.2004077,7.83532171 C11.8608883,7.4963847 11.0962418,7.44338939 9.92743318,7.67633579 C9.81503654,7.69904807 9.71137539,7.75437284 9.62984415,7.83532171 C9.48832921,7.97683665 6.17699609,11.3528124 7.75054904,15.444516 C9.47784662,19.9351402 13.911399,25.1548867 19.5638435,26.0028117 C20.2061932,26.098902 20.8083596,26.1466561 21.3720899,26.1466561 C24.6973998,26.1466561 26.6599733,24.4735185 27.2126386,21.1546146 C27.2539866,20.911768 27.136931,20.6695038 26.9214556,20.5501187 Z M19.7368062,24.8508917 C13.7594015,23.9546304 9.99440527,18.0325505 8.83782638,15.0263772 C7.69056534,12.0446632 9.80630105,9.38616239 10.3374188,8.78516067 C10.7695344,8.71178255 11.2243623,8.68091715 11.4142136,8.71061782 C11.8108048,9.26211843 13.1840239,11.856559 13.2445899,12.3236165 C13.2445899,12.6293587 13.1450054,13.0550682 11.9593082,14.2413478 C11.8498234,14.3502502 11.7886749,14.4981712 11.7886749,14.6530806 C11.7886749,17.702349 18.2203251,21.9326556 19.359433,21.9326556 C20.3500376,21.9326556 21.6417254,20.2676712 22.3772537,19.1827233 C22.4197664,19.1844704 22.4913974,19.1990296 22.5933115,19.2502778 C22.8029632,19.3556861 23.1663596,19.592709 23.6258464,19.8932099 C24.2326718,20.2898011 25.0386663,20.81626 25.9902524,21.3619369 C25.5581368,23.4409836 24.3503097,25.5439072 19.7368062,24.8508917 Z" id="Shape"></path>
            </g>
        </g>
    </g>
</svg>