<?xml version="1.0" encoding="UTF-8" standalone="no"?>
<svg width="35px" height="34px" viewBox="0 0 35 34" version="1.1" xmlns="http://www.w3.org/2000/svg" xmlns:xlink="http://www.w3.org/1999/xlink">
    <!-- Generator: Sketch 42 (36781) - http://www.bohemiancoding.com/sketch -->
    <title>Fill 1</title>
    <desc>Created with Sketch.</desc>
    <defs></defs>
    <g id="Symbols" stroke="none" stroke-width="1" fill="none" fill-rule="evenodd">
        <g id="Header" transform="translate(-656.000000, -13.000000)" fill="#707376">
            <g id="Quickinfo">
                <path d="M673.5,30 L673.5,19.5384615 L674.889292,19.5384615 L674.889292,31.3892923 L665.653846,31.3892923 L665.653846,30 L673.5,30 Z M662.466564,41.0334359 C665.517149,44.0854154 669.195426,45.6107077 673.5,45.6107077 C677.803877,45.6107077 681.481456,44.0854154 684.533436,41.0334359 C687.584718,37.9828513 689.110708,34.3052718 689.110708,30 C689.110708,25.6961231 687.584718,22.0185436 684.533436,18.9665641 C681.481456,15.9159795 677.803877,14.3892923 673.5,14.3892923 C669.195426,14.3892923 665.517149,15.9159795 662.466564,18.9665641 C659.414585,22.0185436 657.889292,25.6961231 657.889292,30 C657.889292,34.3052718 659.414585,37.9828513 662.466564,41.0334359 L662.466564,41.0334359 Z M661.485272,17.9852718 C664.808554,14.6626872 668.813231,13 673.5,13 C678.185374,13 682.190051,14.6626872 685.514728,17.9852718 C688.837313,21.3099487 690.5,25.3146256 690.5,30 C690.5,34.6867692 688.837313,38.6914462 685.514728,42.0147282 C682.190051,45.3387077 678.185374,47 673.5,47 C668.813231,47 664.808554,45.3387077 661.485272,42.0147282 C658.161292,38.6914462 656.5,34.6867692 656.5,30 C656.5,25.3146256 658.161292,21.3099487 661.485272,17.9852718 L661.485272,17.9852718 Z" id="Fill-1"></path>
            </g>
        </g>
    </g>
</svg>