<?xml version="1.0" encoding="UTF-8" standalone="no"?>
<svg width="82px" height="70px" viewBox="0 0 82 70" version="1.1" xmlns="http://www.w3.org/2000/svg" xmlns:xlink="http://www.w3.org/1999/xlink">
    <!-- Generator: Sketch 42 (36781) - http://www.bohemiancoding.com/sketch -->
    <title>Group</title>
    <desc>Created with Sketch.</desc>
    <defs></defs>
    <g id="Formulare" stroke="none" stroke-width="1" fill="none" fill-rule="evenodd">
        <g id="Formular-Kassenrezept-Upload" transform="translate(-479.000000, -1292.000000)" fill-rule="nonzero" fill="#707376">
            <g id="Group-5" transform="translate(379.000000, 1292.000000)">
                <g id="Group" transform="translate(100.000000, 0.000000)">
                    <path d="M69.1061148,22.5767127 C68.3926379,10.4079317 58.3484536,0.681019398 46.2383,0.681019398 C38.8869156,0.681019398 31.7683927,4.28162649 27.357562,10.1564435 C27.2573774,10.1037122 27.1504236,10.0685579 27.0488851,10.0185307 C26.7808236,9.88873037 26.5087005,9.76433838 26.2298082,9.65481935 C26.0741159,9.59397545 25.9184236,9.53853989 25.7613775,9.48310433 C25.4879005,9.38710617 25.2117159,9.30327679 24.9287621,9.22620784 C24.7717159,9.18429315 24.6160236,9.14102638 24.4562698,9.10452003 C24.1530083,9.03556361 23.8443314,8.98283222 23.5315929,8.93686127 C23.3935006,8.91657997 23.258116,8.88953824 23.1186698,8.87331319 C22.6719006,8.82463807 22.2170083,8.79354007 21.7553468,8.79354007 C15.0375623,8.79354007 9.57073172,14.2519144 9.57073172,20.9623211 C9.57073172,21.1367403 9.58020864,21.3071032 9.59239326,21.4774662 C3.96174725,24.5426469 0.0938088829,30.9664112 0.0938088829,37.3955838 C0.0938088829,46.9724145 7.89467022,54.7644906 17.4839623,54.7644906 L24.463039,54.7644906 C25.2103621,54.7644906 25.8168852,54.1601078 25.8168852,53.4124038 C25.8168852,52.6646998 25.2103621,52.060317 24.463039,52.060317 L17.4839623,52.060317 C9.38796249,52.060317 2.80150112,45.4824148 2.80150112,37.3955838 C2.80150112,31.7790153 6.46365487,25.9488171 11.5094394,23.5326381 L12.278424,23.1662225 L12.278424,22.3144079 C12.278424,22.1481012 12.2892547,21.9777383 12.2987316,21.8073753 L12.3109163,21.5707601 L12.2946701,21.3165678 C12.2879009,21.1989363 12.278424,21.0813047 12.278424,20.9623211 C12.278424,15.7446182 16.5295008,11.4977136 21.7553468,11.4977136 C22.1736852,11.4977136 22.5866083,11.53422 22.9968237,11.5883034 C23.1024237,11.6018243 23.2066698,11.6194014 23.310916,11.6369786 C23.6737467,11.6964704 24.0311621,11.7748914 24.3831621,11.8762979 C24.4291929,11.8898188 24.4765775,11.8979313 24.5212544,11.9114522 C24.9084544,12.0290837 25.2861775,12.1791654 25.6557775,12.3468241 C25.7491928,12.3887388 25.8412544,12.4347098 25.9333159,12.4806807 C26.2609467,12.641579 26.5818082,12.8200545 26.8904851,13.0201633 C29.4993466,14.7089197 31.2322696,17.6348355 31.2322696,20.9623211 C31.2322696,21.7100251 31.8387927,22.3144079 32.5861157,22.3144079 C33.3334388,22.3144079 33.9399619,21.7100251 33.9399619,20.9623211 C33.9399619,17.2386741 32.2530696,13.9057802 29.6076543,11.6721328 C33.4877773,6.60180741 39.8806386,3.38519296 46.2383,3.38519296 C56.7224844,3.38519296 65.4331303,11.6802453 66.3402072,22.1616221 C64.9565765,22.0642718 62.8838381,22.0142446 60.8124535,22.3306329 C60.0732535,22.4428561 59.5655612,23.1324204 59.6779304,23.8706598 C59.7794689,24.5399427 60.3562073,25.0199335 61.0141766,25.0199335 C61.0818689,25.0199335 61.150915,25.0145252 61.2199612,25.0037085 C64.2309149,24.5494073 67.3704841,24.9753147 67.5613764,25.0010043 C73.8648839,26.1976011 78.6168838,31.9967013 78.6168838,38.5015908 C78.6168838,45.9772786 72.5259301,52.060317 65.0405149,52.060317 L59.6630381,52.060317 C58.9157151,52.060317 58.309192,52.6646998 58.309192,53.4124038 C58.309192,54.1601078 58.9157151,54.7644906 59.6630381,54.7644906 L65.0405149,54.7644906 C74.0192224,54.7644906 81.324576,47.4686303 81.324576,38.5015908 C81.324576,31.0799865 76.1434069,24.4236632 69.1061148,22.5767127 Z" id="Shape"></path>
                    <path d="M43.0215616,36.2327892 C42.8970078,36.1070451 42.7467309,36.0083428 42.5802078,35.9393863 C42.2498693,35.8028256 41.8762078,35.8028256 41.5458694,35.9393863 C41.3793463,36.0083428 41.2304232,36.1070451 41.1045155,36.2327892 L30.2751004,47.0481313 C29.7457466,47.5767973 29.7457466,48.4313161 30.2751004,48.959982 C30.5391004,49.223639 30.885685,49.3561435 31.2322696,49.3561435 C31.5788542,49.3561435 31.9254388,49.223639 32.1894388,48.959982 L40.7091925,40.4512999 L40.7091925,68.2853584 C40.7091925,69.0330624 41.3157155,69.6374451 42.0630386,69.6374451 C42.8103616,69.6374451 43.4168847,69.0330624 43.4168847,68.2853584 L43.4168847,40.4512999 L51.9366383,48.959982 C52.2006383,49.223639 52.5472229,49.3561435 52.8938075,49.3561435 C53.2403921,49.3561435 53.5869768,49.223639 53.8509767,48.959982 C54.3803306,48.4313161 54.3803306,47.5767973 53.8509767,47.0481313 L43.0215616,36.2327892 Z" id="Shape"></path>
                </g>
            </g>
        </g>
    </g>
</svg>