<?xml version="1.0" encoding="UTF-8" standalone="no"?>
<svg width="42px" height="27px" viewBox="0 0 42 27" version="1.1" xmlns="http://www.w3.org/2000/svg" xmlns:xlink="http://www.w3.org/1999/xlink">
    <!-- Generator: Sketch 42 (36781) - http://www.bohemiancoding.com/sketch -->
    <title>GooglePlus-black</title>
    <desc>Created with Sketch.</desc>
    <defs></defs>
    <g id="Symbols" stroke="none" stroke-width="1" fill="none" fill-rule="evenodd">
        <g id="Footer" transform="translate(-568.000000, -174.000000)" fill="#FFFFFF">
            <path d="M605.377358,185.094059 L605.377358,180.415842 L602.075472,180.415842 L602.075472,185.094059 L597.320755,185.094059 L597.320755,188.435644 L602.075472,188.435644 L602.075472,193.247525 L605.377358,193.247525 L605.377358,188.435644 L610,188.435644 L610,185.094059 L605.377358,185.094059 L605.377358,185.094059 Z M581.339623,184.826733 L581.339623,190.173267 C581.339623,190.173267 586.464679,190.166317 588.551472,190.166317 C587.421434,193.632342 585.664302,195.519802 581.339623,195.519802 C576.963038,195.519802 573.54717,191.929203 573.54717,187.5 C573.54717,183.070797 576.963038,179.480198 581.339623,179.480198 C583.653585,179.480198 585.148019,180.303297 586.51883,181.45053 C587.616113,180.340054 587.524453,180.181797 590.316132,177.513743 C587.946302,175.330752 584.796566,174 581.339623,174 C573.972321,174 568,180.044124 568,187.5 C568,194.955743 573.972321,201 581.339623,201 C592.351679,201 595.043245,191.29604 594.150943,184.826733 L581.339623,184.826733 L581.339623,184.826733 Z" id="GooglePlus"></path>
        </g>
    </g>
</svg>