<?xml version="1.0" encoding="UTF-8" standalone="no"?>
<svg width="32px" height="32px" viewBox="0 0 32 32" version="1.1" xmlns="http://www.w3.org/2000/svg" xmlns:xlink="http://www.w3.org/1999/xlink">
    <!-- Generator: Sketch 42 (36781) - http://www.bohemiancoding.com/sketch -->
    <title>Fill 2</title>
    <desc>Created with Sketch.</desc>
    <defs></defs>
    <g id="Symbols" stroke="none" stroke-width="1" fill="none" fill-rule="evenodd">
        <g id="Header" transform="translate(-528.000000, -159.000000)" fill="#707376">
            <path d="M557.242766,187.272485 C558.025876,186.18177 558.386956,185.409115 558.327547,184.954521 C558.267367,184.499927 557.934835,183.970085 557.333036,183.363442 C556.669514,182.635782 555.645684,181.863127 554.259231,181.045479 C552.872007,180.227055 551.727817,179.81823 550.823576,179.81823 C550.582084,179.81823 550.340593,179.879515 550.099874,179.999758 C548.35157,181.090473 547.236699,181.63583 546.754488,181.63583 C546.271506,181.63583 545.579437,181.243297 544.675195,180.454352 L544.584925,180.454352 C543.500144,179.545164 542.595902,178.667006 541.8722,177.817552 L541.69166,177.636024 C541.63148,177.576291 541.510349,177.485527 541.329809,177.363733 C541.14927,177.18143 540.335298,176.272242 538.888665,174.63617 L538.888665,174.545406 C537.863292,173.394182 537.320902,172.545503 537.261493,172.000145 C537.200542,171.272485 537.681981,170.243055 538.708126,168.908752 C539.732727,167.576 538.798395,165.181236 535.905131,161.726788 L535.814861,161.636024 C535.211519,160.909139 534.548768,160.545309 533.825066,160.545309 C533.342084,160.545309 532.650015,160.8176 531.745773,161.363733 L531.565233,161.454497 C530.600812,162.061139 529.96738,162.788024 529.66648,163.635927 C529.063909,165.454303 529.57621,167.849067 531.203382,170.817891 C533.132226,174.394133 535.422148,177.545261 538.074693,180.272824 C539.942585,182.212994 542.234051,184.152388 544.946005,186.091006 C548.14094,188.39423 550.672354,189.545455 552.541018,189.545455 C553.626571,189.545455 554.469861,189.424436 555.072432,189.181624 C555.675002,188.939588 556.397933,188.303467 557.242766,187.272485 M558.327547,182.272727 C560.136031,184.090327 560.136031,186.091006 558.327547,188.272436 C557.604617,189.121891 556.895574,189.758012 556.202734,190.181576 C555.509893,190.606691 554.937412,190.848727 554.485292,190.908461 C554.033171,190.970521 553.385079,191 552.541018,191 C550.190144,191 547.38792,189.788267 544.132804,187.363248 C541.540439,185.485139 539.190336,183.454206 537.080182,181.272776 C534.368228,178.42497 531.986493,175.181527 529.93729,171.545552 C528.129578,168.152388 527.586416,165.363539 528.310118,163.181333 C528.671968,162.030885 529.515259,161.030933 530.841531,160.181479 L530.931801,160.090715 C532.017354,159.363055 532.981004,159 533.825066,159 C534.970027,159 535.9954,159.545358 536.899642,160.636073 L536.989912,160.726836 C538.376365,162.545212 539.340786,163.970279 539.883177,164.999709 C540.787419,166.87937 540.756557,168.485188 539.792907,169.817939 C539.069205,170.788412 538.708126,171.485042 538.708126,171.908606 C538.708126,172.090909 539.099295,172.636267 539.883177,173.545455 L539.973447,173.636218 C541.420079,175.272291 542.203189,176.152 542.324321,176.272242 C542.383729,176.272242 542.444681,176.303273 542.504861,176.363006 C542.56504,176.425067 542.625992,176.485576 542.686172,176.545309 L542.866712,176.726836 C544.072624,177.940121 544.946005,178.788024 545.489167,179.272097 L545.579437,179.363636 C546.121827,179.849261 546.483678,180.090521 546.664218,180.090521 C546.965889,180.090521 547.839269,179.635927 549.285902,178.726739 C549.707161,178.42497 550.220233,178.272145 550.823576,178.272145 C551.908357,178.272145 553.219199,178.726739 554.756101,179.635927 C556.293775,180.545115 557.483486,181.424824 558.327547,182.272727" id="Fill-2"></path>
        </g>
    </g>
</svg>