<?xml version="1.0" encoding="UTF-8" standalone="no"?>
<svg width="31px" height="31px" viewBox="0 0 31 31" version="1.1" xmlns="http://www.w3.org/2000/svg" xmlns:xlink="http://www.w3.org/1999/xlink">
    <!-- Generator: Sketch 42 (36781) - http://www.bohemiancoding.com/sketch -->
    <title>Facebook-black</title>
    <desc>Created with Sketch.</desc>
    <defs></defs>
    <g id="Symbols" stroke="none" stroke-width="1" fill="none" fill-rule="evenodd">
        <g id="Footer" transform="translate(-436.000000, -172.000000)" fill="#FFFFFF">
            <path d="M452.558104,203 L437.710962,203 C436.765747,203 436,202.233778 436,201.288931 L436,173.710949 C436,172.765861 436.765867,172 437.710962,172 L465.289158,172 C466.234013,172 467,172.765861 467,173.710949 L467,201.288931 C467,202.233898 466.233892,203 465.289158,203 L457.389551,203 L457.389551,190.995092 L461.419045,190.995092 L462.022404,186.316566 L457.389551,186.316566 L457.389551,183.329623 C457.389551,181.975081 457.765689,181.052006 459.708083,181.052006 L462.185514,181.050924 L462.185514,176.866413 C461.757051,176.809397 460.286423,176.682014 458.575461,176.682014 C455.003539,176.682014 452.558104,178.862319 452.558104,182.866281 L452.558104,186.316566 L448.518266,186.316566 L448.518266,190.995092 L452.558104,190.995092 L452.558104,203 L452.558104,203 Z" id="Facebook"></path>
        </g>
    </g>
</svg>