<?xml version="1.0" encoding="UTF-8" standalone="no"?>
<svg width="17px" height="34px" viewBox="0 0 17 34" version="1.1" xmlns="http://www.w3.org/2000/svg" xmlns:xlink="http://www.w3.org/1999/xlink">
    <!-- Generator: Sketch 42 (36781) - http://www.bohemiancoding.com/sketch -->
    <title>Page 1</title>
    <desc>Created with Sketch.</desc>
    <defs></defs>
    <g id="Symbols" stroke="none" stroke-width="1" fill="none" fill-rule="evenodd" opacity="0.900000036">
        <g id="Header" transform="translate(-962.000000, -158.000000)" fill="#707376">
            <g id="Page-1" transform="translate(962.000000, 158.000000)">
                <path d="M14.7249565,15.5833333 L15.0716087,12.75 L11.1734348,12.75 L9.70108696,12.75 L9.70108696,11.2449333 L9.70108696,7.96884444 C9.70108696,6.78866667 9.96126087,5.90315556 10.4808696,5.31231111 C11.1157826,4.60435556 12.1838261,4.25 13.6857391,4.25 L15.2445652,4.25 L15.2445652,1.41666667 L11.7802609,1.41666667 C9.2383913,1.41666667 7.50586957,1.94782222 6.58269565,3.01013333 C5.71643478,3.95533333 5.28404348,5.4604 5.28404348,7.52608889 L5.28404348,11.3333333 L5.28404348,12.75 L3.98465217,12.75 L1.38586957,12.75 L1.38586957,15.5833333 L3.98465217,15.5833333 L5.28404348,15.5833333 L5.28404348,17 L5.28404348,32.5833333 L9.70108696,32.5833333 L9.70108696,17 L9.70108696,15.5833333 L11.1734348,15.5833333 L14.7249565,15.5833333 Z M11.0869565,11.3333333 L16.6304348,11.3333333 L15.9378696,17 L11.0869565,17 L11.0869565,34 L3.89817391,34 L3.89817391,17 L0,17 L0,11.3333333 L3.89817391,11.3333333 L3.89817391,7.52608889 C3.89817391,5.04711111 4.50426087,3.17333333 5.71643478,1.904 C6.92934783,0.634666667 8.95013043,0 11.7802609,0 L16.6304348,0 L16.6304348,5.66666667 L13.6857391,5.66666667 C12.5881304,5.66666667 11.8800435,5.84346667 11.5636957,6.19782222 C11.2451304,6.55217778 11.0869565,7.14302222 11.0869565,7.96884444 L11.0869565,11.3333333 Z" id="Fill-1"></path>
            </g>
        </g>
    </g>
</svg>