<?xml version="1.0" encoding="UTF-8" standalone="no"?>
<svg width="32px" height="32px" viewBox="0 0 32 32" version="1.1" xmlns="http://www.w3.org/2000/svg" xmlns:xlink="http://www.w3.org/1999/xlink">
    <!-- Generator: Sketch 42 (36781) - http://www.bohemiancoding.com/sketch -->
    <title>Page 1</title>
    <desc>Created with Sketch.</desc>
    <defs></defs>
    <g id="Symbols" stroke="none" stroke-width="1" fill="none" fill-rule="evenodd">
        <g id="Header" transform="translate(-927.000000, -14.000000)" fill="#707376">
            <g id="Quickinfo">
                <path d="M937.666667,38.6663111 L953.666667,38.6663111 L953.666667,37.3329778 L937.666667,37.3329778 L937.666667,38.6663111 Z M937.666667,30.6670222 L953.666667,30.6670222 L953.666667,29.3336889 L937.666667,29.3336889 L937.666667,30.6670222 Z M937.666667,22.6663111 L953.666667,22.6663111 L953.666667,21.3329778 L937.666667,21.3329778 L937.666667,22.6663111 Z M933.666667,39.3333333 C932.777778,39.3333333 932.333333,38.8888889 932.333333,38 C932.333333,37.1118222 932.777778,36.6666667 933.666667,36.6666667 C934.554844,36.6666667 935,37.1118222 935,38 C935,38.8888889 934.554844,39.3333333 933.666667,39.3333333 L933.666667,39.3333333 Z M933.666667,31.3333333 C932.777778,31.3333333 932.333333,30.8888889 932.333333,30 C932.333333,29.1118222 932.777778,28.6666667 933.666667,28.6666667 C934.554844,28.6666667 935,29.1118222 935,30 C935,30.8888889 934.554844,31.3333333 933.666667,31.3333333 L933.666667,31.3333333 Z M933.666667,23.3333333 C932.777778,23.3333333 932.333333,22.8888889 932.333333,22 C932.333333,21.1118222 932.777778,20.6666667 933.666667,20.6666667 C934.554844,20.6666667 935,21.1118222 935,22 C935,22.8888889 934.554844,23.3333333 933.666667,23.3333333 L933.666667,23.3333333 Z M928.333333,44.6666667 L957.666667,44.6666667 L957.666667,15.3333333 L928.333333,15.3333333 L928.333333,44.6666667 Z M927,46 L959,46 L959,14 L927,14 L927,46 Z" id="Page-1"></path>
            </g>
        </g>
    </g>
</svg>