<?xml version="1.0" encoding="UTF-8" standalone="no"?>
<svg width="28px" height="26px" viewBox="0 0 28 26" version="1.1" xmlns="http://www.w3.org/2000/svg" xmlns:xlink="http://www.w3.org/1999/xlink">
    <!-- Generator: Sketch 42 (36781) - http://www.bohemiancoding.com/sketch -->
    <title>Fill 1</title>
    <desc>Created with Sketch.</desc>
    <defs></defs>
    <g id="Symbols" stroke="none" stroke-width="1" fill="none" fill-rule="evenodd">
        <g id="Header" transform="translate(-1268.000000, -162.000000)" fill="#707376">
            <path d="M1272.08302,178.859556 C1273.97893,180.620044 1276.31227,181.5 1279.08302,181.5 C1281.80524,181.5 1284.13858,180.598089 1286.08302,178.791956 C1288.02684,176.986978 1288.99938,174.820311 1288.99938,172.291956 C1288.99938,169.764756 1288.02684,167.598089 1286.08302,165.791956 C1284.13858,163.986978 1281.80524,163.083333 1279.08302,163.083333 C1276.36018,163.083333 1274.02684,163.986978 1272.08302,165.791956 C1270.13858,167.598089 1269.16667,169.764756 1269.16667,172.291956 C1269.16667,174.8648 1270.13858,177.054578 1272.08302,178.859556 L1272.08302,178.859556 Z M1296,186.442889 L1294.32249,188 L1286.08302,180.349067 C1284.08942,181.838578 1281.75609,182.583333 1279.08302,182.583333 C1276.02044,182.583333 1273.40711,181.579733 1271.24427,179.570222 C1269.08142,177.562444 1268,175.135778 1268,172.291956 C1268,169.448133 1269.08142,167.022622 1271.24427,165.013111 C1273.40711,163.005333 1276.02044,162 1279.08302,162 C1282.1456,162 1284.75831,163.005333 1286.92178,165.013111 C1289.084,167.022622 1290.16604,169.448133 1290.16604,172.291956 C1290.16604,174.7296 1289.364,176.873733 1287.75991,178.724356 L1296,186.442889 Z" id="Fill-1"></path>
        </g>
    </g>
</svg>