<?xml version="1.0" encoding="UTF-8" standalone="no"?>
<svg width="33px" height="33px" viewBox="0 0 33 33" version="1.1" xmlns="http://www.w3.org/2000/svg" xmlns:xlink="http://www.w3.org/1999/xlink">
    <!-- Generator: Sketch 42 (36781) - http://www.bohemiancoding.com/sketch -->
    <title>Page 1</title>
    <desc>Created with Sketch.</desc>
    <defs>
        <polygon id="path-1" points="8.13151629e-20 0.4115 8.13151629e-20 1.8665 5.1485 1.8665 5.1485 0.4115 0 0.4115"></polygon>
    </defs>
    <g id="Symbols" stroke="none" stroke-width="1" fill="none" fill-rule="evenodd">
        <g id="Header" transform="translate(-405.000000, -13.000000)">
            <g id="Quickinfo">
                <g id="Page-1" transform="translate(405.000000, 13.000000)">
                    <path d="M27.1201,30.7768 L4.9641,30.7768 L4.9641,24.9738 L6.5301,24.9738 L25.5221,24.9738 L27.1201,24.9738 L27.1201,30.7768 Z M14.9721,8.0928 L17.0811,8.0928 C21.4451,8.0928 25.0101,11.6628 25.0101,16.0268 L25.0101,23.9188 L7.0731,23.9188 L7.0731,16.0268 C7.0731,11.6628 10.6071,8.0928 14.9721,8.0928 L14.9721,8.0928 Z M27.6321,23.9188 L26.0651,23.9188 L26.0651,16.0268 C26.0651,11.0808 22.0261,7.0378 17.0811,7.0378 L14.9721,7.0378 C10.0261,7.0378 6.0181,11.0808 6.0181,16.0268 L6.0181,23.9188 L4.4211,23.9188 C4.1291,23.9188 3.9081,24.1758 3.9081,24.4668 L3.9081,31.3248 C3.9081,31.6168 4.1291,31.8318 4.4211,31.8318 L27.6321,31.8318 C27.9241,31.8318 28.1751,31.6168 28.1751,31.3248 L28.1751,24.4668 C28.1751,24.1758 27.9241,23.9188 27.6321,23.9188 L27.6321,23.9188 Z" id="Fill-1" fill="#717171"></path>
                    <path d="M7.2734,23.7187 L24.8094,23.7187 L24.8094,16.0267 C24.8094,11.7617 21.3424,8.2927 17.0814,8.2927 L14.9714,8.2927 C10.7264,8.2927 7.2734,11.7617 7.2734,16.0267 L7.2734,23.7187 Z M25.2104,24.1187 L6.8734,24.1187 L6.8734,16.0267 C6.8734,11.5417 10.5054,7.8927 14.9714,7.8927 L17.0814,7.8927 C21.5634,7.8927 25.2104,11.5417 25.2104,16.0267 L25.2104,24.1187 Z M5.1644,30.5767 L26.9204,30.5767 L26.9204,25.1747 L5.1644,25.1747 L5.1644,30.5767 Z M4.7634,30.9767 L27.3204,30.9767 L27.3204,24.7737 L4.7634,24.7737 L4.7634,30.9767 Z M4.4204,24.1187 C4.2484,24.1187 4.1084,24.2747 4.1084,24.4667 L4.1084,31.3247 C4.1084,31.5057 4.2364,31.6317 4.4204,31.6317 L27.6314,31.6317 C27.8244,31.6317 27.9744,31.4967 27.9744,31.3247 L27.9744,24.4667 C27.9744,24.2847 27.8114,24.1187 27.6314,24.1187 L25.8654,24.1187 L25.8654,16.0267 C25.8654,11.1797 21.9244,7.2377 17.0814,7.2377 L14.9714,7.2377 C10.1454,7.2377 6.2184,11.1797 6.2184,16.0267 L6.2184,24.1187 L4.4204,24.1187 Z M27.6314,32.0317 L4.4204,32.0317 C4.0144,32.0317 3.7084,31.7277 3.7084,31.3247 L3.7084,24.4667 C3.7084,24.0537 4.0284,23.7187 4.4204,23.7187 L5.8184,23.7187 L5.8184,16.0267 C5.8184,10.9597 9.9244,6.8377 14.9714,6.8377 L17.0814,6.8377 C22.1454,6.8377 26.2654,10.9597 26.2654,16.0267 L26.2654,23.7187 L27.6314,23.7187 C28.0344,23.7187 28.3754,24.0617 28.3754,24.4667 L28.3754,31.3247 C28.3754,31.7147 28.0424,32.0317 27.6314,32.0317 L27.6314,32.0317 Z" id="Fill-3" fill="#717171"></path>
                    <path d="M16.042,0.2002 C15.75,0.2002 15.515,0.4362 15.515,0.7272 L15.515,5.4752 C15.515,5.7662 15.75,6.0032 16.042,6.0032 C16.333,6.0032 16.569,5.7662 16.569,5.4752 L16.569,0.7272 C16.569,0.4362 16.333,0.2002 16.042,0.2002" id="Fill-5" fill="#717171"></path>
                    <path d="M16.042,0.4004 C15.861,0.4004 15.715,0.5464 15.715,0.7274 L15.715,5.4754 C15.715,5.6564 15.861,5.8024 16.042,5.8024 C16.223,5.8024 16.369,5.6564 16.369,5.4754 L16.369,0.7274 C16.369,0.5464 16.223,0.4004 16.042,0.4004 M16.042,6.2034 C15.641,6.2034 15.314,5.8764 15.314,5.4754 L15.314,0.7274 C15.314,0.3264 15.641,0.0004 16.042,0.0004 C16.443,0.0004 16.77,0.3264 16.77,0.7274 L16.77,5.4754 C16.77,5.8764 16.443,6.2034 16.042,6.2034" id="Fill-7" fill="#717171"></path>
                    <path d="M6.6543,8.0185 L4.2653,5.6295 C4.0603,5.4245 3.7253,5.4245 3.5193,5.6295 C3.3133,5.8365 3.3133,6.1705 3.5193,6.3765 L5.9093,8.7645 C6.0103,8.8675 6.1463,8.9185 6.2813,8.9185 C6.4173,8.9185 6.5503,8.8675 6.6543,8.7645 C6.8603,8.5585 6.8603,8.2245 6.6543,8.0185" id="Fill-9" fill="#717171"></path>
                    <path d="M3.8926,5.6758 C3.8046,5.6758 3.7226,5.7098 3.6616,5.7718 C3.5336,5.8998 3.5336,6.1078 3.6616,6.2348 L6.0506,8.6228 C6.1706,8.7468 6.3876,8.7468 6.5136,8.6228 C6.5756,8.5618 6.6086,8.4788 6.6086,8.3918 C6.6086,8.3038 6.5756,8.2218 6.5126,8.1598 L4.1236,5.7718 C4.0626,5.7098 3.9806,5.6758 3.8926,5.6758 M6.2816,9.1188 C6.0846,9.1188 5.9026,9.0428 5.7666,8.9048 L3.3776,6.5178 C3.0946,6.2348 3.0946,5.7728 3.3776,5.4888 C3.6546,5.2128 4.1346,5.2148 4.4076,5.4888 L6.7956,7.8768 C6.9336,8.0148 7.0086,8.1968 7.0086,8.3918 C7.0086,8.5858 6.9336,8.7688 6.7956,8.9058 C6.6576,9.0438 6.4746,9.1188 6.2816,9.1188" id="Fill-11" fill="#717171"></path>
                    <path d="M28.2832,5.6299 C28.0782,5.4239 27.7442,5.4239 27.5382,5.6299 L25.1492,8.0189 C24.9432,8.2249 24.9432,8.5589 25.1492,8.7649 C25.2522,8.8679 25.3872,8.9189 25.5222,8.9189 C25.6572,8.9189 25.7922,8.8679 25.8952,8.7649 L28.2832,6.3769 C28.4902,6.1709 28.4902,5.8369 28.2832,5.6299" id="Fill-13" fill="#717171"></path>
                    <path d="M27.9111,5.6758 C27.8231,5.6758 27.7411,5.7098 27.6801,5.7718 L25.2911,8.1598 C25.2281,8.2218 25.1951,8.3038 25.1951,8.3918 C25.1951,8.4788 25.2281,8.5618 25.2911,8.6228 C25.4131,8.7458 25.6291,8.7468 25.7551,8.6228 L28.1411,6.2348 C28.2041,6.1728 28.2381,6.0908 28.2381,6.0038 C28.2381,5.9158 28.2041,5.8338 28.1411,5.7718 C28.0801,5.7098 27.9981,5.6758 27.9111,5.6758 M25.5221,9.1188 C25.3271,9.1188 25.1441,9.0438 25.0081,8.9058 C24.8701,8.7688 24.7951,8.5858 24.7951,8.3918 C24.7951,8.1968 24.8701,8.0148 25.0081,7.8768 L27.3961,5.4888 C27.6721,5.2138 28.1511,5.2148 28.4251,5.4888 C28.5621,5.6258 28.6391,5.8088 28.6391,6.0038 C28.6391,6.1978 28.5621,6.3808 28.4241,6.5178 L26.0371,8.9058 C25.8981,9.0438 25.7161,9.1188 25.5221,9.1188" id="Fill-15" fill="#717171"></path>
                    <path d="M4.4209,18.6435 L0.7279,18.6435 C0.4369,18.6435 0.1999,18.8795 0.1999,19.1705 C0.1999,19.4625 0.4369,19.6985 0.7279,19.6985 L4.4209,19.6985 C4.7119,19.6985 4.9479,19.4625 4.9479,19.1705 C4.9479,18.8795 4.7119,18.6435 4.4209,18.6435" id="Fill-17" fill="#717171"></path>
                    <g id="Group-21" transform="translate(0.000000, 18.032200)">
                        <mask id="mask-2" fill="white">
                            <use xlink:href="#path-1"></use>
                        </mask>
                        <g id="Clip-20"></g>
                        <path d="M0.7275,0.8115 C0.5465,0.8115 0.4005,0.9575 0.4005,1.1385 C0.4005,1.3195 0.5465,1.4665 0.7275,1.4665 L4.4205,1.4665 C4.6015,1.4665 4.7485,1.3195 4.7485,1.1385 C4.7485,0.9575 4.6015,0.8115 4.4205,0.8115 L0.7275,0.8115 Z M4.4205,1.8665 L0.7275,1.8665 C0.3265,1.8665 -0.0005,1.5405 -0.0005,1.1385 C-0.0005,0.7375 0.3265,0.4115 0.7275,0.4115 L4.4205,0.4115 C4.8225,0.4115 5.1485,0.7375 5.1485,1.1385 C5.1485,1.5405 4.8225,1.8665 4.4205,1.8665 L4.4205,1.8665 Z" id="Fill-19" fill="#717171" mask="url(#mask-2)"></path>
                    </g>
                    <path d="M31.3252,18.6435 L27.6322,18.6435 C27.3412,18.6435 27.1042,18.8795 27.1042,19.1705 C27.1042,19.4625 27.3412,19.6985 27.6322,19.6985 L31.3252,19.6985 C31.6162,19.6985 31.8522,19.4625 31.8522,19.1705 C31.8522,18.8795 31.6162,18.6435 31.3252,18.6435" id="Fill-22" fill="#717171"></path>
                    <path d="M27.6318,18.8437 C27.4508,18.8437 27.3048,18.9897 27.3048,19.1707 C27.3048,19.3517 27.4508,19.4987 27.6318,19.4987 L31.3248,19.4987 C31.5058,19.4987 31.6528,19.3517 31.6528,19.1707 C31.6528,18.9897 31.5058,18.8437 31.3248,18.8437 L27.6318,18.8437 Z M31.3248,19.8987 L27.6318,19.8987 C27.2308,19.8987 26.9038,19.5727 26.9038,19.1707 C26.9038,18.7697 27.2308,18.4437 27.6318,18.4437 L31.3248,18.4437 C31.7268,18.4437 32.0528,18.7697 32.0528,19.1707 C32.0528,19.5727 31.7268,19.8987 31.3248,19.8987 L31.3248,19.8987 Z" id="Fill-24" fill="#717171"></path>
                </g>
            </g>
        </g>
    </g>
</svg>