<?xml version="1.0" encoding="utf-8"?>
<!-- Generator: Adobe Illustrator 16.0.4, SVG Export Plug-In . SVG Version: 6.00 Build 0)  -->
<!DOCTYPE svg PUBLIC "-//W3C//DTD SVG 1.1//EN" "http://www.w3.org/Graphics/SVG/1.1/DTD/svg11.dtd">
<svg version="1.1" id="Ebene_1" xmlns="http://www.w3.org/2000/svg" xmlns:xlink="http://www.w3.org/1999/xlink" x="0px" y="0px"
	 width="299px" height="105.836px" viewBox="0 0 299 105.836" enable-background="new 0 0 299 105.836" xml:space="preserve">
<g>
	<path fill-rule="evenodd" clip-rule="evenodd" fill="#C21921" d="M265.373,23.697l1.535,0.701v-1.6h-3.768v-7.801h3.768V5.334
		L277.641,0l8.799,6.164v17.232l4.066,2.799l-5,7.135l-6.666-4.666v-5.865h-4.133v5.633l-6.4,4.898l-9.731-4.434L265.373,23.697z
		 M264.74,15.996h11.968v-0.398h-8.134c0.034-1.367,1.034-2.932,2.433-2.932c0.869,0,1.334,0.299,1.868,1.398
		c0.199,0.4,0.367,0.6,0.533,0.867l0.068-0.066l-0.303-0.969l0.734,0.801c-0.068-1.832-1.101-3.033-2.967-3.033
		c-2.232,0-3.234,2.102-3.5,3.934h-2.701V15.996z M270.241,21.932c-0.866,0.598-1.133,1.199-1,1.9c0.233-0.232,0.532-0.535,1-0.768
		v0.4h0.233V20.43l0.367,0.268v2.768h0.233v-0.666c0.665-0.367,1.233-1.035,1.233-1.502c0-0.566-0.302-1.033-1.233-1.699v-0.799
		h-0.233v0.631l-0.367-0.264v-0.367h-0.233v0.199c-0.134-0.068-0.299-0.234-0.468-0.467c0.302,0.066,0.535,0.066,0.935,0.066
		c2.167,0,4.099-0.834,5.532-2.201h-11.064c0.834,0.803,1.865,1.434,2.998,1.768c0.367,0.834,1.201,1.533,2.067,2.066V21.932z
		 M267.843,15.598c0.432-3.033,2.232-3.6,3.164-3.6c0.701,0,1.47,0.232,1.7,0.9c-0.666-0.434-1.032-0.602-1.7-0.602
		c-1.467,0-2.599,1.402-2.833,3.301H267.843z M271.075,22.031c0.266-0.1,0.532-0.467,0.532-0.768c0-0.332-0.5-0.799-0.935-1.1
		c-1.165-0.699-1.831-1.365-1.999-1.9l0.601,0.201c0.233,0.633,1.667,1.4,2.3,2.066c0.267,0.301,0.367,0.467,0.367,0.732
		c0,0.402-0.334,0.867-0.866,1.168V22.031z M268.774,25.064h3.933v-0.4h-3.933V25.064z M272.275,24.266
		c-0.435-0.367-0.967-0.602-1.567-0.602c-0.633,0-1.168,0.234-1.567,0.602H272.275z M270.241,22.73
		c-0.198,0.1-0.367,0.266-0.701,0.533c0.201-0.434,0.435-0.699,0.701-0.9V22.73z M271.075,20.898c0.133,0.1,0.233,0.268,0.233,0.434
		c0,0.133-0.133,0.266-0.233,0.334V20.898z M273.408,13.83v-0.266l0.166,0.135l0.032,0.299L273.408,13.83z M274.707,14.998h4.133
		v-5.1l-4.133-2.9V14.998z"/>
	<path fill="#707476" d="M51.49,20.02c0.454,0.91,0.681,1.834,0.681,2.773c0,1.486-0.507,2.719-1.522,3.703
		c-1.016,0.984-2.249,1.479-3.703,1.479c-0.394,0-0.75-0.031-1.068-0.092s-0.552-0.121-0.705-0.184l0.183-0.361
		c0.241-0.455,0.363-0.969,0.363-1.545c0-1.637-0.984-2.621-2.953-2.955c-0.425-0.059-0.728-0.092-0.909-0.092
		c-1.122,0-2.204,0.328-3.249,0.979c-1.045,0.652-2.022,1.658-2.931,3.021l-0.545,0.953c0.241,0.244,0.514,0.486,0.818,0.727
		c0.302,0.244,0.621,0.486,0.954,0.73c0.757,0.482,1.568,0.871,2.431,1.156c0.864,0.289,1.9,0.523,3.113,0.703l0.908,0.139
		l0.137,1.408c0.303,2.816,1.075,5.498,2.317,8.043c0.97,1.998,1.718,3.348,2.249,4.043c0.53,0.699,1.34,1.439,2.431,2.227
		l0.863,0.592l-1.09,2.316c-1.031-0.424-2.227-0.711-3.589-0.863c-1.363-0.15-3.122-0.227-5.271-0.227
		c-1.394,0-2.528,0.082-3.408,0.25c-0.879,0.166-1.757,0.43-2.636,0.795l-1.454-2.092c1.12-0.756,1.681-1.861,1.681-3.314
		c0-1.242-0.394-2.865-1.182-4.863c-0.333-0.787-0.711-1.49-1.136-2.113c-0.425-0.619-0.818-1.068-1.182-1.34
		c-0.576-0.393-1.122-0.592-1.636-0.592c-0.938,0-1.651,0.697-2.135,2.092c-0.213,0.545-0.318,1.305-0.318,2.271
		c0,1.787,0.181,3.082,0.545,3.885c0.363,0.805,1.166,1.75,2.408,2.84l1.363,1.184l-0.954,1.998l-2.499-0.592l-2.409-0.59
		l-0.181-0.045c-0.305-0.061-0.698-0.105-1.183-0.137c-0.484-0.031-0.999-0.047-1.544-0.047h-1.727
		c-0.545,0.092-0.94,0.154-1.182,0.184c-1.756,0.18-3.453,0.605-5.089,1.271l-1.681-2.043c1.424-0.82,2.423-2.055,2.999-3.705
		s0.863-4.414,0.863-8.293v-1.543l-0.045-0.775l-0.091-2.088v-3.682v-0.682c0-0.273-0.031-0.65-0.09-1.135
		c-0.272-2.273-0.689-3.984-1.25-5.135c-0.56-1.15-1.355-1.969-2.385-2.455l1.317-2.045l1.182,0.229l1.772,0.318
		c1.333,0.213,2.597,0.332,3.794,0.361c1.196,0.033,2.052,0.047,2.568,0.047c1.09,0,2.151-0.076,3.181-0.229
		c1.03-0.15,2.09-0.377,3.181-0.68l1.181,1.953c-0.849,0.424-1.522,1.045-2.022,1.861c-0.5,0.818-0.947,2.031-1.341,3.637
		c-0.09,0.426-0.182,0.873-0.272,1.34c-0.09,0.471-0.136,1.158-0.136,2.068l-0.182,1.816v0.592
		c-0.032,0.242-0.045,0.531-0.045,0.863v0.771v1.047v0.725c0.182-0.271,0.402-0.627,0.659-1.066
		c0.257-0.438,0.446-0.764,0.568-0.977l0.273-0.5l0.5-1l1.636-3.408l0.545-1c1.817-3.029,3.537-5.164,5.157-6.406
		s3.537-1.969,5.748-2.182c0.212,0,0.446-0.006,0.705-0.023c0.257-0.014,0.431-0.021,0.522-0.021c0.455,0,0.817,0.016,1.09,0.045
		c0.272,0.031,0.652,0.092,1.136,0.182c1.272,0.244,2.271,0.623,2.999,1.137C50.308,18.174,50.944,18.961,51.49,20.02"/>
	<path fill="#707476" d="M68.165,17.84c-0.788,0.697-1.363,1.471-1.727,2.318c-0.363,0.848-0.682,2.166-0.954,3.953
		c-0.061,0.605-0.106,1.545-0.137,2.816s-0.045,3.166-0.045,5.68v2.453c0,1.76,0.03,3.129,0.091,4.113
		c0.06,0.986,0.121,1.75,0.182,2.295c0.242,2.059,0.47,3.424,0.682,4.09c0.212,0.666,0.666,1.408,1.363,2.227l0.5,0.545
		l-0.954,1.545c-1.303-0.607-2.878-0.998-4.726-1.182h-3.363c-1.454,0.061-2.696,0.35-3.726,0.863l-1.091-1.453
		c0.787-0.607,1.348-1.281,1.681-2.023c0.333-0.74,0.667-2.158,1-4.248c0.091-0.482,0.166-1.008,0.228-1.566
		c0.059-0.561,0.09-1.145,0.09-1.75v-0.592v-1.906l-0.045-3.32l-0.045-1.861l-0.182-4.453c-0.213-2.514-0.507-4.309-0.886-5.385
		c-0.379-1.076-1.038-2.082-1.977-3.021l0.863-1.816c0.727,0.332,1.409,0.582,2.045,0.748c0.636,0.166,1.454,0.25,2.454,0.25h1.363
		c1.727,0,2.99-0.053,3.794-0.16c0.802-0.104,1.613-0.369,2.431-0.793L68.165,17.84z"/>
	<path fill="#707476" d="M83.341,26.064c-1.121,1.121-1.909,2.324-2.363,3.613c-0.455,1.287-0.682,3.201-0.682,5.748v2.588
		c0,3.182,0.188,5.34,0.568,6.477c0.379,1.135,1.174,2.232,2.385,3.295l-0.5,1.953l-0.5-0.137l-0.772-0.135l-1.136-0.182
		c-2.545-0.424-4.378-0.639-5.498-0.639c-0.848,0-1.568,0.084-2.159,0.25c-0.59,0.168-1.295,0.463-2.113,0.887l-1.045-1.637
		c0.787-0.604,1.37-1.307,1.75-2.111c0.379-0.803,0.675-1.961,0.886-3.477l0.273-2.635v-2.727v-1.045v-1.773
		c-0.09-0.422-0.152-0.725-0.182-0.908l-0.045-0.363l-0.454-2.09c-0.213-1.121-0.379-1.861-0.5-2.227
		c-0.121-0.363-0.364-0.816-0.727-1.363c-0.153-0.271-0.326-0.521-0.523-0.75s-0.432-0.477-0.705-0.75l0.909-1.361
		c1.756,0.785,3.816,1.18,6.179,1.18c2.484,0,4.529-0.395,6.134-1.18L83.341,26.064z M80.479,17.248
		c0.423,0.848,0.636,1.682,0.636,2.5c0,0.971-0.236,1.84-0.705,2.613c-0.47,0.773-1.135,1.377-1.999,1.816
		c-0.863,0.441-1.69,0.66-2.476,0.66c-1.062,0-2.008-0.303-2.84-0.908c-0.834-0.607-1.461-1.471-1.886-2.592
		c-0.273-0.635-0.409-1.256-0.409-1.861c0-0.213,0.045-0.57,0.136-1.07c0.091-0.498,0.341-1.027,0.75-1.588
		c0.409-0.562,0.916-1.039,1.522-1.432c0.848-0.516,1.727-0.773,2.635-0.773c0.97,0,1.863,0.227,2.682,0.682
		C79.342,15.75,79.995,16.4,80.479,17.248"/>
	<path fill="#707476" d="M112.149,48.285c-0.333,0.605-0.872,1.09-1.613,1.453c-0.743,0.363-1.659,0.545-2.749,0.545
		c-1.303,0-2.499-0.205-3.59-0.613c-1.09-0.408-2.09-1.098-2.999-2.066c-1.697-1.908-2.544-3.803-2.544-5.682
		c0-0.574,0.075-1.195,0.227-1.863c0.062-0.301,0.182-0.725,0.364-1.271l0.681-1.635l0.137-0.229l1.772-2.77
		c0.545-0.818,0.931-1.561,1.158-2.229c0.228-0.666,0.341-1.227,0.341-1.68c0-2-1.015-3-3.044-3c-0.364,0-0.651,0.016-0.863,0.045
		c-1.122,0.184-1.94,0.879-2.454,2.09c-0.607,1.455-0.909,3.787-0.909,6.998v2.455c0,2.633,0.212,4.588,0.637,5.861
		c0.332,1.029,1.059,2.135,2.181,3.316l-0.5,1.771l-1.318-0.455c-0.878-0.242-1.862-0.438-2.953-0.59
		c-0.818-0.059-1.409-0.105-1.772-0.137c-0.364-0.029-0.682-0.045-0.955-0.045c-1.031,0-1.977,0.1-2.84,0.295
		c-0.863,0.199-1.75,0.523-2.658,0.977l-0.772-1.998c0.697-0.787,1.234-1.621,1.613-2.5c0.379-0.879,0.643-2.014,0.795-3.408
		l0.091-1.182v-0.771v-1.908l-0.046-2.182l-0.045-0.408l-0.091-0.91c-0.334-2.725-0.651-4.572-0.954-5.541
		c-0.304-0.969-0.863-1.91-1.681-2.818l0.455-1.682l0.999,0.273c0.878,0.211,1.826,0.363,2.84,0.453
		c1.014,0.092,2.733,0.137,5.157,0.137c0.423,0,0.969-0.045,1.636-0.137c1.029-0.18,1.984-0.332,2.863-0.453l1.272-0.137
		c3.12,0,5.588,0.348,7.406,1.045c1.817,0.697,3.151,1.787,3.999,3.271s1.272,2.924,1.272,4.316c0,2.424-1.212,4.697-3.635,6.816
		l-1.091,0.863c-1.029,0.758-1.735,1.34-2.113,1.748c-0.379,0.41-0.652,0.865-0.818,1.365c-0.166,0.498-0.25,0.961-0.25,1.385
		c0,1.09,0.409,1.818,1.227,2.18c0.121,0.062,0.317,0.092,0.59,0.092c0.696,0,1.166-0.332,1.409-1
		c0.06-0.242,0.091-0.453,0.091-0.635c0-0.607-0.243-1.256-0.727-1.955l-0.59-0.545c0.575-0.906,1.424-1.363,2.544-1.363
		c0.424,0,0.848,0.078,1.272,0.227c0.424,0.154,0.848,0.41,1.272,0.773c0.757,0.637,1.136,1.455,1.136,2.455
		C113.013,46.482,112.724,47.346,112.149,48.285"/>
	<path fill="#707476" d="M144.41,47.285l-1.862,2.498c-0.486-0.393-0.971-0.65-1.455-0.771c-0.483-0.121-1.227-0.184-2.226-0.184
		c-0.636,0-1.242,0.01-1.817,0.023c-0.575,0.018-1.121,0.025-1.636,0.025l-0.818,0.09l-0.454,0.045l-2.863,0.408
		c-1.302,0.213-2.515,0.318-3.635,0.318c-1.394,0-2.726-0.227-3.998-0.68c-2.243-0.791-3.96-1.834-5.157-3.137
		c-1.197-1.303-2.143-3.271-2.84-5.906c-0.121-0.426-0.213-0.932-0.273-1.523c-0.062-0.59-0.091-1.127-0.091-1.613
		c0-3.152,0.946-5.754,2.84-7.814c1.893-2.061,4.642-3.424,8.247-4.09l1.908-0.273l-1.636-1.953l-0.409-0.545l-1.227-1.318
		c-0.728-0.816-1.393-1.506-2-2.066c-0.606-0.562-1.181-1.023-1.726-1.387l0.772-1.5c2.06,0.547,4.18,0.818,6.361,0.818
		c1.757,0,3.045-0.045,3.863-0.137c0.817-0.092,1.756-0.287,2.816-0.592l0.772,1.637c-0.544,0.395-0.817,0.863-0.817,1.41
		c0,0.605,0.303,1.379,0.909,2.316c0.604,0.939,1.62,2.211,3.043,3.816c0.969,1.061,2.152,2.074,3.545,3.045
		c-0.305,0.666-0.523,1.287-0.66,1.863c-0.135,0.576-0.25,1.301-0.341,2.18l-0.044,0.818l-0.045,1.229
		c0,0.816-0.01,1.598-0.023,2.34c-0.015,0.742-0.022,1.447-0.022,2.111c0,0.334,0.015,0.674,0.045,1.021
		c0.029,0.348,0.045,0.584,0.045,0.707c0.241,2.633,0.529,4.338,0.863,5.111C142.699,46.398,143.379,46.953,144.41,47.285
		 M132.642,42.197l-0.045-2.955v-3.408v-1.59l-0.045-2.455c0-0.695-0.015-1.188-0.046-1.477c-0.031-0.285-0.076-0.611-0.136-0.975
		c-0.303-1.455-1.181-2.182-2.635-2.182c-0.395,0-0.728,0.061-1,0.182c-0.606,0.242-1.136,0.643-1.591,1.203
		c-0.454,0.562-0.833,1.326-1.136,2.295c-0.151,0.484-0.265,0.953-0.341,1.408c-0.075,0.455-0.113,1.152-0.113,2.092l-0.09,1.59
		l-0.046,0.908v2.5l0.092,0.906c0.12,1.365,0.25,2.348,0.386,2.957c0.137,0.605,0.311,1.15,0.522,1.633
		c0.788,1.365,1.741,2.047,2.863,2.047c0.332,0,0.75-0.061,1.249-0.182c0.5-0.123,0.939-0.457,1.318-1
		c0.378-0.545,0.614-1.197,0.705-1.955C132.642,42.984,132.671,42.469,132.642,42.197"/>
	<path fill="#707476" d="M181.033,26.383c-0.908,0.334-1.645,0.824-2.205,1.477c-0.561,0.65-1.158,1.734-1.793,3.25
		c-0.243,0.635-0.409,1.121-0.5,1.453c-0.182,0.637-0.365,1.363-0.547,2.182l-0.044,0.316l-0.591,3.092l-0.953,5.27
		c-0.062,0.244-0.107,0.531-0.138,0.863c-0.03,0.334-0.044,0.621-0.044,0.863c0,1.213,0.392,2.305,1.182,3.271l-0.683,1.273
		c-1.576-0.486-3.288-0.727-5.136-0.727c-1.121,0-2.378,0.119-3.771,0.361l-1.635,0.365l-1.046-1.316
		c0.515-0.424,0.864-0.957,1.046-1.592c0.182-0.637,0.272-1.605,0.272-2.908c0-0.455-0.022-0.832-0.069-1.137
		c-0.043-0.301-0.158-0.939-0.339-1.908c-0.183-0.969-0.396-1.787-0.637-2.455c-0.243-0.664-0.546-1.332-0.909-1.998
		c-0.242,0.455-0.439,0.895-0.59,1.318c-0.152,0.424-0.319,1.061-0.5,1.908l-0.408,2.182l-0.229,1.135l-0.182,1.047
		c-0.092,0.605-0.136,1.15-0.136,1.635c0,0.939,0.181,1.85,0.546,2.727l-0.683,1.363c-1.151-0.666-2.409-1-3.772-1
		c-0.362,0-0.81,0.023-1.34,0.068s-0.962,0.084-1.295,0.115c-1.121,0.15-2.303,0.424-3.544,0.816l-0.771-1.092
		c0.483-1.059,0.726-2.211,0.726-3.453c0-0.908-0.106-1.992-0.317-3.248c-0.213-1.258-0.569-2.885-1.069-4.885
		c-0.5-2-0.871-3.4-1.113-4.203c-0.243-0.803-0.5-1.521-0.771-2.158c-0.545-1.211-1.045-2.15-1.501-2.818
		c-0.454-0.664-1-1.285-1.634-1.861l0.363-1.273c0.938,0.334,1.915,0.578,2.931,0.727c1.013,0.152,2.188,0.229,3.521,0.229
		c1.483,0,3.136-0.258,4.953-0.773l1.182-0.363l0.727,1.455c-0.424,0.363-0.758,0.75-1,1.158c-0.243,0.408-0.415,0.787-0.521,1.137
		c-0.108,0.348-0.16,0.811-0.16,1.385c0,0.879,0.258,2.529,0.773,4.953c0.12,0.729,0.317,1.521,0.591,2.385
		c0.271,0.863,0.574,1.75,0.908,2.658c0.666-1.424,1.119-2.846,1.363-4.271c0.484-2.422,0.727-4.135,0.727-5.133
		c0-0.939-0.258-1.895-0.772-2.863l0.409-1.318l1.592,0.273c0.877,0.09,1.489,0.15,1.838,0.18c0.349,0.033,0.887,0.047,1.614,0.047
		c1.665,0,3.378-0.213,5.134-0.637l0.455,1.455c-0.455,0.908-0.682,1.863-0.682,2.863c0,0.271,0.031,0.59,0.091,0.953
		c0.059,0.363,0.136,0.758,0.228,1.182l0.408,1.318l0.364,1.18l0.544,1.773l0.773,2l0.864-3.182l0.044-0.318l0.5-2.59
		c0.213-1.061,0.318-1.953,0.318-2.682c0-0.908-0.288-1.711-0.862-2.406c-0.273-0.365-0.54-0.645-0.797-0.842
		s-0.584-0.371-0.976-0.523l0.543-1.59l0.912,0.318c1.09,0.303,2.195,0.455,3.315,0.455c0.849,0,1.878-0.123,3.091-0.365l1.09-0.227
		L181.033,26.383z"/>
	<path fill="#707476" d="M208.113,38.061c0,0.545-0.075,1.135-0.227,1.773c-0.152,0.635-0.348,1.285-0.592,1.953
		c-0.908,2.393-2.346,4.303-4.315,5.725c-2.12,1.545-4.515,2.316-7.179,2.316c-2.395,0-4.492-0.355-6.295-1.066
		c-1.801-0.713-3.431-1.887-4.883-3.521c-1.182-1.393-1.985-2.742-2.41-4.045c-0.423-1.303-0.636-2.832-0.636-4.59
		c0-1.182,0.166-2.248,0.5-3.201c0.331-0.957,0.848-1.979,1.546-3.068c1.151-1.818,2.679-3.242,4.59-4.271
		c1.908-1.029,4.012-1.545,6.314-1.545c1.303,0,2.561,0.15,3.771,0.455c2.665,0.635,4.847,1.895,6.542,3.771
		c1.183,1.271,2.022,2.65,2.522,4.133C207.863,34.365,208.113,36.092,208.113,38.061 M198.525,38.652v-3.545v-0.5l-0.227-2.135
		l-0.137-1c-0.181-1.424-0.424-2.439-0.727-3.045c-0.305-0.605-0.758-1.045-1.364-1.318c-0.604-0.271-1.135-0.41-1.589-0.41
		c-1.394,0-2.318,1.018-2.771,3.045c-0.121,0.486-0.213,0.955-0.273,1.41c-0.061,0.453-0.091,1.195-0.091,2.225l-0.183,2.592
		l-0.044,0.227v1.545c0,0.395,0.067,1.295,0.203,2.703c0.138,1.41,0.28,2.477,0.433,3.203c0.151,0.729,0.363,1.35,0.637,1.865
		c0.605,1.182,1.453,1.771,2.544,1.771c0.756,0,1.454-0.348,2.09-1.047c0.364-0.33,0.675-0.854,0.932-1.566s0.386-1.553,0.386-2.521
		l0.138-2.408L198.525,38.652z"/>
	<path fill="#707476" d="M233.014,31.199c0,0.879-0.152,1.691-0.453,2.43c-0.304,0.744-0.857,1.533-1.658,2.363
		c-0.804,0.834-1.205,1.568-1.205,2.205c0,0.424,0.213,0.879,0.635,1.361c-0.543,0.365-1.165,0.547-1.861,0.547
		c-0.758,0-1.531-0.242-2.316-0.729c-0.668-0.361-1.221-1-1.66-1.908s-0.659-1.709-0.659-2.408c0-1.119,0.696-2.619,2.091-4.498
		c0.213-0.24,0.348-0.682,0.408-1.316v-0.682c0-0.547-0.242-1.031-0.727-1.455c-0.303-0.301-0.682-0.453-1.135-0.453
		c-0.576,0-1.047,0.227-1.41,0.682c-0.361,0.453-0.621,0.908-0.771,1.361c-0.151,0.457-0.316,1.229-0.5,2.318l-0.137,1.227
		c-0.061,0.545-0.105,1.244-0.136,2.092s-0.044,1.424-0.044,1.725c0,3.668,0.24,6.316,0.727,7.953
		c0.482,1.635,1.363,3.119,2.634,4.453l-1.362,1.271c-0.85-0.305-1.713-0.539-2.59-0.703c-0.881-0.168-1.789-0.25-2.728-0.25
		c-2.029,0-3.377,0.051-4.042,0.158c-0.669,0.107-1.425,0.385-2.273,0.84l-0.816-1.771c0.967-1.061,1.635-2.182,1.998-3.363
		c0.363-1.18,0.545-2.982,0.545-5.406c0-0.484-0.008-0.992-0.023-1.523c-0.014-0.529-0.021-1.08-0.021-1.658v-0.545
		c0-2.756-0.191-4.764-0.567-6.02c-0.38-1.258-1.022-2.387-1.931-3.387l0.77-1.453l1,0.318c1.395,0.395,2.576,0.59,3.545,0.59
		c0.696,0,1.773-0.119,3.226-0.363c2.333-0.393,3.938-0.59,4.818-0.59c1.271,0,2.294,0.076,3.066,0.227
		c0.772,0.152,1.446,0.408,2.022,0.771c1.301,0.789,2.219,1.59,2.749,2.408S233.014,29.896,233.014,31.199"/>
	<path fill="#707476" d="M256.051,40.787c0.213,0.605,0.317,1.242,0.317,1.91c0,0.695-0.136,1.451-0.408,2.27
		c-0.454,1.363-1.189,2.416-2.202,3.16c-1.016,0.74-2.509,1.264-4.478,1.566c-0.726,0.121-1.574,0.182-2.544,0.182
		c-1.789,0-3.369-0.279-4.747-0.84c-1.381-0.561-2.751-1.432-4.113-2.613l-1.408-1.365l-0.638-0.771
		c0.547-0.605,0.926-1.234,1.138-1.885c0.21-0.65,0.438-1.842,0.679-3.566c0.063-0.305,0.092-0.805,0.092-1.5
		s0.016-1.287,0.047-1.773v-1.545l-0.047-0.861l-0.045-2.408c-0.182-0.031-0.482-0.047-0.908-0.047c-0.999,0-1.863,0.213-2.59,0.637
		l-0.908-1.545c0.908-0.818,1.877-1.379,2.907-1.682c0.483-0.121,0.848-0.182,1.091-0.182c0.03-0.303,0.051-0.568,0.068-0.795
		c0.014-0.227,0.022-0.4,0.022-0.523c0-0.516-0.046-1-0.138-1.453c-0.271-1.363-0.514-2.303-0.727-2.818
		c-0.212-0.514-0.544-0.924-0.999-1.227l0.546-1.816c0.545,0.09,0.953,0.152,1.227,0.182c0.273,0.031,0.666,0.045,1.182,0.045
		c1.787,0,4.013-0.439,6.68-1.318l1.453-0.59l1.499,0.863l-0.953,1.543c-0.272,0.578-0.485,1.184-0.638,1.818
		c-0.152,0.639-0.271,1.439-0.361,2.408l-0.139,1.455l-0.044,0.773c0.696,0.152,1.333,0.225,1.907,0.225
		c1.396,0,2.756-0.334,4.09-0.998c0.213-0.121,0.365-0.197,0.455-0.227c0.181-0.092,0.41-0.258,0.683-0.5
		c0.514,0.848,0.771,1.742,0.771,2.682c0,2.15-0.619,3.68-1.861,4.588c-0.697,0.453-1.381,0.682-2.045,0.682
		c-0.273,0-0.599-0.029-0.977-0.09c-0.381-0.062-0.705-0.105-0.979-0.139l-2.316-0.361v9.951l0.363,2.361
		c0.152,1.121,0.371,1.857,0.658,2.205c0.288,0.348,0.811,0.521,1.568,0.521c0.516,0,0.969-0.15,1.363-0.453
		c0.393-0.303,0.628-0.689,0.703-1.158c0.077-0.471,0.114-0.857,0.114-1.16c0-1-0.386-1.535-1.159-1.613
		c-0.771-0.074-1.204-0.143-1.295-0.203c-0.211-0.152-0.416-0.469-0.612-0.955c-0.198-0.484-0.296-0.939-0.296-1.363
		c0-0.727,0.273-1.363,0.819-1.908c0.544-0.545,1.348-0.908,2.407-1.092c0.484-0.059,0.848-0.09,1.091-0.09
		c1.817,0,3.226,0.848,4.226,2.545L256.051,40.787z"/>
</g>
<g>
	<path fill="#707476" d="M95.506,97.203l-2.832-7.234h-9.117l-2.8,7.234h-2.676l8.992-22.838h2.225l8.945,22.838H95.506z
		 M91.85,87.588l-2.645-7.047c-0.342-0.893-0.695-1.986-1.058-3.283c-0.228,0.996-0.555,2.09-0.98,3.283l-2.676,7.047H91.85z"/>
	<path fill="#707476" d="M108.917,97.514c-1.11,0-2.124-0.205-3.042-0.615c-0.918-0.408-1.688-1.039-2.31-1.889h-0.187
		c0.125,0.994,0.187,1.939,0.187,2.83v7.018h-2.583V80.152h2.1l0.358,2.334h0.125c0.664-0.934,1.436-1.607,2.318-2.023
		c0.881-0.414,1.893-0.623,3.034-0.623c2.261,0,4.006,0.773,5.235,2.318c1.229,1.547,1.844,3.713,1.844,6.504
		c0,2.801-0.625,4.975-1.875,6.525S111.136,97.514,108.917,97.514z M108.543,82.035c-1.742,0-3.002,0.482-3.78,1.445
		c-0.778,0.965-1.177,2.5-1.198,4.605v0.576c0,2.395,0.399,4.109,1.198,5.141c0.798,1.033,2.079,1.549,3.843,1.549
		c1.472,0,2.626-0.596,3.461-1.789c0.834-1.193,1.252-2.836,1.252-4.932c0-2.127-0.417-3.758-1.252-4.893
		C111.232,82.602,110.057,82.035,108.543,82.035z"/>
	<path fill="#707476" d="M135.224,88.662c0,2.779-0.7,4.949-2.1,6.51c-1.4,1.562-3.334,2.342-5.803,2.342
		c-1.525,0-2.878-0.357-4.061-1.074c-1.182-0.715-2.095-1.742-2.738-3.08s-0.964-2.902-0.964-4.697c0-2.779,0.695-4.945,2.084-6.496
		c1.39-1.551,3.319-2.326,5.788-2.326c2.385,0,4.281,0.795,5.686,2.381C134.521,83.809,135.224,85.955,135.224,88.662z
		 M122.233,88.662c0,2.178,0.436,3.838,1.307,4.979c0.871,1.141,2.152,1.711,3.842,1.711s2.974-0.568,3.851-1.703
		c0.876-1.137,1.314-2.799,1.314-4.986c0-2.168-0.438-3.814-1.314-4.939s-2.17-1.688-3.882-1.688c-1.69,0-2.966,0.555-3.827,1.664
		C122.664,84.809,122.233,86.463,122.233,88.662z"/>
	<path fill="#707476" d="M145.258,95.383c0.457,0,0.897-0.033,1.323-0.102c0.425-0.066,0.762-0.137,1.011-0.209v1.975
		c-0.28,0.135-0.692,0.246-1.237,0.334s-1.035,0.133-1.47,0.133c-3.298,0-4.947-1.736-4.947-5.211V82.158h-2.442v-1.244l2.442-1.074
		l1.089-3.639h1.494v3.951h4.947v2.006h-4.947v10.035c0,1.027,0.244,1.814,0.731,2.365
		C143.738,95.107,144.408,95.383,145.258,95.383z"/>
	<path fill="#707476" d="M162.666,97.203V86.172c0-1.389-0.316-2.426-0.948-3.111c-0.633-0.684-1.624-1.025-2.972-1.025
		c-1.795,0-3.104,0.486-3.928,1.461c-0.824,0.977-1.236,2.572-1.236,4.793v8.914h-2.583V72.996h2.583v7.326
		c0,0.883-0.043,1.613-0.125,2.195h0.155c0.509-0.82,1.231-1.465,2.171-1.938c0.938-0.473,2.009-0.709,3.212-0.709
		c2.085,0,3.648,0.496,4.69,1.486c1.043,0.99,1.563,2.564,1.563,4.723v11.123H162.666z"/>
	<path fill="#707476" d="M177.757,97.514c-2.521,0-4.509-0.768-5.966-2.303s-2.186-3.666-2.186-6.395
		c0-2.748,0.676-4.932,2.029-6.549s3.172-2.428,5.453-2.428c2.137,0,3.827,0.703,5.072,2.109c1.244,1.404,1.866,3.26,1.866,5.561
		v1.635h-11.745c0.051,2.002,0.557,3.521,1.517,4.559c0.959,1.037,2.31,1.555,4.052,1.555c1.836,0,3.651-0.383,5.445-1.15v2.303
		c-0.912,0.393-1.775,0.676-2.59,0.848C179.891,97.428,178.908,97.514,177.757,97.514z M177.057,82.004
		c-1.369,0-2.461,0.445-3.274,1.338c-0.814,0.891-1.294,2.125-1.438,3.701h8.914c0-1.627-0.363-2.875-1.09-3.74
		C179.442,82.436,178.405,82.004,177.057,82.004z"/>
	<path fill="#707476" d="M190.98,88.475c0.446-0.633,1.125-1.463,2.039-2.488l5.506-5.834h3.065l-6.907,7.266l7.39,9.785h-3.127
		l-6.021-8.059l-1.945,1.68v6.379h-2.551V72.996h2.551V85.83c0,0.57-0.041,1.453-0.124,2.645H190.98z"/>
	<path fill="#707476" d="M212.356,97.514c-2.521,0-4.509-0.768-5.966-2.303s-2.186-3.666-2.186-6.395
		c0-2.748,0.676-4.932,2.029-6.549s3.172-2.428,5.453-2.428c2.137,0,3.827,0.703,5.072,2.109c1.244,1.404,1.866,3.26,1.866,5.561
		v1.635h-11.745c0.051,2.002,0.557,3.521,1.517,4.559c0.959,1.037,2.31,1.555,4.052,1.555c1.836,0,3.651-0.383,5.445-1.15v2.303
		c-0.912,0.393-1.775,0.676-2.59,0.848C214.49,97.428,213.508,97.514,212.356,97.514z M211.656,82.004
		c-1.369,0-2.461,0.445-3.274,1.338c-0.814,0.891-1.294,2.125-1.438,3.701h8.914c0-1.627-0.363-2.875-1.09-3.74
		C214.042,82.436,213.005,82.004,211.656,82.004z"/>
</g>
<line fill="#707476" stroke="#707476" stroke-miterlimit="10" x1="0" y1="60.16" x2="299" y2="60.16"/>
</svg>
