<?xml version="1.0" encoding="UTF-8" standalone="no"?>
<svg width="201px" height="58px" viewBox="0 0 201 58" version="1.1" xmlns="http://www.w3.org/2000/svg" xmlns:xlink="http://www.w3.org/1999/xlink">
    <!-- Generator: Sketch 42 (36781) - http://www.bohemiancoding.com/sketch -->
    <title>Logo_Klindwort-Apo_Pfade_graurot</title>
    <desc>Created with Sketch.</desc>
    <defs></defs>
    <g id="Symbols" stroke="none" stroke-width="1" fill="none" fill-rule="evenodd">
        <g id="Footer" transform="translate(-135.000000, -48.000000)" fill="#FFFFFF">
            <g id="Logo_Klindwort-Apo_Pfade_graurot" transform="translate(135.000000, 48.000000)">
                <polyline id="Fill-1" points="179.983371 21.172597 179.895 21.172597 179.993767 21.061791 180.059612 21.1076716 180.024091 21.0886269 180.059612 21.1076716 180.059612 21.109403 180.03622 21.1518209 180.024957 21.172597 179.986836 21.172597 179.983371 21.172597"></polyline>
                <path d="M189.221573,11.0875224 L192.21578,11.0875224 L192.21578,7.39543284 L189.221573,5.2961791 L189.221573,11.0875224 Z M188.279819,10.2426269 L188.279819,10.0495821 L188.400246,10.1465373 L188.424504,10.3629552 L188.279819,10.2426269 Z M186.589513,15.3587463 C186.685681,15.430597 186.758457,15.551791 186.758457,15.6721194 C186.758457,15.768209 186.661422,15.8651642 186.589513,15.9127761 L186.589513,15.3587463 Z M185.985647,16.6849552 C185.840961,16.7576716 185.719668,16.878 185.477948,17.0710448 C185.6235,16.7576716 185.792444,16.5646269 185.985647,16.4200597 L185.985647,16.6849552 Z M187.458491,17.7956119 C187.144862,17.5298507 186.758457,17.3610448 186.323534,17.3610448 C185.86522,17.3610448 185.477948,17.5298507 185.188578,17.7956119 L187.458491,17.7956119 Z M184.922599,18.3747463 L187.772121,18.3747463 L187.772121,18.0856119 L184.922599,18.0856119 L184.922599,18.3747463 Z M186.589513,16.1785373 C186.782716,16.1066866 186.975918,15.8409254 186.975918,15.6236418 C186.975918,15.3821194 186.613772,15.0445075 186.299276,14.8272239 C185.454556,14.320806 184.971116,13.8377612 184.85069,13.4516716 L185.284746,13.5971045 C185.454556,14.0550448 186.492478,14.6099403 186.951659,15.0929851 C187.144862,15.3102687 187.217638,15.430597 187.217638,15.6236418 C187.217638,15.9127761 186.975918,16.2512537 186.589513,16.4685373 L186.589513,16.1785373 Z M184.246823,11.5220896 C184.560453,9.3258806 185.86522,8.91555224 186.540996,8.91555224 C187.047828,8.91555224 187.604043,9.08435821 187.772121,9.56740299 C187.289547,9.25316418 187.024435,9.13283582 186.540996,9.13283582 C185.477948,9.13283582 184.657487,10.1465373 184.488543,11.5220896 L184.246823,11.5220896 Z M185.985647,16.1066866 C185.357522,16.5403881 185.164319,16.9749552 185.261353,17.4822388 C185.430297,17.3125672 185.647759,17.0952836 185.985647,16.9264776 L185.985647,17.2156119 L186.154591,17.2156119 L186.154591,15.0202687 L186.420569,15.2133134 L186.420569,17.2156119 L186.589513,17.2156119 L186.589513,16.7334328 C187.072086,16.4685373 187.48275,15.9854925 187.48275,15.6478806 C187.48275,15.2375522 187.265289,14.8999403 186.589513,14.4177612 L186.589513,13.8377612 L186.420569,13.8377612 L186.420569,14.2965672 L186.154591,14.1035224 L186.154591,13.8377612 L185.985647,13.8377612 L185.985647,13.983194 C185.889478,13.9347164 185.768185,13.8143881 185.647759,13.6455821 C185.86522,13.693194 186.034164,13.693194 186.323534,13.693194 C187.893414,13.693194 189.294349,13.0898209 190.332272,12.1003582 L182.314797,12.1003582 C182.918664,12.6803582 183.667216,13.1382985 184.488543,13.3798209 C184.753655,13.983194 185.357522,14.4896119 185.985647,14.8757015 L185.985647,16.1066866 Z M182.001168,11.8112239 L190.670159,11.8112239 L190.670159,11.5220896 L184.777914,11.5220896 C184.802172,10.5326269 185.526466,9.39859701 186.540996,9.39859701 C187.169121,9.39859701 187.507009,9.61501493 187.893414,10.4114328 C188.038099,10.7014328 188.159392,10.846 188.279819,11.0390448 L188.328336,10.9905672 L188.110875,10.2911045 L188.641966,10.8702388 C188.593448,9.54316418 187.844897,8.67402985 186.492478,8.67402985 C184.874948,8.67402985 184.149789,10.1950149 183.956586,11.5220896 L182.001168,11.5220896 L182.001168,11.8112239 Z M182.459483,17.3844179 L183.571047,17.8917015 L183.571047,16.7334328 L180.841953,16.7334328 L180.841953,11.0875224 L183.571047,11.0875224 L183.571047,4.08943284 L191.346802,0.228537313 L197.722487,4.69280597 L197.722487,17.168 L200.668177,19.1945373 L197.045845,24.3591343 L192.21578,20.9804179 L192.21578,16.7334328 L189.221573,16.7334328 L189.221573,20.8116119 L184.584711,24.3591343 L177.53325,21.1492239 L182.459483,17.3844179 Z" id="Fill-2"></path>
                <path d="M8.48445259,47.7816119 C7.45952586,44.0349851 6.94749569,42.0127761 6.94749569,41.7149851 L6.859125,41.7149851 C6.84006466,41.9158209 5.87318534,43.9380299 3.96021983,47.7816119 L8.48445259,47.7816119 Z M11.4613319,53.1479104 L9.52584052,53.1479104 C9.52584052,52.5194328 9.2754569,51.1551343 8.77642241,49.0550149 L3.44472414,49.0550149 C3.15881897,49.6705075 2.90930172,50.228 2.69530603,50.7274925 C2.18934052,51.9264478 1.91296552,52.7332537 1.86791379,53.1479104 L0,53.1479104 C0.0329224138,52.9600597 1.05438362,50.8859104 3.06525,46.9263284 C5.050125,42.9979104 6.06205603,40.8527761 6.10017672,40.4900597 L8.241,40.4900597 C8.241,41.0735224 8.77815517,43.1892239 9.85159914,46.8380299 C10.9250431,50.4877015 11.4613319,52.5904179 11.4613319,53.1479104 L11.4613319,53.1479104 Z" id="Fill-3"></path>
                <path d="M20.5687112,47.9469552 C20.5687112,45.9507164 19.8652112,44.952597 18.4573448,44.952597 C17.7573103,44.952597 17.0694052,45.3958209 16.3944957,46.284 C15.7204526,47.1721791 15.3305819,48.2092537 15.2274828,49.3952239 L15.0325474,51.6018209 C15.6615388,51.9775224 16.2714698,52.1662388 16.8614741,52.1662388 C18.1012629,52.1662388 19.0282888,51.7758209 19.6442845,50.9949851 C20.2611466,50.2132836 20.5687112,49.1978507 20.5687112,47.9469552 Z M22.2330259,47.3634925 C22.2330259,49.1199403 21.7851078,50.5673433 20.8901379,51.7039701 C19.9951681,52.8423284 18.7883017,53.410209 17.2704052,53.410209 C16.2394138,53.410209 15.483931,53.1963881 15.0030905,52.7687463 L14.9259828,52.7687463 C14.7371121,54.5710746 14.5950259,56.1457313 14.497125,57.4935821 L12.7652328,57.5905373 C13.5830948,51.6156716 13.9911595,47.8006567 13.9911595,46.1480896 C13.9911595,45.532597 13.9391767,44.8002388 13.8360776,43.9510149 L15.4804655,43.7077612 C15.5194526,44.246209 15.5385129,45.0010746 15.5385129,45.9732239 L15.6164871,45.9732239 C16.4724698,44.3985672 17.6464138,43.610806 19.138319,43.610806 C20.0592802,43.610806 20.8060991,43.9492836 21.3761767,44.6262388 C21.9471207,45.3040597 22.2330259,46.2164776 22.2330259,47.3634925 L22.2330259,47.3634925 Z" id="Fill-6"></path>
                <path d="M31.1350733,48.0049552 C31.1350733,47.0977313 30.9297414,46.3212239 30.5173448,45.6762985 C30.1058147,45.0322388 29.5106121,44.7093433 28.7326034,44.7093433 C27.7657241,44.7093433 26.9937802,45.1612239 26.4167716,46.0649851 C25.8388966,46.9696119 25.5503922,47.9504179 25.5503922,49.0065373 C25.5503922,49.9137612 25.760056,50.6902687 26.1776509,51.3343284 C26.5969784,51.9792537 27.1982457,52.3021493 27.9831853,52.3021493 C28.9362026,52.3021493 29.7003491,51.8502687 30.2747586,50.9456418 C30.8483017,50.0418806 31.1350733,49.0610746 31.1350733,48.0049552 Z M32.7898578,47.7227463 C32.7898578,49.2852836 32.317681,50.6426567 31.3733276,51.796597 C30.4298405,52.9505373 29.1857198,53.5270746 27.6426983,53.5270746 C26.6238362,53.5270746 25.7470603,53.1167463 25.0106379,52.2978209 C24.2742155,51.4771642 23.9060043,50.4158507 23.9060043,49.1130149 C23.9060043,47.5773134 24.3764483,46.2554328 25.3173362,45.1465075 C26.2573578,44.0384478 27.5092759,43.4844179 29.0730905,43.4844179 C30.1040819,43.4844179 30.9817241,43.8670448 31.7042845,44.6314328 C32.4277112,45.3958209 32.7898578,46.4268358 32.7898578,47.7227463 L32.7898578,47.7227463 Z" id="Fill-7"></path>
                <path d="M40.2233922,51.3689552 L39.9799397,52.661403 C39.2989655,53.1219403 38.5980647,53.352209 37.8781034,53.352209 C36.9891983,53.352209 36.3697371,53.133194 36.0197198,52.6951642 C35.6697026,52.2588657 35.494694,51.5602687 35.494694,50.6011045 C35.494694,49.7968955 35.6792328,48.0629552 36.0491767,45.3992836 C35.7052241,45.3992836 35.1767328,45.419194 34.4628362,45.4581493 L34.6673017,44.0479701 C35.2772328,44.0869254 35.8091897,44.1068358 36.2631724,44.1068358 C36.3021595,43.840209 36.4416466,42.917403 36.6816336,41.3358209 L38.1406164,41.18 C38.0245216,41.8413731 37.8720388,42.8169851 37.6840345,44.1068358 C38.2870345,44.1068358 39.1490819,44.0739403 40.2719095,44.0090149 L40.0769741,45.4581493 C39.0069957,45.419194 38.1345517,45.3992836 37.4596422,45.3992836 C37.1226207,47.5773134 36.9536767,49.1363881 36.9536767,50.0756418 C36.9536767,50.8149254 37.0481121,51.3204776 37.2361164,51.5922985 C37.4241207,51.8649851 37.7420819,52.0008955 38.19,52.0008955 C38.8380517,52.0008955 39.5164267,51.7905373 40.2233922,51.3689552" id="Fill-8"></path>
                <path d="M50.332306,46.4978209 C50.332306,47.0102985 50.2595302,48.0534328 50.1131121,49.6289552 C49.9675603,51.2036119 49.8947845,52.376597 49.8947845,53.1479104 L48.2503966,53.2448657 C48.2503966,52.9600597 48.3439655,52.0433134 48.5328362,50.4937612 C48.7208405,48.944209 48.8144095,47.7720896 48.8144095,46.974806 C48.8144095,46.2164776 48.6766552,45.6892836 48.4011466,45.3949552 C48.1256379,45.0997612 47.6924483,44.952597 47.102444,44.952597 C46.3954784,44.952597 45.7153707,45.414 45.0638534,46.3376716 C44.4114698,47.2613433 44.0311293,48.2802388 43.9202328,49.3952239 C43.7781466,50.8469552 43.66725,52.0978507 43.5892759,53.1479104 L41.9648147,53.2448657 C42.0427888,52.6484179 42.3148319,50.1985672 42.7818103,45.8953134 C43.0547198,43.3026269 43.1907414,41.1609552 43.1907414,39.4694328 L45.0395948,39.3716119 C45.0395948,39.6053433 44.9815474,40.1013731 44.8645862,40.8597015 C44.6956422,41.9807463 44.539694,43.2506866 44.3976078,44.6703881 C44.3646853,44.9950149 44.3101034,45.4287164 44.2321293,45.9732239 L44.3101034,45.9732239 C45.1530905,44.3985672 46.3140388,43.610806 47.7929483,43.610806 C49.4858534,43.610806 50.332306,44.5734328 50.332306,46.4978209" id="Fill-9"></path>
                <path d="M58.8947328,45.7879701 C58.8947328,45.4451642 58.735319,45.1811343 58.4182241,44.9958806 C58.1002629,44.8114925 57.6913319,44.7188657 57.1922974,44.7188657 C56.4853319,44.7188657 55.82775,44.952597 55.2212845,45.419194 C54.6156853,45.885791 54.2214828,46.6017015 54.0395431,47.567791 C56.0304828,47.5288358 57.3958966,47.3184776 58.1357845,46.9358507 C58.64175,46.6761493 58.8947328,46.2943881 58.8947328,45.7879701 Z M60.4420862,45.7498806 C60.4420862,46.624209 60.0366207,47.2890448 59.2256897,47.7426567 C58.1938319,48.3261194 56.4368147,48.6403582 53.9520388,48.6853731 C53.9520388,49.8522985 54.1547716,50.699791 54.5602371,51.2278507 C54.9657026,51.7559104 55.6484095,52.0199403 56.6083578,52.0199403 C57.5483793,52.0199403 58.573306,51.6892537 59.6831379,51.0287463 L59.4396853,52.4674925 C58.5637759,53.0959701 57.4808017,53.410209 56.1898966,53.410209 C54.8669353,53.410209 53.8922586,53.0137313 53.2658664,52.2199104 C52.6403405,51.4252239 52.3267112,50.4193134 52.3267112,49.2004478 C52.3267112,47.4059104 52.8508707,46.0043881 53.8983233,44.9958806 C54.9457759,43.9882388 56.154375,43.4844179 57.5232543,43.4844179 C58.3532457,43.4844179 59.0472155,43.6852537 59.6051638,44.0869254 C60.1631121,44.4894627 60.4420862,45.0434925 60.4420862,45.7498806 L60.4420862,45.7498806 Z" id="Fill-10"></path>
                <path d="M70.5120129,43.8731045 C70.5120129,44.0869254 70.09875,44.6123881 69.2713578,45.4477612 C68.4448319,46.284 67.6902155,46.9808657 67.0092414,47.5383582 L66.9997112,47.6353134 C67.7257371,48.4914627 68.3460647,49.5086269 68.8580948,50.6885373 C69.370125,51.8675821 69.6265733,52.6873731 69.6265733,53.1479104 L67.8652241,53.2448657 C67.8652241,52.901194 67.6789526,52.2259701 67.3055431,51.2174627 C66.933,50.2098209 66.487681,49.352806 65.9687198,48.6464179 C65.5208017,49.1000299 65.1317974,49.5605672 64.8008405,50.0271642 C64.0089698,51.1421493 63.5809784,52.1818209 63.516,53.1479104 L61.901069,53.2448657 C62.0050345,52.6362985 62.3004698,50.1864478 62.7865086,45.8953134 C63.0524871,43.3675522 63.1859095,41.2258806 63.1859095,39.4694328 L64.9758491,39.3716119 C64.9758491,39.7022985 64.8138362,41.1332537 64.4898103,43.6644776 C64.1649181,46.1948358 63.9154009,48.2871642 63.7403922,49.9397313 L63.8374267,49.9397313 C64.1813793,49.1294627 65.0460259,47.9772537 66.4305,46.4839701 C67.8149741,44.9898209 68.5080776,44.0999104 68.5080776,43.8151045 L70.5120129,43.8731045" id="Fill-11"></path>
                <path d="M78.0720388,45.7879701 C78.0720388,45.4451642 77.9134914,45.1811343 77.5955302,44.9958806 C77.277569,44.8114925 76.8695043,44.7188657 76.3696034,44.7188657 C75.6626379,44.7188657 75.0059224,44.952597 74.3985905,45.419194 C73.7929914,45.885791 73.3987888,46.6017015 73.2168491,47.567791 C75.2086552,47.5288358 76.574069,47.3184776 77.3130905,46.9358507 C77.819056,46.6761493 78.0720388,46.2943881 78.0720388,45.7879701 Z M79.6193922,45.7498806 C79.6193922,46.624209 79.2139267,47.2890448 78.4029957,47.7426567 C77.3720043,48.3261194 75.6141207,48.6403582 73.1293448,48.6853731 C73.1293448,49.8522985 73.3320776,50.699791 73.7375431,51.2278507 C74.1430086,51.7559104 74.8257155,52.0199403 75.7856638,52.0199403 C76.7265517,52.0199403 77.7514784,51.6892537 78.860444,51.0287463 L78.6169914,52.4674925 C77.7410819,53.0959701 76.6581078,53.410209 75.3672026,53.410209 C74.0442414,53.410209 73.0695647,53.0137313 72.4440388,52.2199104 C71.8176466,51.4252239 71.5048836,50.4193134 71.5048836,49.2004478 C71.5048836,47.4059104 72.0281767,46.0043881 73.0756293,44.9958806 C74.1239483,43.9882388 75.331681,43.4844179 76.7005603,43.4844179 C77.5305517,43.4844179 78.2245216,43.6852537 78.7824698,44.0869254 C79.3404181,44.4894627 79.6193922,45.0434925 79.6193922,45.7498806 L79.6193922,45.7498806 Z" id="Fill-12"></path>
                <path d="M89.4077457,46.4978209 C89.4077457,47.0102985 89.3349698,48.0534328 89.1885517,49.6289552 C89.043,51.2036119 88.9693578,52.376597 88.9693578,53.1479104 L87.3249698,53.2448657 C87.3249698,52.9600597 87.4194052,52.0433134 87.6074095,50.4937612 C87.7954138,48.944209 87.8898491,47.7720896 87.8898491,46.974806 C87.8898491,46.2164776 87.7520948,45.6892836 87.4757198,45.3949552 C87.2002112,45.0997612 86.7670216,44.952597 86.1770172,44.952597 C85.4700517,44.952597 84.7908103,45.414 84.1392931,46.3376716 C83.4869095,47.2613433 83.1057026,48.2802388 82.9956724,49.3952239 C82.8527198,50.8469552 82.7426897,52.0978507 82.6647155,53.1479104 L81.078375,53.2448657 C81.5323578,49.887791 81.7602155,47.6197313 81.7602155,46.4398209 C81.7602155,45.759403 81.7082328,44.9292239 81.6042672,43.9510149 L83.2486552,43.7077612 C83.2876422,44.2782388 83.3067026,45.0331045 83.3067026,45.9732239 L83.3846767,45.9732239 C84.2276638,44.3985672 85.3894784,43.610806 86.8683879,43.610806 C88.5612931,43.610806 89.4077457,44.5734328 89.4077457,46.4978209" id="Fill-13"></path>
                <path d="M27.4902155,14.7233433 C27.8194397,15.3821194 27.9840517,16.0512836 27.9840517,16.7308358 C27.9840517,17.8051343 27.6158405,18.6993731 26.8811509,19.4109552 C26.1455948,20.1242687 25.2514914,20.4809254 24.1979741,20.4809254 C23.9129353,20.4809254 23.6547543,20.4592836 23.4242974,20.4142687 C23.1938405,20.3709851 23.0240302,20.3268358 22.914,20.2835522 L23.0456897,20.0195224 C23.2206983,19.6914328 23.309069,19.3183284 23.309069,18.9019403 C23.309069,17.7168358 22.5960388,17.0052537 21.1691121,16.7637313 C20.8615474,16.7195821 20.6423534,16.6979403 20.5106638,16.6979403 C19.698,16.6979403 18.9139267,16.933403 18.1567112,17.4043284 C17.3994957,17.8761194 16.6916638,18.6058806 16.0332155,19.5918806 L15.6381466,20.2835522 C15.8131552,20.4592836 16.0106897,20.6341493 16.23075,20.8098806 C16.449944,20.9856119 16.6804009,21.1604776 16.9221207,21.3353433 C17.4705388,21.686806 18.057944,21.9664179 18.6834698,22.1750448 C19.3089957,22.382806 20.0601466,22.5533433 20.9386552,22.6849254 L21.5971034,22.7827463 L21.6958707,23.8033731 C21.9150647,25.8428955 22.4747457,27.7837313 23.3749138,29.6258806 C24.0775474,31.0732836 24.6199009,32.0488955 25.0045733,32.5527164 C25.3883793,33.0582687 25.9757845,33.5949851 26.7659224,34.164597 L27.3914483,34.5922388 L26.6013103,36.2699104 C25.8544914,35.962597 24.9881121,35.7548358 24.0004397,35.6457612 C23.0127672,35.5358209 21.7391897,35.4804179 20.1814397,35.4804179 C19.1712414,35.4804179 18.3490474,35.5418806 17.7122586,35.6613433 C17.0754698,35.7816716 16.4395474,35.9747164 15.8027586,36.2370149 L14.7492414,34.7238209 C15.5610388,34.1758507 15.9673707,33.3759701 15.9673707,32.3224478 C15.9673707,31.4238806 15.6823319,30.2500299 15.1113879,28.8026269 C14.8696681,28.2330149 14.5958922,27.7231343 14.2883276,27.2729851 C13.9807629,26.8245672 13.6957241,26.4999403 13.4323448,26.3034328 C13.01475,26.0186269 12.619681,25.875791 12.2471379,25.875791 C11.5670302,25.875791 11.0506681,26.3804776 10.6997845,27.3889851 C10.545569,27.7837313 10.4693276,28.3317015 10.4693276,29.0337612 C10.4693276,30.3279403 10.6010172,31.2654627 10.8643966,31.8463284 C11.1277759,32.427194 11.7091164,33.1119403 12.6092845,33.9022985 L13.5969569,34.7567164 L12.9055862,36.2049851 L11.0948534,35.7773433 L9.34996552,35.3488358 L9.21827586,35.3159403 C8.99821552,35.2726567 8.71317672,35.2397612 8.3622931,35.2181194 C8.01140948,35.1964776 7.638,35.1852239 7.24293103,35.1852239 L5.99187931,35.1852239 C5.59681034,35.2510149 5.31090517,35.2942985 5.13589655,35.3159403 C3.86231897,35.4483881 2.6337931,35.7548358 1.44858621,36.2370149 L0.230456897,34.7567164 C1.26231466,34.164597 1.98574138,33.2720896 2.40333621,32.076597 C2.82006466,30.8811045 3.02886207,28.8805373 3.02886207,26.0731642 L3.02886207,24.9547164 L2.99593966,24.3954925 L2.93009483,22.8822985 L2.93009483,20.2168955 L2.93009483,19.7243284 C2.93009483,19.5269552 2.90756897,19.2525373 2.86425,18.9019403 C2.66671552,17.2571642 2.36434914,16.0175224 1.95888362,15.1838806 C1.55255172,14.3511045 0.976409483,13.7589851 0.230456897,13.4083881 L1.1852069,11.9272239 L2.04118966,12.0925672 L3.32516379,12.3219701 C4.29117672,12.4760597 5.20693966,12.5643582 6.07418534,12.586 C6.94056466,12.6076418 7.56089224,12.6188955 7.93430172,12.6188955 C8.72443966,12.6188955 9.49205172,12.5643582 10.2388707,12.4544179 C10.9848233,12.3444776 11.7533017,12.18 12.5434397,11.9601194 L13.3994224,13.3754925 C12.7842931,13.682806 12.2965216,14.1320896 11.934375,14.7233433 C11.5722284,15.3154627 11.2482026,16.1932537 10.9631638,17.3549851 C10.897319,17.6631642 10.8314741,17.9860597 10.7656293,18.325403 C10.6997845,18.6656119 10.6668621,19.1651045 10.6668621,19.8221493 L10.5351724,21.1379701 L10.5351724,21.5664776 C10.5126466,21.742209 10.50225,21.9499701 10.50225,22.1914925 L10.50225,22.7507164 L10.50225,23.5064478 L10.50225,24.0336418 C10.6339397,23.8362687 10.7924871,23.5782985 10.979625,23.260597 C11.1658966,22.9420299 11.3027845,22.7065672 11.3911552,22.5533433 L11.5886897,22.1914925 L11.9508362,21.4669254 L13.1360431,19.0006269 L13.5311121,18.2760597 C14.8480086,16.0841791 16.0938621,14.5372239 17.267806,13.637791 C18.44175,12.7392239 19.830556,12.2128955 21.4324914,12.0596716 C21.5858405,12.0596716 21.7556509,12.0544776 21.9427888,12.0432239 C22.1290603,12.0319701 22.2555517,12.0267761 22.3213966,12.0267761 C22.6506207,12.0267761 22.914,12.0380299 23.1115345,12.0596716 C23.309069,12.0813134 23.5837112,12.124597 23.9345948,12.1912537 C24.8564224,12.3669851 25.5807155,12.6405373 26.1074741,13.0136418 C26.6342328,13.3858806 27.0951466,13.9563582 27.4902155,14.7233433" id="Fill-14"></path>
                <path d="M39.5727414,13.1452239 C39.0017974,13.6499104 38.585069,14.2091343 38.3208233,14.8220299 C38.0583103,15.4366567 37.8278534,16.3906269 37.630319,17.684806 C37.5861336,18.1237015 37.5532112,18.8032537 37.5315517,19.7243284 C37.5090259,20.645403 37.4986293,22.0157612 37.4986293,23.8362687 L37.4986293,25.6117612 C37.4986293,26.8842985 37.5202888,27.8772239 37.5636078,28.588806 C37.6077931,29.3021194 37.6519784,29.8561493 37.6961638,30.2500299 C37.8711724,31.7415821 38.0357845,32.7293134 38.19,33.2114925 C38.3424828,33.6936716 38.6725733,34.2303881 39.1776724,34.8233731 L39.539819,35.2181194 L38.8484483,36.3365672 C37.9040948,35.896806 36.7630733,35.6128657 35.4245172,35.4804179 L32.9882586,35.4804179 C31.9347414,35.5254328 31.0345733,35.733194 30.2877543,36.1054328 L29.4984828,35.0536418 C30.0685603,34.6147463 30.4748922,34.1265075 30.7166121,33.589791 C30.9574655,33.052209 31.1991853,32.0272537 31.4409052,30.5140597 C31.50675,30.1634627 31.5613319,29.7851642 31.6046509,29.3791642 C31.6488362,28.9731642 31.6713621,28.5507164 31.6713621,28.1126866 L31.6713621,26.3034328 L31.6384397,23.901194 L31.6046509,22.5533433 L31.4738276,19.3295821 C31.3196121,17.5090746 31.1056164,16.2097015 30.8309741,15.4314627 C30.5563319,14.6532239 30.0798233,13.9234627 29.3997155,13.2430448 L30.0252414,11.9272239 C30.552,12.1696119 31.0449698,12.3505373 31.50675,12.4708657 C31.9667974,12.591194 32.5602672,12.651791 33.283694,12.651791 L34.2722328,12.651791 C35.5224181,12.651791 36.4390474,12.6137015 37.0203879,12.535791 C37.6017284,12.4596119 38.19,12.2674328 38.7826034,11.9601194 L39.5727414,13.1452239" id="Fill-15"></path>
                <path d="M48.4938491,12.7167164 C48.8014138,13.3313433 48.9547629,13.9347164 48.9547629,14.5268358 C48.9547629,15.2288955 48.7849526,15.8582388 48.4444655,16.4174627 C48.1039784,16.9766866 47.6214052,17.4164478 46.9958793,17.7332836 C46.3703534,18.0518507 45.7716853,18.2111343 45.2016078,18.2111343 C44.4331293,18.2111343 43.7478233,17.9921194 43.1439569,17.5523582 C42.5400905,17.1143284 42.0852414,16.4893134 41.7776767,15.6773134 C41.5801422,15.2176418 41.481375,14.7683582 41.481375,14.3294627 C41.481375,14.1762388 41.5142974,13.9182687 41.5801422,13.5564179 C41.6459871,13.1945672 41.8270603,12.8110746 42.1233621,12.4050746 C42.4196638,11.9990746 42.7870086,11.6536716 43.2262629,11.368 C43.8405259,10.9957612 44.4773147,10.8087761 45.1357629,10.8087761 C45.8383966,10.8087761 46.4855819,10.9741194 47.0781853,11.3030746 C47.6707888,11.6320299 48.1429655,12.1029552 48.4938491,12.7167164 Z M50.5679612,19.0993134 C49.7561638,19.9104478 49.1852198,20.7821791 48.8559957,21.7145075 C48.5267716,22.6468358 48.3621595,24.0336418 48.3621595,25.875791 L48.3621595,27.7508358 C48.3621595,30.0526567 48.4990474,31.615194 48.7736897,32.4384478 C49.0483319,33.2599701 49.6244741,34.0555224 50.5021164,34.8233731 L50.1399698,36.2370149 L49.7778233,36.139194 L49.2181422,36.0396418 L48.3950819,35.9080597 C46.5514267,35.6016119 45.2232672,35.4483881 44.4114698,35.4483881 C43.7972069,35.4483881 43.2756466,35.5089851 42.8476552,35.6293134 C42.4196638,35.7487761 41.9093664,35.962597 41.3167629,36.2699104 L40.5595474,35.0865373 C41.1304914,34.6476418 41.5524181,34.1377612 41.8270603,33.5568955 C42.1017026,32.9760299 42.3156983,32.137194 42.4690474,31.0395224 L42.6665819,29.1315821 L42.6665819,27.1587164 L42.6665819,26.4012537 L42.6665819,25.119194 C42.6007371,24.8118806 42.5565517,24.5928657 42.5348922,24.4604179 L42.5019698,24.1981194 L42.1727457,22.6849254 C42.0185302,21.873791 41.8981034,21.3353433 41.8105991,21.0721791 C41.7230948,20.8098806 41.5472198,20.4809254 41.2838405,20.0861791 C41.1738103,19.888806 41.0481853,19.7078806 40.9052328,19.543403 C40.7622802,19.3789254 40.5924698,19.198 40.3949353,19.0006269 L41.0533836,18.0137612 C42.3260948,18.5842388 43.8188664,18.8681791 45.5308319,18.8681791 C47.3303017,18.8681791 48.8118103,18.5842388 49.9753578,18.0137612 L50.5679612,19.0993134 L50.5679612,19.0993134 Z" id="Fill-16"></path>
                <path d="M71.4407716,35.1852239 C71.1990517,35.6232537 70.809181,35.9747164 70.2720259,36.2370149 C69.7340043,36.5010448 69.0703578,36.6317612 68.2802198,36.6317612 C67.3358664,36.6317612 66.4694871,36.484597 65.6793491,36.1885373 C64.8892112,35.8916119 64.1649181,35.3938507 63.5064698,34.691791 C62.2770776,33.3101791 61.6628147,31.9398209 61.6628147,30.5798507 C61.6628147,30.1634627 61.7173966,29.7133134 61.8274267,29.2311343 C61.8716121,29.0121194 61.9591164,28.704806 62.090806,28.3100597 L62.5846422,27.1249552 L62.6834095,26.9613433 L63.9673836,24.9547164 C64.3624526,24.362597 64.6422931,23.8250149 64.8069052,23.3419701 C64.9715172,22.8606567 65.0538233,22.453791 65.0538233,22.1257015 C65.0538233,20.6782985 64.3182672,19.9537313 62.8480216,19.9537313 C62.5846422,19.9537313 62.3758448,19.9649851 62.2224957,19.9866269 C61.4098319,20.1190746 60.8172284,20.6237612 60.4446853,21.4998209 C60.005431,22.5533433 59.7862371,24.241403 59.7862371,26.5657313 L59.7862371,28.3429552 C59.7862371,30.2500299 59.9395862,31.665403 60.2471509,32.5864776 C60.4880043,33.3318209 61.0147629,34.1325672 61.8274267,34.9869851 L61.4652802,36.2699104 L60.5105302,35.9418209 C59.8737414,35.7652239 59.1607112,35.6232537 58.3705733,35.5133134 C57.7779698,35.4700299 57.3499784,35.4371343 57.0865991,35.4154925 C56.8232198,35.3938507 56.5927629,35.382597 56.3952284,35.382597 C55.6484095,35.382597 54.9631034,35.4535821 54.3375776,35.5964179 C53.7120517,35.7392537 53.0700647,35.9747164 52.4116164,36.3036716 L51.8519353,34.8562687 C52.3570345,34.285791 52.7460388,33.6832836 53.020681,33.0461493 C53.2953233,32.4107463 53.4867931,31.5883582 53.5968233,30.5798507 L53.6626681,29.7237015 L53.6626681,27.7837313 L53.6297457,26.2047463 L53.5968233,25.9086866 L53.5309784,25.2499104 C53.2892586,23.2770448 53.0588017,21.9395821 52.8396078,21.2375224 C52.6195474,20.5354627 52.2140819,19.8559104 51.6214784,19.198 L51.9507026,17.9808657 L52.6749957,18.1773731 C53.3109181,18.3314627 53.9970905,18.441403 54.7326466,18.5063284 C55.4673362,18.5729851 56.7131897,18.6058806 58.4693405,18.6058806 C58.7760388,18.6058806 59.1711078,18.5729851 59.6545474,18.5063284 C60.4005,18.3756119 61.0918707,18.2656716 61.7286595,18.1773731 L62.6504871,18.0795522 C64.9108707,18.0795522 66.699944,18.3314627 68.0168405,18.8352836 C69.3337371,19.3408358 70.29975,20.1294627 70.9140129,21.2046269 C71.5282759,22.2789254 71.8358405,23.3203284 71.8358405,24.3288358 C71.8358405,26.0835522 70.9573319,27.729194 69.2020474,29.2640299 L68.4119095,29.8881791 C67.6659569,30.4370149 67.1547931,30.858597 66.8810172,31.1555224 C66.606375,31.4507164 66.4088405,31.7796716 66.2884138,32.1415224 C66.1679871,32.5033731 66.1073405,32.8383881 66.1073405,33.1457015 C66.1073405,33.935194 66.4036422,34.4615224 66.9962457,34.7238209 C67.08375,34.7688358 67.2267026,34.7896119 67.4242371,34.7896119 C67.9284698,34.7896119 68.2689569,34.5489552 68.4448319,34.0667761 C68.4881509,33.8910448 68.5106767,33.7378209 68.5106767,33.6053731 C68.5106767,33.1673433 68.3348017,32.6964179 67.9839181,32.1917313 L67.5559267,31.7961194 C67.9726552,31.1390746 68.5869181,30.8092537 69.3995819,30.8092537 C69.7062802,30.8092537 70.0138448,30.8646567 70.3214095,30.974597 C70.6281078,31.0845373 70.9356724,31.2706567 71.2432371,31.5338209 C71.7916552,31.9934925 72.0662974,32.5864776 72.0662974,33.3101791 C72.0662974,33.8806567 71.8575,34.504806 71.4407716,35.1852239" id="Fill-17"></path>
                <path d="M86.2887802,30.7772239 L86.2558578,28.6390149 L86.2558578,25.0196418 L86.2229353,23.2441493 C86.2229353,22.7394627 86.2116724,22.382806 86.1900129,22.1750448 C86.1674871,21.9664179 86.1345647,21.7309552 86.0912457,21.4669254 C85.8711853,20.4142687 85.2352629,19.888806 84.1817457,19.888806 C83.8958405,19.888806 83.6549871,19.9320896 83.4574526,20.0195224 C83.0181983,20.1961194 82.6343922,20.4861194 82.3043017,20.8912537 C81.975944,21.2981194 81.7013017,21.8512836 81.4821078,22.5533433 C81.3712112,22.9039403 81.2897716,23.2441493 81.2351897,23.5722388 C81.1797414,23.901194 81.1528836,24.4058806 81.1528836,25.0862985 L81.0870388,26.2376418 L81.0541164,26.8946866 L81.0541164,28.704806 L81.1199612,29.3618507 C81.2065991,30.3495821 81.3010345,31.0620299 81.3998017,31.5009254 C81.498569,31.9398209 81.624194,32.3337015 81.7784095,32.6842985 C82.3484871,33.6711642 83.0398578,34.164597 83.8525216,34.164597 C84.093375,34.164597 84.3957414,34.1213134 84.7578879,34.0330149 C85.1200345,33.9455821 85.4379957,33.7049254 85.7126379,33.3101791 C85.9864138,32.9145672 86.1570905,32.4436418 86.2229353,31.8956716 C86.2887802,31.3468358 86.3104397,30.974597 86.2887802,30.7772239 Z M94.814819,34.4615224 L93.4658664,36.2699104 C93.1141164,35.9851045 92.7632328,35.7989851 92.4123491,35.7106866 C92.0605991,35.6232537 91.523444,35.5799701 90.7991509,35.5799701 C90.3382371,35.5799701 89.8989828,35.5851642 89.4822543,35.5964179 C89.0646595,35.6076716 88.6695905,35.6128657 88.2970474,35.6128657 L87.7035776,35.677791 L87.3752198,35.7106866 L85.3002414,36.0076119 C84.3567543,36.1599701 83.4791121,36.2370149 82.6664483,36.2370149 C81.6571164,36.2370149 80.6919698,36.0725373 79.7701422,35.7444478 C78.145681,35.1739701 76.8998276,34.4173731 76.0334483,33.473791 C75.1662026,32.5319403 74.4800302,31.1061791 73.9757974,29.1982388 C73.8874267,28.8909254 73.8215819,28.5238806 73.7782629,28.0962388 C73.7332112,27.6677313 73.7124181,27.2790448 73.7124181,26.9275821 C73.7124181,24.647403 74.3977241,22.7611045 75.770069,21.2695522 C77.1415474,19.7788657 79.1324871,18.792 81.7454871,18.3089552 L83.1282284,18.1115821 L81.9430216,16.6979403 L81.6467198,16.303194 L80.7578147,15.3483582 C80.2301897,14.7562388 79.7476164,14.2584776 79.3083621,13.8516119 C78.8699741,13.4464776 78.4532457,13.1114627 78.0581767,12.8482985 L78.6178578,11.7627463 C80.1097629,12.1574925 81.6467198,12.3548657 83.2261293,12.3548657 C84.4997069,12.3548657 85.4327974,12.3219701 86.0254009,12.2570448 C86.6180043,12.1912537 87.2981121,12.0484179 88.0665905,11.829403 L88.6262716,13.0136418 C88.2312026,13.2984478 88.0336681,13.637791 88.0336681,14.0325373 C88.0336681,14.4722985 88.2528621,15.0315224 88.6921164,15.710209 C89.1305043,16.3906269 89.8660603,17.3117015 90.8979181,18.4734328 C91.5996853,19.2421493 92.4556681,19.9762388 93.4658664,20.6782985 C93.245806,21.1604776 93.0872586,21.6097612 92.9884914,22.0261493 C92.8897241,22.443403 92.8074181,22.9697313 92.7415733,23.606 L92.7086509,24.1981194 L92.6757284,25.0862985 C92.6757284,25.6784179 92.6696638,26.2428358 92.6592672,26.7804179 C92.6480043,27.318 92.642806,27.8278806 92.642806,28.3100597 C92.642806,28.5507164 92.6532026,28.7982985 92.6757284,29.050209 C92.6973879,29.3021194 92.7086509,29.471791 92.7086509,29.5592239 C92.8836595,31.4680299 93.0924569,32.7007463 93.3341767,33.2599701 C93.5750302,33.819194 94.0688664,34.22 94.814819,34.4615224 L94.814819,34.4615224 Z" id="Fill-18"></path>
                <path d="M121.350284,19.3295821 C120.691836,19.5702388 120.159879,19.9268955 119.753547,20.3978209 C119.347216,20.8696119 118.914026,21.6539104 118.453112,22.7507164 C118.277237,23.2112537 118.15681,23.5618507 118.090966,23.8033731 C117.959276,24.2630448 117.827586,24.7902388 117.695897,25.3814925 L117.662974,25.6117612 L117.234983,27.8486567 L116.543612,31.665403 C116.499427,31.8411343 116.466504,32.0488955 116.444845,32.2895522 C116.423185,32.5319403 116.411922,32.7397015 116.411922,32.9145672 C116.411922,33.7923582 116.696961,34.5818507 117.267905,35.2830448 L116.774069,36.2049851 C115.633047,35.8535224 114.392392,35.677791 113.053836,35.677791 C112.242039,35.677791 111.330608,35.7652239 110.321276,35.9418209 L109.136069,36.2049851 L108.378853,35.2510149 C108.752263,34.9437015 109.004379,34.5593433 109.136069,34.0996716 C109.267759,33.6382687 109.333603,32.9370746 109.333603,31.9934925 C109.333603,31.665403 109.317142,31.3909851 109.28422,31.1711045 C109.251297,30.9520896 109.168991,30.4924179 109.037302,29.7903582 C108.905612,29.0882985 108.752263,28.4961791 108.576388,28.0131343 C108.400513,27.5318209 108.181319,27.0487761 107.91794,26.5657313 C107.742065,26.8946866 107.599978,27.2132537 107.489948,27.5205672 C107.379918,27.8278806 107.259491,28.2884179 107.127802,28.9021791 L106.8315,30.4802985 L106.666888,31.3035522 L106.535198,32.0601493 C106.469353,32.4990448 106.436431,32.893791 106.436431,33.2435224 C106.436431,33.9239403 106.568121,34.5818507 106.8315,35.2181194 L106.337664,36.2049851 C105.503341,35.722806 104.592776,35.4804179 103.605103,35.4804179 C103.341724,35.4804179 103.017698,35.4968657 102.633892,35.5297612 C102.250086,35.5635224 101.937323,35.5912239 101.695603,35.6128657 C100.883806,35.722806 100.027823,35.9193134 99.1276552,36.2049851 L98.5679741,35.4154925 C98.9188578,34.6476418 99.0947328,33.8148657 99.0947328,32.9145672 C99.0947328,32.2575224 99.017625,31.4732239 98.8642759,30.563403 C98.7109267,29.6527164 98.4527457,28.4745373 98.0905991,27.0271343 C97.7284526,25.5788657 97.459875,24.5651642 97.284,23.9834328 C97.108125,23.4034328 96.9218534,22.8822985 96.724319,22.4208955 C96.32925,21.5448358 95.9671034,20.8644179 95.6378793,20.3813731 C95.3086552,19.9000597 94.9135862,19.4499104 94.4526724,19.0326567 L94.7160517,18.1115821 C95.3961595,18.3539701 96.1039914,18.5288358 96.8395474,18.6387761 C97.5751034,18.7487164 98.4250216,18.8032537 99.3910345,18.8032537 C100.466211,18.8032537 101.662681,18.6162687 102.979578,18.2440299 L103.83556,17.9808657 L104.362319,19.0326567 C104.054754,19.2958209 103.813901,19.5762985 103.638026,19.8723582 C103.462151,20.1675522 103.336526,20.4428358 103.259418,20.6947463 C103.18231,20.9466567 103.14419,21.280806 103.14419,21.697194 C103.14419,22.3343284 103.330461,23.5289552 103.703871,25.282806 C103.791375,25.8091343 103.934328,26.384806 104.131862,27.0106866 C104.329397,27.6348358 104.548591,28.2771642 104.79031,28.934209 C105.272884,27.9040597 105.602108,26.8730448 105.777983,25.8428955 C106.128866,24.0881791 106.304741,22.849403 106.304741,22.1257015 C106.304741,21.4452836 106.11847,20.7553433 105.74506,20.0532836 L106.041362,19.0993134 L107.193647,19.2958209 C107.830435,19.3624776 108.274888,19.4066269 108.527004,19.427403 C108.779121,19.4499104 109.168991,19.4602985 109.69575,19.4602985 C110.902616,19.4602985 112.142405,19.3079403 113.415983,19.0006269 L113.745207,20.0532836 C113.415983,20.7103284 113.251371,21.402 113.251371,22.1257015 C113.251371,22.3230746 113.27303,22.5533433 113.317216,22.8156418 C113.361401,23.0796716 113.415983,23.3644776 113.481828,23.671791 L113.778129,24.6248955 L114.436578,26.7639701 L114.996259,28.2105075 L115.621784,25.9086866 L115.654707,25.6784179 L116.016853,23.8033731 C116.170203,23.0355224 116.24731,22.388 116.24731,21.8616716 C116.24731,21.2046269 116.038513,20.6237612 115.621784,20.1190746 C115.42425,19.8559104 115.231914,19.6533433 115.045642,19.5105075 C114.859371,19.3676716 114.622849,19.2421493 114.33781,19.132209 L114.732879,17.9808657 L115.391328,18.2111343 C116.181466,18.4301493 116.982866,18.5400896 117.794664,18.5400896 C118.408927,18.5400896 119.155746,18.451791 120.033388,18.2760597 L120.823526,18.1115821 L121.350284,19.3295821" id="Fill-19"></path>
                <path d="M134.024547,28.2105075 L134.024547,25.282806 L133.859935,23.7367164 L133.762034,23.0130149 C133.630345,21.9828657 133.45447,21.2479104 133.235276,20.8098806 C133.015216,20.3709851 132.685991,20.0532836 132.247603,19.8559104 C131.807483,19.6576716 131.423677,19.5598507 131.094453,19.5598507 C130.085121,19.5598507 129.415409,20.2939403 129.087052,21.7638507 C128.998681,22.1144478 128.932836,22.453791 128.889517,22.7827463 C128.844466,23.1125672 128.822806,23.6501493 128.822806,24.3954925 L128.691983,26.2705373 L128.658194,26.4350149 L128.658194,27.5534627 C128.658194,27.8382687 128.708444,28.4909851 128.806345,29.5098806 C128.905978,30.5305075 129.009078,31.3035522 129.119974,31.8298806 C129.229138,32.3553433 129.382487,32.8054925 129.580022,33.178597 C130.019276,34.0330149 130.634405,34.4615224 131.423677,34.4615224 C131.972961,34.4615224 132.47806,34.2096119 132.938108,33.7049254 C133.202353,33.463403 133.426746,33.0851045 133.613884,32.5691642 C133.800155,32.0549552 133.892858,31.4463881 133.892858,30.7443284 L133.992491,29 L134.024547,28.2105075 Z M140.971177,27.7837313 C140.971177,28.1776119 140.916595,28.6052537 140.806565,29.0666567 C140.696534,29.5263284 140.554448,29.9989851 140.378573,30.4802985 C139.720991,32.2133731 138.677871,33.5949851 137.250944,34.626 C135.714853,35.7444478 133.981228,36.3036716 132.050069,36.3036716 C130.315578,36.3036716 128.795948,36.0457015 127.489448,35.5297612 C126.183815,35.0155522 125.004672,34.164597 123.950289,32.9812239 C123.095172,31.9727164 122.512966,30.9962388 122.206267,30.0526567 C121.897836,29.1099403 121.744487,28.0027463 121.744487,26.730209 C121.744487,25.875791 121.86578,25.1018806 122.106634,24.4119403 C122.348353,23.7202687 122.720897,22.9801194 123.225996,22.1914925 C124.060319,20.8756716 125.169284,19.8446567 126.551159,19.0993134 C127.934767,18.3539701 129.459595,17.9808657 131.128241,17.9808657 C132.070862,17.9808657 132.982293,18.0899403 133.859935,18.3089552 C135.791095,18.7703582 137.372237,19.6801791 138.601629,21.0401493 C139.456746,21.9612239 140.06581,22.9584776 140.427957,24.0336418 C140.790103,25.1079403 140.971177,26.3579701 140.971177,27.7837313 L140.971177,27.7837313 Z" id="Fill-20"></path>
                <path d="M159.013526,22.8156418 C159.013526,23.4527761 158.902629,24.0388358 158.683435,24.5764179 C158.464241,25.114 158.063108,25.6836119 157.482634,26.2869851 C156.900427,26.8894925 156.609323,27.4218806 156.609323,27.8815522 C156.609323,28.1888657 156.762672,28.5178209 157.070237,28.8692836 C156.675168,29.1315821 156.225517,29.2640299 155.720418,29.2640299 C155.172,29.2640299 154.612319,29.0882985 154.041375,28.7368358 C153.558802,28.4745373 153.157668,28.0131343 152.840573,27.3560896 C152.521746,26.6973134 152.362332,26.1164478 152.362332,25.6117612 C152.362332,24.8006269 152.867431,23.7159403 153.876763,22.3559701 C154.030112,22.1802388 154.128879,21.8616716 154.173931,21.402 L154.173931,20.9077015 C154.173931,20.5129552 153.998056,20.1632239 153.646306,19.8559104 C153.427112,19.6368955 153.15247,19.5269552 152.824112,19.5269552 C152.406517,19.5269552 152.066897,19.6914328 151.802651,20.0195224 C151.540138,20.3484776 151.353,20.6782985 151.24297,21.0072537 C151.13294,21.3353433 151.012513,21.8945672 150.880823,22.6849254 L150.782922,23.5722388 C150.737871,23.9678507 150.704948,24.4725373 150.683289,25.0862985 C150.661629,25.7000597 150.650366,26.1164478 150.650366,26.3354627 C150.650366,28.9896119 150.826241,30.908806 151.177991,32.0930448 C151.528009,33.2764179 152.164797,34.3515821 153.086625,35.3159403 L152.099819,36.2370149 C151.48469,36.018 150.859164,35.8483284 150.223241,35.7271343 C149.585586,35.6076716 148.927138,35.546209 148.24703,35.546209 C146.776784,35.546209 145.799509,35.5851642 145.316935,35.6613433 C144.834362,35.7392537 144.285944,35.9418209 143.671681,36.2699104 L143.079078,34.9869851 C143.780845,34.22 144.263418,33.408 144.526797,32.5527164 C144.791043,31.6982985 144.921866,30.3928657 144.921866,28.6390149 C144.921866,28.2884179 144.916668,27.9205075 144.905405,27.5370149 C144.894142,27.1535224 144.888944,26.7527164 144.888944,26.3354627 L144.888944,25.9407164 C144.888944,23.946209 144.752056,22.4927463 144.477414,21.5829254 C144.202772,20.6722388 143.736659,19.8559104 143.079078,19.132209 L143.638759,18.0795522 L144.362185,18.3089552 C145.371517,18.5946269 146.2275,18.7374627 146.930134,18.7374627 C147.435233,18.7374627 148.214108,18.6491642 149.268491,18.4734328 C150.957931,18.1894925 152.121478,18.0466567 152.757401,18.0466567 C153.679228,18.0466567 154.419983,18.101194 154.979664,18.2111343 C155.539345,18.3210746 156.027983,18.5063284 156.444711,18.7703582 C157.389065,19.3408358 158.052711,19.9217015 158.437384,20.5129552 C158.820323,21.1050746 159.013526,21.873791 159.013526,22.8156418" id="Fill-21"></path>
                <path d="M175.704323,29.7574627 C175.857672,30.1954925 175.93478,30.6568955 175.93478,31.1390746 C175.93478,31.6437612 175.836013,32.1917313 175.638478,32.7838507 C175.309254,33.7707164 174.776431,34.5325075 174.041741,35.0700896 C173.306185,35.6076716 172.224944,35.9851045 170.798884,36.2049851 C170.272125,36.2915522 169.656996,36.3365672 168.955228,36.3365672 C167.659991,36.3365672 166.512905,36.1331343 165.514836,35.7271343 C164.515901,35.322 163.52303,34.691791 162.535358,33.8356418 L161.514763,32.8487761 L161.053849,32.2895522 C161.448918,31.8515224 161.72356,31.3970448 161.876909,30.9252537 C162.030259,30.4534627 162.194871,29.5929851 162.370746,28.3429552 C162.414065,28.1239403 162.436591,27.7620896 162.436591,27.2565373 C162.436591,26.7527164 162.446987,26.3250746 162.469513,25.9736119 L162.469513,24.8551642 L162.436591,24.2310149 L162.403668,22.4875522 C162.271978,22.4659104 162.051918,22.453791 161.74522,22.453791 C161.020927,22.453791 160.395401,22.6078806 159.868642,22.915194 L159.210194,21.7967463 C159.868642,21.2046269 160.570409,20.7986269 161.317228,20.5787463 C161.668112,20.4913134 161.931491,20.4480299 162.107366,20.4480299 C162.129026,20.2290149 162.145487,20.0368358 162.15675,19.8723582 C162.167147,19.7078806 162.173211,19.5814925 162.173211,19.493194 C162.173211,19.1209552 162.140289,18.7703582 162.074444,18.441403 C161.876909,17.4545373 161.701034,16.7741194 161.547685,16.4010149 C161.39347,16.0287761 161.152616,15.7327164 160.823392,15.5128358 L161.218461,14.1970149 C161.61353,14.2636716 161.909832,14.3078209 162.107366,14.3294627 C162.304901,14.3511045 162.58994,14.3614925 162.963349,14.3614925 C164.25772,14.3614925 165.870918,14.0446567 167.802944,13.4083881 L168.856461,12.9807463 L169.942901,13.6048955 L169.25153,14.7233433 C169.053996,15.140597 168.89978,15.5794925 168.790616,16.0391642 C168.680586,16.5005672 168.593082,17.0814328 168.527237,17.7826269 L168.42847,18.8352836 L168.395547,19.3945075 C168.89978,19.5053134 169.360694,19.5598507 169.778289,19.5598507 C170.787621,19.5598507 171.775293,19.3183284 172.741306,18.8352836 C172.894655,18.7487164 173.004685,18.6933134 173.07053,18.670806 C173.20222,18.6058806 173.366832,18.4855522 173.564366,18.3089552 C173.936909,18.9235821 174.124047,19.5702388 174.124047,20.2506567 C174.124047,21.8071343 173.67353,22.915194 172.774228,23.5722388 C172.269129,23.901194 171.775293,24.0656716 171.29272,24.0656716 C171.095185,24.0656716 170.858664,24.0440299 170.584888,24.0007463 C170.310246,23.956597 170.074591,23.9237015 169.877056,23.901194 L168.198013,23.6388955 L168.198013,30.8421493 L168.461392,32.5527164 C168.570556,33.3647164 168.72997,33.8971045 168.938767,34.1490149 C169.146698,34.4009254 169.525306,34.5273134 170.074591,34.5273134 C170.447134,34.5273134 170.776358,34.4173731 171.062263,34.1974925 C171.347302,33.9784776 171.517112,33.6997313 171.57256,33.3595224 C171.627142,33.0193134 171.654866,32.7397015 171.654866,32.5198209 C171.654866,31.7961194 171.375026,31.4074328 170.815345,31.3520299 C170.255664,31.2983582 169.942901,31.2490149 169.877056,31.204 C169.722841,31.0949254 169.575556,30.8646567 169.432603,30.5140597 C169.289651,30.1634627 169.218608,29.8336418 169.218608,29.5263284 C169.218608,29 169.416142,28.5403284 169.811211,28.1455821 C170.20628,27.7508358 170.787621,27.486806 171.556099,27.3560896 C171.906983,27.3119403 172.170362,27.2894328 172.346237,27.2894328 C173.663134,27.2894328 174.683728,27.9040597 175.408022,29.1315821 L175.704323,29.7574627" id="Fill-22"></path>
            </g>
        </g>
    </g>
</svg>