<?xml version="1.0" encoding="UTF-8" standalone="no"?>
<svg width="256px" height="94px" viewBox="0 0 256 94" version="1.1" xmlns="http://www.w3.org/2000/svg" xmlns:xlink="http://www.w3.org/1999/xlink">
    <!-- Generator: Sketch 42 (36781) - http://www.bohemiancoding.com/sketch -->
    <title>Logo_Klindwort-Apo_Pfade_graurot</title>
    <desc>Created with Sketch.</desc>
    <defs>
        <polygon id="path-1" points="0.06 0.773 0.06 15.395 13.229 15.395 13.229 0.773 0.06 0.773"></polygon>
        <polygon id="path-3" points="28.0556315 23 0.606 23 0.606 0.0891012024 28.0556315 0.0891012024 28.0556315 23"></polygon>
    </defs>
    <g id="Symbols" stroke="none" stroke-width="1" fill="none" fill-rule="evenodd">
        <g id="Header" transform="translate(-135.000000, -120.000000)">
            <g id="Logo_Klindwort-Apo_Pfade_graurot" transform="translate(135.000000, 120.000000)">
                <polyline id="Fill-1" fill="#FFFFFF" points="207.742 24.458 207.64 24.458 207.754 24.33 207.83 24.383 207.789 24.361 207.83 24.383 207.83 24.385 207.803 24.434 207.79 24.458 207.746 24.458 207.742 24.458"></polyline>
                <path d="M218.405,12.808 L221.861,12.808 L221.861,8.543 L218.405,6.118 L218.405,12.808 Z M217.318,11.832 L217.318,11.609 L217.457,11.721 L217.485,11.971 L217.318,11.832 Z M215.367,17.742 C215.478,17.825 215.562,17.965 215.562,18.104 C215.562,18.215 215.45,18.327 215.367,18.382 L215.367,17.742 Z M214.67,19.274 C214.503,19.358 214.363,19.497 214.084,19.72 C214.252,19.358 214.447,19.135 214.67,18.968 L214.67,19.274 Z M216.37,20.557 C216.008,20.25 215.562,20.055 215.06,20.055 C214.531,20.055 214.084,20.25 213.75,20.557 L216.37,20.557 Z M213.443,21.226 L216.732,21.226 L216.732,20.892 L213.443,20.892 L213.443,21.226 Z M215.367,18.689 C215.59,18.606 215.813,18.299 215.813,18.048 C215.813,17.769 215.395,17.379 215.032,17.128 C214.057,16.543 213.499,15.985 213.36,15.539 L213.861,15.707 C214.057,16.236 215.255,16.877 215.785,17.435 C216.008,17.686 216.092,17.825 216.092,18.048 C216.092,18.382 215.813,18.773 215.367,19.024 L215.367,18.689 Z M212.663,13.31 C213.025,10.773 214.531,10.299 215.311,10.299 C215.896,10.299 216.538,10.494 216.732,11.052 C216.175,10.689 215.869,10.55 215.311,10.55 C214.084,10.55 213.137,11.721 212.942,13.31 L212.663,13.31 Z M214.67,18.606 C213.945,19.107 213.722,19.609 213.834,20.195 C214.029,19.999 214.28,19.748 214.67,19.553 L214.67,19.887 L214.865,19.887 L214.865,17.351 L215.172,17.574 L215.172,19.887 L215.367,19.887 L215.367,19.33 C215.924,19.024 216.398,18.466 216.398,18.076 C216.398,17.602 216.147,17.212 215.367,16.655 L215.367,15.985 L215.172,15.985 L215.172,16.515 L214.865,16.292 L214.865,15.985 L214.67,15.985 L214.67,16.153 C214.559,16.097 214.419,15.958 214.28,15.763 C214.531,15.818 214.726,15.818 215.06,15.818 C216.872,15.818 218.489,15.121 219.687,13.978 L210.433,13.978 C211.13,14.648 211.994,15.177 212.942,15.456 C213.248,16.153 213.945,16.738 214.67,17.184 L214.67,18.606 Z M210.071,13.644 L220.077,13.644 L220.077,13.31 L213.276,13.31 C213.304,12.167 214.14,10.857 215.311,10.857 C216.036,10.857 216.426,11.107 216.872,12.027 C217.039,12.362 217.179,12.529 217.318,12.752 L217.374,12.696 L217.123,11.888 L217.736,12.557 C217.68,11.024 216.816,10.02 215.255,10.02 C213.388,10.02 212.551,11.777 212.328,13.31 L210.071,13.31 L210.071,13.644 Z M210.6,20.082 L211.883,20.668 L211.883,19.33 L208.733,19.33 L208.733,12.808 L211.883,12.808 L211.883,4.724 L220.858,0.264 L228.217,5.421 L228.217,19.832 L231.617,22.173 L227.436,28.139 L221.861,24.236 L221.861,19.33 L218.405,19.33 L218.405,24.041 L213.053,28.139 L204.914,24.431 L210.6,20.082 Z" id="Fill-2" fill="#D9242A"></path>
                <g id="Group-5" transform="translate(0.000000, 46.000000)">
                    <mask id="mask-2" fill="white">
                        <use xlink:href="#path-1"></use>
                    </mask>
                    <g id="Clip-4"></g>
                    <path d="M9.793,9.196 C8.61,4.868 8.019,2.532 8.019,2.188 L7.917,2.188 C7.895,2.42 6.779,4.756 4.571,9.196 L9.793,9.196 Z M13.229,15.395 L10.995,15.395 C10.995,14.669 10.706,13.093 10.13,10.667 L3.976,10.667 C3.646,11.378 3.358,12.022 3.111,12.599 C2.527,13.984 2.208,14.916 2.156,15.395 L0,15.395 C0.038,15.178 1.217,12.782 3.538,8.208 C5.829,3.67 6.997,1.192 7.041,0.773 L9.512,0.773 C9.512,1.447 10.132,3.891 11.371,8.106 C12.61,12.322 13.229,14.751 13.229,15.395 L13.229,15.395 Z" id="Fill-3" fill="#565F61" mask="url(#mask-2)"></path>
                </g>
                <path d="M23.741,55.387 C23.741,53.081 22.929,51.928 21.304,51.928 C20.496,51.928 19.702,52.44 18.923,53.466 C18.145,54.492 17.695,55.69 17.576,57.06 L17.351,59.609 C18.077,60.043 18.781,60.261 19.462,60.261 C20.893,60.261 21.963,59.81 22.674,58.908 C23.386,58.005 23.741,56.832 23.741,55.387 Z M25.662,54.713 C25.662,56.742 25.145,58.414 24.112,59.727 C23.079,61.042 21.686,61.698 19.934,61.698 C18.744,61.698 17.872,61.451 17.317,60.957 L17.228,60.957 C17.01,63.039 16.846,64.858 16.733,66.415 L14.734,66.527 C15.678,59.625 16.149,55.218 16.149,53.309 C16.149,52.598 16.089,51.752 15.97,50.771 L17.868,50.49 C17.913,51.112 17.935,51.984 17.935,53.107 L18.025,53.107 C19.013,51.288 20.368,50.378 22.09,50.378 C23.153,50.378 24.015,50.769 24.673,51.551 C25.332,52.334 25.662,53.388 25.662,54.713 L25.662,54.713 Z" id="Fill-6" fill="#565F61"></path>
                <path d="M35.937,55.454 C35.937,54.406 35.7,53.509 35.224,52.764 C34.749,52.02 34.062,51.647 33.164,51.647 C32.048,51.647 31.157,52.169 30.491,53.213 C29.824,54.258 29.491,55.391 29.491,56.611 C29.491,57.659 29.733,58.556 30.215,59.3 C30.699,60.045 31.393,60.418 32.299,60.418 C33.399,60.418 34.281,59.896 34.944,58.851 C35.606,57.807 35.937,56.674 35.937,55.454 Z M37.847,55.128 C37.847,56.933 37.302,58.501 36.212,59.834 C35.123,61.167 33.687,61.833 31.906,61.833 C30.73,61.833 29.718,61.359 28.868,60.413 C28.018,59.465 27.593,58.239 27.593,56.734 C27.593,54.96 28.136,53.433 29.222,52.152 C30.307,50.872 31.752,50.232 33.557,50.232 C34.747,50.232 35.76,50.674 36.594,51.557 C37.429,52.44 37.847,53.631 37.847,55.128 L37.847,55.128 Z" id="Fill-7" fill="#565F61"></path>
                <path d="M46.427,59.34 L46.146,60.833 C45.36,61.365 44.551,61.631 43.72,61.631 C42.694,61.631 41.979,61.378 41.575,60.872 C41.171,60.368 40.969,59.561 40.969,58.453 C40.969,57.524 41.182,55.521 41.609,52.444 C41.212,52.444 40.602,52.467 39.778,52.512 L40.014,50.883 C40.718,50.928 41.332,50.951 41.856,50.951 C41.901,50.643 42.062,49.577 42.339,47.75 L44.023,47.57 C43.889,48.334 43.713,49.461 43.496,50.951 C44.192,50.951 45.187,50.913 46.483,50.838 L46.258,52.512 C45.023,52.467 44.016,52.444 43.237,52.444 C42.848,54.96 42.653,56.761 42.653,57.846 C42.653,58.7 42.762,59.284 42.979,59.598 C43.196,59.913 43.563,60.07 44.08,60.07 C44.828,60.07 45.611,59.827 46.427,59.34" id="Fill-8" fill="#565F61"></path>
                <path d="M58.095,53.713 C58.095,54.305 58.011,55.51 57.842,57.33 C57.674,59.149 57.59,60.504 57.59,61.395 L55.692,61.507 C55.692,61.178 55.8,60.119 56.018,58.329 C56.235,56.539 56.343,55.185 56.343,54.264 C56.343,53.388 56.184,52.779 55.866,52.439 C55.548,52.098 55.048,51.928 54.367,51.928 C53.551,51.928 52.766,52.461 52.014,53.528 C51.261,54.595 50.822,55.772 50.694,57.06 C50.53,58.737 50.402,60.182 50.312,61.395 L48.437,61.507 C48.527,60.818 48.841,57.988 49.38,53.017 C49.695,50.022 49.852,47.548 49.852,45.594 L51.986,45.481 C51.986,45.751 51.919,46.324 51.784,47.2 C51.589,48.495 51.409,49.962 51.245,51.602 C51.207,51.977 51.144,52.478 51.054,53.107 L51.144,53.107 C52.117,51.288 53.457,50.378 55.164,50.378 C57.118,50.378 58.095,51.49 58.095,53.713" id="Fill-9" fill="#565F61"></path>
                <path d="M67.978,52.893 C67.978,52.497 67.794,52.192 67.428,51.978 C67.061,51.765 66.589,51.658 66.013,51.658 C65.197,51.658 64.438,51.928 63.738,52.467 C63.039,53.006 62.584,53.833 62.374,54.949 C64.672,54.904 66.248,54.661 67.102,54.219 C67.686,53.919 67.978,53.478 67.978,52.893 Z M69.764,52.849 C69.764,53.859 69.296,54.627 68.36,55.151 C67.169,55.825 65.141,56.188 62.273,56.24 C62.273,57.588 62.507,58.567 62.975,59.177 C63.443,59.787 64.231,60.092 65.339,60.092 C66.424,60.092 67.607,59.71 68.888,58.947 L68.607,60.609 C67.596,61.335 66.346,61.698 64.856,61.698 C63.329,61.698 62.204,61.24 61.481,60.323 C60.759,59.405 60.397,58.243 60.397,56.835 C60.397,54.762 61.002,53.143 62.211,51.978 C63.42,50.814 64.815,50.232 66.395,50.232 C67.353,50.232 68.154,50.464 68.798,50.928 C69.442,51.393 69.764,52.033 69.764,52.849 L69.764,52.849 Z" id="Fill-10" fill="#565F61"></path>
                <path d="M81.387,50.681 C81.387,50.928 80.91,51.535 79.955,52.5 C79.001,53.466 78.13,54.271 77.344,54.915 L77.333,55.027 C78.171,56.016 78.887,57.191 79.478,58.554 C80.069,59.916 80.365,60.863 80.365,61.395 L78.332,61.507 C78.332,61.11 78.117,60.33 77.686,59.165 C77.256,58.001 76.742,57.011 76.143,56.195 C75.626,56.719 75.177,57.251 74.795,57.79 C73.881,59.078 73.387,60.279 73.312,61.395 L71.448,61.507 C71.568,60.804 71.909,57.974 72.47,53.017 C72.777,50.097 72.931,47.623 72.931,45.594 L74.997,45.481 C74.997,45.863 74.81,47.516 74.436,50.44 C74.061,53.363 73.773,55.78 73.571,57.689 L73.683,57.689 C74.08,56.753 75.078,55.422 76.676,53.697 C78.274,51.971 79.074,50.943 79.074,50.614 L81.387,50.681" id="Fill-11" fill="#565F61"></path>
                <path d="M90.113,52.893 C90.113,52.497 89.93,52.192 89.563,51.978 C89.196,51.765 88.725,51.658 88.148,51.658 C87.332,51.658 86.574,51.928 85.873,52.467 C85.174,53.006 84.719,53.833 84.509,54.949 C86.808,54.904 88.384,54.661 89.237,54.219 C89.821,53.919 90.113,53.478 90.113,52.893 Z M91.899,52.849 C91.899,53.859 91.431,54.627 90.495,55.151 C89.305,55.825 87.276,56.188 84.408,56.24 C84.408,57.588 84.642,58.567 85.11,59.177 C85.578,59.787 86.366,60.092 87.474,60.092 C88.56,60.092 89.743,59.71 91.023,58.947 L90.742,60.609 C89.731,61.335 88.481,61.698 86.991,61.698 C85.464,61.698 84.339,61.24 83.617,60.323 C82.894,59.405 82.533,58.243 82.533,56.835 C82.533,54.762 83.137,53.143 84.346,51.978 C85.556,50.814 86.95,50.232 88.53,50.232 C89.488,50.232 90.289,50.464 90.933,50.928 C91.577,51.393 91.899,52.033 91.899,52.849 L91.899,52.849 Z" id="Fill-12" fill="#565F61"></path>
                <path d="M103.197,53.713 C103.197,54.305 103.113,55.51 102.944,57.33 C102.776,59.149 102.691,60.504 102.691,61.395 L100.793,61.507 C100.793,61.178 100.902,60.119 101.119,58.329 C101.336,56.539 101.445,55.185 101.445,54.264 C101.445,53.388 101.286,52.779 100.967,52.439 C100.649,52.098 100.149,51.928 99.468,51.928 C98.652,51.928 97.868,52.461 97.116,53.528 C96.363,54.595 95.923,55.772 95.796,57.06 C95.631,58.737 95.504,60.182 95.414,61.395 L93.583,61.507 C94.107,57.629 94.37,55.009 94.37,53.646 C94.37,52.86 94.31,51.901 94.19,50.771 L96.088,50.49 C96.133,51.149 96.155,52.021 96.155,53.107 L96.245,53.107 C97.218,51.288 98.559,50.378 100.266,50.378 C102.22,50.378 103.197,51.49 103.197,53.713" id="Fill-13" fill="#565F61"></path>
                <path d="M31.73,17.008 C32.11,17.769 32.3,18.542 32.3,19.327 C32.3,20.568 31.875,21.601 31.027,22.423 C30.178,23.247 29.146,23.659 27.93,23.659 C27.601,23.659 27.303,23.634 27.037,23.582 C26.771,23.532 26.575,23.481 26.448,23.431 L26.6,23.126 C26.802,22.747 26.904,22.316 26.904,21.835 C26.904,20.466 26.081,19.644 24.434,19.365 C24.079,19.314 23.826,19.289 23.674,19.289 C22.736,19.289 21.831,19.561 20.957,20.105 C20.083,20.65 19.266,21.493 18.506,22.632 L18.05,23.431 C18.252,23.634 18.48,23.836 18.734,24.039 C18.987,24.242 19.253,24.444 19.532,24.646 C20.165,25.052 20.843,25.375 21.565,25.616 C22.287,25.856 23.154,26.053 24.168,26.205 L24.928,26.318 L25.042,27.497 C25.295,29.853 25.941,32.095 26.98,34.223 C27.791,35.895 28.417,37.022 28.861,37.604 C29.304,38.188 29.982,38.808 30.894,39.466 L31.616,39.96 L30.704,41.898 C29.842,41.543 28.842,41.303 27.702,41.177 C26.562,41.05 25.092,40.986 23.294,40.986 C22.128,40.986 21.179,41.057 20.444,41.195 C19.709,41.334 18.975,41.557 18.24,41.86 L17.024,40.112 C17.961,39.479 18.43,38.555 18.43,37.338 C18.43,36.3 18.101,34.944 17.442,33.272 C17.163,32.614 16.847,32.025 16.492,31.505 C16.137,30.987 15.808,30.612 15.504,30.385 C15.022,30.056 14.566,29.891 14.136,29.891 C13.351,29.891 12.755,30.474 12.35,31.639 C12.172,32.095 12.084,32.728 12.084,33.539 C12.084,35.034 12.236,36.117 12.54,36.788 C12.844,37.459 13.515,38.25 14.554,39.163 L15.694,40.15 L14.896,41.823 L12.806,41.329 L10.792,40.834 L10.64,40.796 C10.386,40.746 10.057,40.708 9.652,40.683 C9.247,40.658 8.816,40.645 8.36,40.645 L6.916,40.645 C6.46,40.721 6.13,40.771 5.928,40.796 C4.458,40.949 3.04,41.303 1.672,41.86 L0.266,40.15 C1.457,39.466 2.292,38.435 2.774,37.054 C3.255,35.673 3.496,33.362 3.496,30.119 L3.496,28.827 L3.458,28.181 L3.382,26.433 L3.382,23.354 L3.382,22.785 C3.382,22.557 3.356,22.24 3.306,21.835 C3.078,19.935 2.729,18.503 2.261,17.54 C1.792,16.578 1.127,15.894 0.266,15.489 L1.368,13.778 L2.356,13.969 L3.838,14.234 C4.953,14.412 6.01,14.514 7.011,14.539 C8.011,14.564 8.727,14.577 9.158,14.577 C10.07,14.577 10.956,14.514 11.818,14.387 C12.679,14.26 13.566,14.07 14.478,13.816 L15.466,15.451 C14.756,15.806 14.193,16.325 13.775,17.008 C13.357,17.692 12.983,18.706 12.654,20.048 C12.578,20.404 12.502,20.777 12.426,21.169 C12.35,21.562 12.312,22.139 12.312,22.898 L12.16,24.418 L12.16,24.913 C12.134,25.116 12.122,25.356 12.122,25.635 L12.122,26.281 L12.122,27.154 L12.122,27.763 C12.274,27.535 12.457,27.237 12.673,26.87 C12.888,26.502 13.046,26.23 13.148,26.053 L13.376,25.635 L13.794,24.798 L15.162,21.949 L15.618,21.112 C17.138,18.58 18.576,16.793 19.931,15.754 C21.286,14.716 22.889,14.108 24.738,13.931 C24.915,13.931 25.111,13.925 25.327,13.912 C25.542,13.899 25.688,13.893 25.764,13.893 C26.144,13.893 26.448,13.906 26.676,13.931 C26.904,13.956 27.221,14.006 27.626,14.083 C28.69,14.286 29.526,14.602 30.134,15.033 C30.742,15.463 31.274,16.122 31.73,17.008" id="Fill-14" fill="#565F61"></path>
                <path d="M45.676,15.185 C45.017,15.768 44.536,16.414 44.231,17.122 C43.928,17.832 43.662,18.934 43.434,20.429 C43.383,20.936 43.345,21.721 43.32,22.785 C43.294,23.849 43.282,25.432 43.282,27.535 L43.282,29.586 C43.282,31.056 43.307,32.203 43.357,33.025 C43.408,33.849 43.459,34.489 43.51,34.944 C43.712,36.667 43.902,37.808 44.08,38.365 C44.256,38.922 44.637,39.542 45.22,40.227 L45.638,40.683 L44.84,41.975 C43.75,41.467 42.433,41.139 40.888,40.986 L38.076,40.986 C36.86,41.038 35.821,41.278 34.959,41.708 L34.048,40.493 C34.706,39.986 35.175,39.422 35.454,38.802 C35.732,38.181 36.011,36.997 36.29,35.249 C36.366,34.844 36.429,34.407 36.479,33.938 C36.53,33.469 36.556,32.981 36.556,32.475 L36.556,30.385 L36.518,27.61 L36.479,26.053 L36.328,22.329 C36.15,20.226 35.903,18.725 35.586,17.826 C35.269,16.927 34.719,16.084 33.934,15.298 L34.656,13.778 C35.264,14.058 35.833,14.267 36.366,14.406 C36.897,14.545 37.582,14.615 38.417,14.615 L39.558,14.615 C41.001,14.615 42.059,14.571 42.73,14.481 C43.401,14.393 44.08,14.171 44.764,13.816 L45.676,15.185" id="Fill-15" fill="#565F61"></path>
                <path d="M55.973,14.69 C56.328,15.4 56.505,16.097 56.505,16.781 C56.505,17.592 56.309,18.319 55.916,18.965 C55.523,19.611 54.966,20.119 54.244,20.485 C53.522,20.853 52.831,21.037 52.173,21.037 C51.286,21.037 50.495,20.784 49.798,20.276 C49.101,19.77 48.576,19.048 48.221,18.11 C47.993,17.579 47.879,17.06 47.879,16.553 C47.879,16.376 47.917,16.078 47.993,15.66 C48.069,15.242 48.278,14.799 48.62,14.33 C48.962,13.861 49.386,13.462 49.893,13.132 C50.602,12.702 51.337,12.486 52.097,12.486 C52.908,12.486 53.655,12.677 54.339,13.057 C55.023,13.437 55.568,13.981 55.973,14.69 Z M58.367,22.063 C57.43,23 56.771,24.007 56.391,25.084 C56.011,26.161 55.821,27.763 55.821,29.891 L55.821,32.057 C55.821,34.716 55.979,36.521 56.296,37.472 C56.613,38.421 57.278,39.34 58.291,40.227 L57.873,41.86 L57.455,41.747 L56.809,41.632 L55.859,41.48 C53.731,41.126 52.198,40.949 51.261,40.949 C50.552,40.949 49.95,41.019 49.456,41.158 C48.962,41.296 48.373,41.543 47.689,41.898 L46.815,40.531 C47.474,40.024 47.961,39.435 48.278,38.764 C48.595,38.093 48.842,37.124 49.019,35.856 L49.247,33.652 L49.247,31.373 L49.247,30.498 L49.247,29.017 C49.171,28.662 49.12,28.409 49.095,28.256 L49.057,27.953 L48.677,26.205 C48.499,25.268 48.36,24.646 48.259,24.342 C48.158,24.039 47.955,23.659 47.651,23.203 C47.524,22.975 47.379,22.766 47.214,22.576 C47.049,22.386 46.853,22.177 46.625,21.949 L47.385,20.809 C48.854,21.468 50.577,21.796 52.553,21.796 C54.63,21.796 56.34,21.468 57.683,20.809 L58.367,22.063 L58.367,22.063 Z" id="Fill-16" fill="#565F61"></path>
                <path d="M82.459,40.645 C82.18,41.151 81.73,41.557 81.11,41.86 C80.489,42.165 79.723,42.316 78.811,42.316 C77.721,42.316 76.721,42.146 75.809,41.804 C74.897,41.461 74.061,40.886 73.301,40.075 C71.882,38.479 71.173,36.896 71.173,35.325 C71.173,34.844 71.236,34.324 71.363,33.767 C71.414,33.514 71.515,33.159 71.667,32.703 L72.237,31.334 L72.351,31.145 L73.833,28.827 C74.289,28.143 74.612,27.522 74.802,26.964 C74.992,26.408 75.087,25.938 75.087,25.559 C75.087,23.887 74.238,23.05 72.541,23.05 C72.237,23.05 71.996,23.063 71.819,23.088 C70.881,23.241 70.197,23.824 69.767,24.836 C69.26,26.053 69.007,28.003 69.007,30.688 L69.007,32.741 C69.007,34.944 69.184,36.579 69.539,37.643 C69.817,38.504 70.425,39.429 71.363,40.416 L70.945,41.898 L69.843,41.519 C69.108,41.315 68.285,41.151 67.373,41.024 C66.689,40.974 66.195,40.936 65.891,40.911 C65.587,40.886 65.321,40.873 65.093,40.873 C64.231,40.873 63.44,40.955 62.718,41.12 C61.996,41.285 61.255,41.557 60.495,41.937 L59.849,40.265 C60.432,39.606 60.881,38.91 61.198,38.174 C61.515,37.44 61.736,36.49 61.863,35.325 L61.939,34.336 L61.939,32.095 L61.901,30.271 L61.863,29.929 L61.787,29.168 C61.508,26.889 61.242,25.344 60.989,24.533 C60.735,23.722 60.267,22.937 59.583,22.177 L59.963,20.771 L60.799,20.998 C61.533,21.176 62.325,21.303 63.174,21.378 C64.022,21.455 65.46,21.493 67.487,21.493 C67.841,21.493 68.297,21.455 68.855,21.378 C69.716,21.227 70.514,21.1 71.249,20.998 L72.313,20.885 C74.922,20.885 76.987,21.176 78.507,21.758 C80.027,22.342 81.142,23.253 81.851,24.495 C82.56,25.736 82.915,26.939 82.915,28.104 C82.915,30.131 81.901,32.032 79.875,33.805 L78.963,34.526 C78.102,35.16 77.512,35.647 77.196,35.99 C76.879,36.331 76.651,36.711 76.512,37.129 C76.373,37.547 76.303,37.934 76.303,38.289 C76.303,39.201 76.645,39.809 77.329,40.112 C77.43,40.164 77.595,40.188 77.823,40.188 C78.405,40.188 78.798,39.91 79.001,39.353 C79.051,39.15 79.077,38.973 79.077,38.82 C79.077,38.314 78.874,37.77 78.469,37.187 L77.975,36.73 C78.456,35.971 79.165,35.59 80.103,35.59 C80.457,35.59 80.812,35.654 81.167,35.781 C81.521,35.908 81.876,36.123 82.231,36.427 C82.864,36.958 83.181,37.643 83.181,38.479 C83.181,39.138 82.94,39.859 82.459,40.645" id="Fill-17" fill="#565F61"></path>
                <path d="M99.597,35.553 L99.559,33.083 L99.559,28.902 L99.521,26.851 C99.521,26.268 99.508,25.856 99.483,25.616 C99.457,25.375 99.419,25.103 99.369,24.798 C99.115,23.582 98.381,22.975 97.165,22.975 C96.835,22.975 96.557,23.025 96.329,23.126 C95.822,23.33 95.379,23.665 94.998,24.133 C94.619,24.603 94.302,25.242 94.049,26.053 C93.921,26.458 93.827,26.851 93.764,27.23 C93.7,27.61 93.669,28.193 93.669,28.979 L93.593,30.309 L93.555,31.068 L93.555,33.159 L93.631,33.918 C93.731,35.059 93.84,35.882 93.954,36.389 C94.068,36.896 94.213,37.351 94.391,37.756 C95.049,38.896 95.847,39.466 96.785,39.466 C97.063,39.466 97.412,39.416 97.83,39.314 C98.248,39.213 98.615,38.935 98.932,38.479 C99.248,38.022 99.445,37.478 99.521,36.845 C99.597,36.211 99.622,35.781 99.597,35.553 Z M109.438,39.809 L107.881,41.898 C107.475,41.569 107.07,41.354 106.665,41.252 C106.259,41.151 105.639,41.101 104.803,41.101 C104.271,41.101 103.764,41.107 103.283,41.12 C102.801,41.133 102.345,41.139 101.915,41.139 L101.23,41.214 L100.851,41.252 L98.456,41.595 C97.367,41.771 96.354,41.86 95.416,41.86 C94.251,41.86 93.137,41.67 92.073,41.291 C90.198,40.632 88.76,39.758 87.76,38.668 C86.759,37.58 85.967,35.933 85.385,33.729 C85.283,33.374 85.207,32.95 85.157,32.456 C85.105,31.961 85.081,31.512 85.081,31.106 C85.081,28.472 85.872,26.293 87.456,24.57 C89.039,22.848 91.337,21.708 94.353,21.15 L95.949,20.922 L94.581,19.289 L94.239,18.833 L93.213,17.73 C92.604,17.046 92.047,16.471 91.54,16.001 C91.034,15.533 90.553,15.146 90.097,14.842 L90.743,13.588 C92.465,14.044 94.239,14.272 96.062,14.272 C97.532,14.272 98.609,14.234 99.293,14.159 C99.977,14.083 100.762,13.918 101.649,13.665 L102.295,15.033 C101.839,15.362 101.611,15.754 101.611,16.21 C101.611,16.718 101.864,17.364 102.371,18.148 C102.877,18.934 103.726,19.998 104.917,21.34 C105.727,22.228 106.715,23.076 107.881,23.887 C107.627,24.444 107.444,24.963 107.33,25.444 C107.216,25.926 107.121,26.534 107.045,27.269 L107.007,27.953 L106.969,28.979 C106.969,29.663 106.962,30.315 106.95,30.936 C106.937,31.557 106.931,32.146 106.931,32.703 C106.931,32.981 106.943,33.267 106.969,33.558 C106.994,33.849 107.007,34.045 107.007,34.146 C107.209,36.351 107.45,37.775 107.729,38.421 C108.007,39.067 108.577,39.53 109.438,39.809 L109.438,39.809 Z" id="Fill-18" fill="#565F61"></path>
                <path d="M140.066,22.329 C139.306,22.607 138.692,23.019 138.223,23.563 C137.754,24.108 137.254,25.014 136.722,26.281 C136.519,26.813 136.38,27.218 136.304,27.497 C136.152,28.028 136,28.637 135.848,29.32 L135.81,29.586 L135.316,32.17 L134.518,36.579 C134.467,36.782 134.429,37.022 134.404,37.3 C134.379,37.58 134.366,37.82 134.366,38.022 C134.366,39.036 134.695,39.948 135.354,40.758 L134.784,41.823 C133.467,41.417 132.035,41.214 130.49,41.214 C129.553,41.214 128.501,41.315 127.336,41.519 L125.968,41.823 L125.094,40.721 C125.525,40.366 125.816,39.922 125.968,39.391 C126.12,38.858 126.196,38.048 126.196,36.958 C126.196,36.579 126.177,36.262 126.139,36.008 C126.101,35.755 126.006,35.224 125.854,34.413 C125.702,33.602 125.525,32.918 125.322,32.36 C125.119,31.804 124.866,31.246 124.562,30.688 C124.359,31.068 124.195,31.436 124.068,31.791 C123.941,32.146 123.802,32.678 123.65,33.387 L123.308,35.21 L123.118,36.161 L122.966,37.035 C122.89,37.542 122.852,37.998 122.852,38.402 C122.852,39.188 123.004,39.948 123.308,40.683 L122.738,41.823 C121.775,41.266 120.724,40.986 119.584,40.986 C119.28,40.986 118.906,41.005 118.463,41.043 C118.02,41.082 117.659,41.114 117.38,41.139 C116.443,41.266 115.455,41.493 114.416,41.823 L113.77,40.911 C114.175,40.024 114.378,39.062 114.378,38.022 C114.378,37.263 114.289,36.357 114.112,35.306 C113.935,34.254 113.637,32.893 113.219,31.221 C112.801,29.548 112.491,28.377 112.288,27.705 C112.085,27.035 111.87,26.433 111.642,25.9 C111.186,24.888 110.768,24.102 110.388,23.544 C110.008,22.988 109.552,22.468 109.02,21.986 L109.324,20.922 C110.109,21.202 110.926,21.404 111.775,21.531 C112.624,21.658 113.605,21.721 114.72,21.721 C115.961,21.721 117.342,21.505 118.862,21.075 L119.85,20.771 L120.458,21.986 C120.103,22.29 119.825,22.614 119.622,22.956 C119.419,23.297 119.274,23.615 119.185,23.906 C119.096,24.197 119.052,24.583 119.052,25.064 C119.052,25.8 119.267,27.18 119.698,29.206 C119.799,29.814 119.964,30.479 120.192,31.202 C120.42,31.923 120.673,32.665 120.952,33.424 C121.509,32.234 121.889,31.043 122.092,29.853 C122.497,27.826 122.7,26.395 122.7,25.559 C122.7,24.773 122.485,23.976 122.054,23.165 L122.396,22.063 L123.726,22.29 C124.461,22.367 124.974,22.418 125.265,22.442 C125.556,22.468 126.006,22.48 126.614,22.48 C128.007,22.48 129.438,22.304 130.908,21.949 L131.288,23.165 C130.908,23.924 130.718,24.723 130.718,25.559 C130.718,25.787 130.743,26.053 130.794,26.356 C130.845,26.661 130.908,26.99 130.984,27.345 L131.326,28.446 L132.086,30.917 L132.732,32.588 L133.454,29.929 L133.492,29.663 L133.91,27.497 C134.087,26.61 134.176,25.862 134.176,25.254 C134.176,24.495 133.935,23.824 133.454,23.241 C133.226,22.937 133.004,22.703 132.789,22.538 C132.574,22.373 132.301,22.228 131.972,22.101 L132.428,20.771 L133.188,21.037 C134.1,21.29 135.025,21.417 135.962,21.417 C136.671,21.417 137.533,21.315 138.546,21.112 L139.458,20.922 L140.066,22.329" id="Fill-19" fill="#565F61"></path>
                <path d="M154.695,32.588 L154.695,29.206 L154.505,27.42 L154.392,26.584 C154.24,25.394 154.037,24.545 153.784,24.039 C153.53,23.532 153.15,23.165 152.644,22.937 C152.136,22.708 151.693,22.595 151.313,22.595 C150.148,22.595 149.375,23.443 148.996,25.141 C148.894,25.546 148.818,25.938 148.768,26.318 C148.716,26.699 148.691,27.32 148.691,28.181 L148.54,30.347 L148.501,30.537 L148.501,31.829 C148.501,32.158 148.559,32.912 148.672,34.089 C148.787,35.268 148.906,36.161 149.034,36.769 C149.16,37.376 149.337,37.896 149.565,38.327 C150.072,39.314 150.782,39.809 151.693,39.809 C152.327,39.809 152.91,39.518 153.441,38.935 C153.746,38.656 154.005,38.219 154.221,37.623 C154.436,37.029 154.543,36.326 154.543,35.515 L154.658,33.5 L154.695,32.588 Z M162.713,32.095 C162.713,32.55 162.65,33.044 162.523,33.577 C162.396,34.108 162.232,34.654 162.029,35.21 C161.27,37.212 160.066,38.808 158.419,39.999 C156.646,41.291 154.645,41.937 152.416,41.937 C150.414,41.937 148.66,41.639 147.152,41.043 C145.645,40.449 144.284,39.466 143.067,38.099 C142.08,36.934 141.408,35.806 141.054,34.716 C140.698,33.627 140.521,32.348 140.521,30.878 C140.521,29.891 140.661,28.997 140.939,28.2 C141.218,27.401 141.648,26.546 142.231,25.635 C143.194,24.115 144.474,22.924 146.069,22.063 C147.666,21.202 149.426,20.771 151.352,20.771 C152.44,20.771 153.492,20.897 154.505,21.15 C156.734,21.683 158.559,22.734 159.978,24.305 C160.965,25.369 161.668,26.521 162.086,27.763 C162.504,29.004 162.713,30.448 162.713,32.095 L162.713,32.095 Z" id="Fill-20" fill="#565F61"></path>
                <path d="M183.538,26.356 C183.538,27.092 183.41,27.769 183.157,28.39 C182.904,29.011 182.441,29.669 181.771,30.366 C181.099,31.062 180.763,31.677 180.763,32.208 C180.763,32.563 180.94,32.943 181.295,33.349 C180.839,33.652 180.32,33.805 179.737,33.805 C179.104,33.805 178.458,33.602 177.799,33.196 C177.242,32.893 176.779,32.36 176.413,31.601 C176.045,30.84 175.861,30.169 175.861,29.586 C175.861,28.649 176.444,27.396 177.609,25.825 C177.786,25.622 177.9,25.254 177.952,24.723 L177.952,24.152 C177.952,23.696 177.749,23.292 177.343,22.937 C177.09,22.684 176.773,22.557 176.394,22.557 C175.912,22.557 175.52,22.747 175.215,23.126 C174.912,23.506 174.696,23.887 174.569,24.267 C174.442,24.646 174.303,25.292 174.151,26.205 L174.038,27.23 C173.986,27.687 173.948,28.27 173.923,28.979 C173.898,29.688 173.885,30.169 173.885,30.422 C173.885,33.488 174.088,35.705 174.494,37.073 C174.898,38.44 175.633,39.682 176.697,40.796 L175.558,41.86 C174.848,41.607 174.126,41.411 173.392,41.271 C172.656,41.133 171.896,41.062 171.111,41.062 C169.414,41.062 168.286,41.107 167.729,41.195 C167.172,41.285 166.539,41.519 165.83,41.898 L165.146,40.416 C165.956,39.53 166.513,38.592 166.817,37.604 C167.122,36.617 167.273,35.109 167.273,33.083 C167.273,32.678 167.267,32.253 167.254,31.81 C167.241,31.367 167.235,30.904 167.235,30.422 L167.235,29.966 C167.235,27.662 167.077,25.983 166.76,24.932 C166.443,23.88 165.905,22.937 165.146,22.101 L165.792,20.885 L166.627,21.15 C167.792,21.48 168.78,21.645 169.591,21.645 C170.174,21.645 171.073,21.543 172.29,21.34 C174.24,21.012 175.583,20.847 176.317,20.847 C177.381,20.847 178.236,20.91 178.882,21.037 C179.528,21.164 180.092,21.378 180.573,21.683 C181.663,22.342 182.429,23.013 182.873,23.696 C183.315,24.38 183.538,25.268 183.538,26.356" id="Fill-21" fill="#565F61"></path>
                <path d="M202.803,34.375 C202.98,34.881 203.069,35.414 203.069,35.971 C203.069,36.554 202.955,37.187 202.727,37.871 C202.347,39.011 201.732,39.891 200.884,40.512 C200.035,41.133 198.787,41.569 197.141,41.823 C196.533,41.923 195.823,41.975 195.013,41.975 C193.518,41.975 192.194,41.74 191.042,41.271 C189.889,40.803 188.743,40.075 187.603,39.086 L186.425,37.946 L185.893,37.3 C186.349,36.794 186.666,36.269 186.843,35.724 C187.02,35.179 187.21,34.185 187.413,32.741 C187.463,32.488 187.489,32.07 187.489,31.486 C187.489,30.904 187.501,30.41 187.527,30.004 L187.527,28.712 L187.489,27.991 L187.451,25.977 C187.299,25.952 187.045,25.938 186.691,25.938 C185.855,25.938 185.133,26.116 184.525,26.471 L183.765,25.179 C184.525,24.495 185.335,24.026 186.197,23.772 C186.602,23.671 186.906,23.621 187.109,23.621 C187.134,23.368 187.153,23.146 187.166,22.956 C187.178,22.766 187.185,22.62 187.185,22.518 C187.185,22.088 187.147,21.683 187.071,21.303 C186.843,20.163 186.64,19.377 186.463,18.946 C186.285,18.516 186.007,18.174 185.627,17.92 L186.083,16.4 C186.539,16.477 186.881,16.528 187.109,16.553 C187.337,16.578 187.666,16.59 188.097,16.59 C189.591,16.59 191.453,16.224 193.683,15.489 L194.899,14.995 L196.153,15.716 L195.355,17.008 C195.127,17.49 194.949,17.997 194.823,18.528 C194.696,19.061 194.595,19.732 194.519,20.542 L194.405,21.758 L194.367,22.404 C194.949,22.532 195.481,22.595 195.963,22.595 C197.128,22.595 198.268,22.316 199.383,21.758 C199.56,21.658 199.687,21.594 199.763,21.568 C199.915,21.493 200.105,21.354 200.333,21.15 C200.763,21.86 200.979,22.607 200.979,23.393 C200.979,25.191 200.459,26.471 199.421,27.23 C198.838,27.61 198.268,27.8 197.711,27.8 C197.483,27.8 197.21,27.775 196.894,27.725 C196.577,27.674 196.305,27.636 196.077,27.61 L194.139,27.307 L194.139,35.628 L194.443,37.604 C194.569,38.542 194.753,39.157 194.994,39.448 C195.234,39.739 195.671,39.885 196.305,39.885 C196.735,39.885 197.115,39.758 197.445,39.504 C197.774,39.251 197.97,38.929 198.034,38.536 C198.097,38.143 198.129,37.82 198.129,37.566 C198.129,36.73 197.806,36.281 197.16,36.217 C196.514,36.155 196.153,36.098 196.077,36.046 C195.899,35.92 195.729,35.654 195.564,35.249 C195.399,34.844 195.317,34.463 195.317,34.108 C195.317,33.5 195.545,32.969 196.001,32.513 C196.457,32.057 197.128,31.752 198.015,31.601 C198.42,31.55 198.724,31.524 198.927,31.524 C200.447,31.524 201.625,32.234 202.461,33.652 L202.803,34.375" id="Fill-22" fill="#565F61"></path>
                <path d="M64.592,86.791 C64.642,87.698 64.137,88.181 63.077,88.24 L63.003,88.055 C63.159,87.823 63.24,87.398 63.247,86.782 C63.442,86.771 63.639,86.705 63.835,86.582 C64.03,86.458 64.219,86.392 64.4,86.382 C64.512,86.375 64.576,86.512 64.592,86.791" id="Fill-23" fill="#D9222A"></path>
                <path d="M68.567,86.569 C68.618,87.476 68.113,87.958 67.053,88.018 L66.979,87.833 C67.134,87.601 67.215,87.176 67.223,86.56 C67.418,86.549 67.615,86.482 67.811,86.359 C68.006,86.237 68.195,86.169 68.377,86.16 C68.487,86.153 68.551,86.29 68.567,86.569" id="Fill-24" fill="#D9222A"></path>
                <path d="M72.543,86.347 C72.594,87.254 72.088,87.737 71.029,87.795 L70.955,87.61 C71.11,87.379 71.192,86.954 71.198,86.338 C71.394,86.327 71.591,86.26 71.786,86.137 C71.983,86.015 72.171,85.947 72.353,85.937 C72.464,85.931 72.528,86.068 72.543,86.347" id="Fill-25" fill="#D9222A"></path>
                <path d="M80.312,77.115 L80.66,77.096 C80.857,77.084 80.964,77.206 80.978,77.457 L80.992,77.712 C80.551,78.386 80.155,78.931 79.802,79.347 C79.253,80.164 78.621,81.248 77.903,82.6 L77.368,83.645 C77.025,84.483 76.855,84.934 76.859,84.996 C76.747,85.549 76.693,85.89 76.7,86.019 C76.713,86.258 76.851,86.448 77.112,86.591 C77.608,86.433 78.263,85.974 79.074,85.21 C80.594,83.424 81.898,81.707 82.989,80.061 C83.871,78.733 84.337,77.96 84.387,77.738 C84.415,77.538 84.465,77.437 84.533,77.432 L85.422,77.383 C85.624,77.46 85.73,77.581 85.739,77.744 L85.751,77.959 C85.756,78.055 85.658,78.299 85.454,78.693 C85.457,78.762 85.329,79.192 85.065,79.986 C85.071,80.095 84.952,80.528 84.707,81.287 C84.389,82.678 84.235,83.462 84.245,83.64 L84.168,83.736 L84.177,83.9 C84.043,85.028 83.981,85.711 83.994,85.95 L84.013,86.287 C84.018,86.375 83.896,86.455 83.647,86.523 L83.351,86.54 C82.956,86.562 82.751,86.43 82.734,86.143 C82.707,85.659 82.898,84.251 83.308,81.919 C83.409,81.776 83.456,81.63 83.447,81.48 C83.387,81.484 83.294,81.616 83.172,81.875 C82.803,82.251 82.541,82.621 82.384,82.985 C82.329,82.989 81.879,83.55 81.033,84.67 C81.005,84.672 80.607,85.135 79.839,86.059 C78.886,86.986 78.008,87.473 77.205,87.518 L77,87.53 C76.14,87.428 75.697,87.141 75.671,86.671 C75.643,86.652 75.602,86.399 75.547,85.91 C75.498,85.044 75.96,83.717 76.934,81.927 L77.86,80.183 L79.069,78.333 C79.103,78.331 79.29,78.122 79.629,77.706 C79.915,77.321 80.143,77.125 80.312,77.115" id="Fill-26" fill="#D9222A"></path>
                <path d="M95.173,76.725 C96.686,76.641 97.7,77.107 98.214,78.124 C98.285,78.413 98.321,78.575 98.324,78.61 L98.285,78.663 L98.339,78.886 L98.349,79.058 C98.309,80.182 97.604,81.762 96.235,83.8 C95.613,84.75 94.902,85.688 94.107,86.615 L93.974,86.622 C93.257,86.615 92.889,86.454 92.871,86.141 L92.864,86.008 L93.749,84.974 C94.893,83.441 95.716,82.154 96.219,81.115 C96.3,81.111 96.523,80.514 96.888,79.326 C96.897,79.01 96.896,78.754 96.886,78.557 C96.704,77.999 96.436,77.731 96.082,77.75 L95.896,77.72 L95.63,77.735 C94.69,77.788 93.608,78.237 92.384,79.084 C91.41,79.864 90.729,80.513 90.341,81.034 C90.282,81.064 89.86,81.597 89.078,82.631 C87.989,84.441 87.422,85.775 87.374,86.632 C87.383,86.809 87.164,86.91 86.714,86.935 C86.401,86.953 86.14,86.803 85.931,86.487 C85.965,85.508 86.505,84.176 87.553,82.491 C87.997,81.763 88.636,80.92 89.471,79.965 C89.811,79.55 90.494,78.941 91.522,78.139 C92.99,77.251 94.207,76.78 95.173,76.725" id="Fill-27" fill="#D9222A"></path>
                <path d="M114.252,67.07 C114.73,67.07 115.012,67.157 115.097,67.33 L115.112,67.586 C115.139,68.076 113.82,70.771 111.156,75.668 C110.331,77.074 109.548,78.948 108.805,81.292 C108.411,82.565 108.235,83.581 108.278,84.336 C108.354,84.585 108.468,84.797 108.622,84.973 C109.167,84.826 109.913,84.361 110.858,83.577 C111.063,83.422 111.219,83.342 111.328,83.335 L111.624,83.319 L111.72,83.396 L111.726,83.488 C111.746,83.849 111.494,84.283 110.968,84.791 C110.187,85.476 109.492,85.837 108.887,85.871 C108.158,85.912 107.634,85.65 107.316,85.087 C107.217,84.792 107.164,84.563 107.155,84.399 C107.107,83.568 107.28,82.496 107.671,81.183 L107.58,81.187 C106.303,82.926 105.138,84.214 104.085,85.053 C102.964,85.777 102.083,86.159 101.443,86.195 L101.361,86.2 C100.373,86.254 99.672,85.931 99.257,85.23 C99.032,84.874 98.905,84.43 98.875,83.898 C98.793,82.427 99.183,81.083 100.044,79.866 C100.517,79.027 101.286,78.184 102.352,77.339 C103.167,76.754 103.729,76.415 104.038,76.322 C104.836,75.929 105.694,75.708 106.614,75.656 C107.321,75.718 107.678,75.801 107.684,75.903 L107.703,76.25 C107.674,76.341 107.588,76.39 107.445,76.398 L106.832,76.433 C105.813,76.551 104.803,76.925 103.799,77.555 C103.105,77.984 102.399,78.607 101.68,79.426 C100.454,80.971 99.877,82.383 99.948,83.664 L99.96,83.879 C100.167,84.886 100.574,85.372 101.18,85.338 C102.225,85.081 103.458,84.226 104.88,82.773 C106.42,80.986 107.544,79.516 108.251,78.362 C108.884,77.438 109.584,76.162 110.354,74.534 L113.307,68.127 C113.511,67.876 113.699,67.575 113.872,67.224 C113.976,67.13 114.102,67.078 114.252,67.07" id="Fill-28" fill="#D9222A"></path>
                <path d="M124.482,74.605 C125.082,74.572 125.752,74.695 126.491,74.975 C127.255,75.431 127.655,76 127.694,76.681 C127.728,76.679 127.767,76.824 127.811,77.115 L127.851,77.113 C128.783,76.295 129.793,75.607 130.882,75.047 C131.326,74.784 132.036,74.549 133.016,74.344 C133.922,74.293 134.635,74.404 135.156,74.676 C135.827,75.062 136.183,75.615 136.223,76.338 C136.295,77.639 135.665,79.003 134.33,80.43 C134.334,80.525 134.084,80.806 133.578,81.272 C132.49,82.358 131.543,83.148 130.737,83.645 C129.919,84.277 129.172,84.613 128.499,84.652 L128.273,84.664 C127.802,84.67 127.562,84.594 127.553,84.437 L127.539,84.172 C127.535,84.104 127.72,84.004 128.095,83.875 C128.919,83.439 129.76,82.89 130.617,82.227 C131.486,81.522 131.922,81.129 131.925,81.047 C132.636,80.44 133.358,79.617 134.092,78.578 C134.655,77.645 134.923,76.923 134.895,76.412 L134.882,76.187 C134.851,75.628 134.511,75.367 133.864,75.404 C132.427,75.484 130.709,76.424 128.712,78.223 C127.836,79.044 127.355,79.658 127.268,80.067 C127.011,80.717 126.489,81.706 125.702,83.034 L125.487,83.046 C125.004,83.073 124.622,82.845 124.342,82.362 L124.339,82.311 C124.302,81.651 124.955,80.435 126.298,78.666 C126.441,78.064 126.5,77.513 126.472,77.016 C126.436,76.355 126.13,75.914 125.559,75.694 C125.365,75.677 125.174,75.674 124.983,75.685 C124.33,75.721 123.461,76.02 122.378,76.578 C121.778,76.96 121.17,77.452 120.554,78.055 L119.48,79.395 C118.482,81.091 117.993,82.095 118.01,82.409 C117.919,82.618 117.792,82.728 117.628,82.737 L117.495,82.745 C117.284,82.756 117.088,82.665 116.906,82.47 L116.904,82.419 C116.841,81.295 117.453,79.83 118.738,78.022 C120.173,76.309 121.621,75.268 123.084,74.899 L124.482,74.605" id="Fill-29" fill="#D9222A"></path>
                <path d="M143.086,65.991 C143.944,65.943 144.574,66.4 144.977,67.361 C145.017,67.599 145.039,67.737 145.041,67.778 C145.086,68.588 144.67,69.201 143.791,69.611 C143.548,69.679 143.369,69.716 143.253,69.723 C142.409,69.771 141.797,69.343 141.419,68.441 C141.39,68.416 141.352,68.234 141.306,67.895 C141.264,67.146 141.651,66.564 142.469,66.149 C142.568,66.081 142.774,66.029 143.086,65.991 Z M139.382,73.814 L139.546,73.805 C139.853,73.787 140.015,73.95 140.034,74.29 C140.007,74.537 139.77,75.08 139.326,75.918 C137.979,78.48 137.332,80.423 137.386,81.746 L137.393,81.869 C137.428,82.495 137.774,82.94 138.431,83.205 C138.636,83.337 138.743,83.471 138.75,83.607 L138.77,83.944 C138.729,84.055 138.632,84.116 138.482,84.124 L137.941,84.154 C137.827,84.065 137.595,83.952 137.245,83.813 C136.606,83.372 136.264,82.746 136.218,81.935 L136.208,81.771 C136.135,80.462 136.754,78.522 138.065,75.947 C138.704,74.778 139.144,74.066 139.382,73.814 L139.382,73.814 Z" id="Fill-30" fill="#D9222A"></path>
                <g id="Group-34" transform="translate(139.000000, 71.000000)">
                    <mask id="mask-4" fill="white">
                        <use xlink:href="#path-3"></use>
                    </mask>
                    <g id="Clip-32"></g>
                    <path d="M9.061,2.4 L9.572,2.372 C9.913,2.353 10.405,2.482 11.049,2.761 C11.48,3.147 11.704,3.479 11.721,3.758 L11.738,4.085 C11.757,4.433 11.679,4.673 11.501,4.806 L11.164,4.825 C11.081,4.809 10.83,4.479 10.412,3.832 C10.04,3.531 9.733,3.378 9.495,3.371 L9.167,3.389 C8.806,3.409 8.344,3.575 7.78,3.886 C7.248,4.128 6.576,4.699 5.765,5.598 C4.561,7.033 3.614,8.636 2.928,10.41 L2.022,12.716 C1.896,12.907 1.701,13.011 1.434,13.025 L1.383,13.028 C0.886,13.056 0.629,12.931 0.614,12.651 L0.606,12.508 C1.553,9.64 2.46,7.648 3.327,6.534 C3.556,6.118 3.89,5.659 4.325,5.156 C5.218,4.115 6.115,3.378 7.021,2.945 C7.554,2.697 8.233,2.515 9.061,2.4" id="Fill-31" fill="#D9222A" mask="url(#mask-4)"></path>
                    <path d="M25.147,0.097 C26.462,0.023 27.361,0.469 27.846,1.433 C27.948,1.673 28.004,1.875 28.014,2.039 L28.054,2.774 C28.072,3.095 27.941,3.392 27.664,3.667 L27.585,3.723 L27.277,3.74 L27.181,3.653 L27.173,3.52 C27.163,3.323 27.167,3.148 27.185,2.997 C27.128,1.975 26.756,1.313 26.069,1.009 C25.807,0.962 25.618,0.942 25.502,0.948 C23.875,1.04 21.891,2.056 19.553,3.997 C18.545,5.024 17.642,6.035 16.843,7.029 C16.146,8.12 15.801,8.751 15.812,8.921 C15.389,9.683 15.192,10.333 15.223,10.871 C15.408,11.244 15.708,11.417 16.124,11.394 C16.924,11.274 17.903,10.84 19.064,10.093 C19.693,9.614 20.263,9.1 20.772,8.551 C21.787,7.272 22.405,6.349 22.626,5.783 C22.9,5.323 23.357,4.383 23.995,2.96 C24.161,2.862 24.291,2.81 24.387,2.805 C24.904,2.776 25.173,2.935 25.192,3.282 C25.21,3.603 24.784,4.546 23.916,6.112 C22.563,9.069 21.376,11.525 20.35,13.475 C18.955,16.02 18.04,17.643 17.608,18.343 C16.313,20.834 15.087,22.375 13.931,22.966 L13.409,22.996 C12.551,23.043 12.038,22.706 11.867,21.985 L11.833,21.372 C11.756,20.009 12.483,17.902 14.011,15.049 C14.859,13.723 15.522,13.048 15.999,13.021 L16.347,13.002 C16.517,12.992 16.668,13.069 16.8,13.232 L16.816,13.538 C16.827,13.703 16.62,13.918 16.198,14.189 C15.513,15.013 14.949,15.875 14.507,16.773 C14.168,17.312 13.854,17.982 13.564,18.784 L13.203,20.034 C13.057,20.583 12.996,21.095 13.022,21.572 C13.041,21.892 13.093,22.049 13.183,22.044 L13.264,22.04 C14.026,21.622 14.957,20.535 16.055,18.778 C16.052,18.724 16.372,18.153 17.015,17.064 C18.577,14.325 19.803,12.073 20.695,10.309 L20.694,10.268 L20.653,10.271 C20.134,10.777 19.275,11.291 18.074,11.808 C18.078,11.883 17.573,12.014 16.558,12.2 C15.244,12.274 14.425,11.927 14.101,11.159 C14.063,10.976 14.038,10.773 14.026,10.548 C13.963,9.424 14.829,7.729 16.622,5.463 C17.847,4.027 18.701,3.167 19.184,2.88 C19.859,2.242 20.826,1.589 22.087,0.925 C23.181,0.426 24.054,0.158 24.708,0.122 L25.147,0.097" id="Fill-33" fill="#D9222A" mask="url(#mask-4)"></path>
                </g>
                <path d="M173.4,71.963 C174.156,71.922 174.653,72.209 174.894,72.823 L174.914,73.201 C174.94,73.671 174.319,74.533 173.049,75.787 C171.802,76.936 170.644,77.54 169.574,77.6 L168.848,77.641 C168.447,77.663 168.137,77.509 167.921,77.18 L167.901,76.833 C167.899,76.791 167.955,76.734 168.065,76.659 L168.403,76.641 C168.519,76.634 168.708,76.65 168.97,76.691 C169.556,76.658 170.358,76.285 171.377,75.572 C172.894,74.23 173.641,73.337 173.616,72.895 L173.572,72.846 C171.776,73.104 169.925,74.092 168.019,75.811 C167.815,75.979 167.588,76.245 167.335,76.607 C167.227,76.635 166.884,77.098 166.307,77.999 C165.428,79.509 165.001,80.5 165.026,80.97 L164.98,81.055 C165.065,81.473 165.233,81.675 165.486,81.662 C166.501,81.598 168.202,80.738 170.59,79.08 L170.978,79.058 C171.088,79.087 171.15,79.21 171.163,79.428 L171.165,79.469 C171.19,79.911 170.184,80.737 168.146,81.944 C167.375,82.328 166.676,82.538 166.049,82.573 L165.926,82.581 C164.857,82.64 164.18,82.251 163.894,81.412 L163.829,80.986 C163.786,80.216 164.182,79.172 165.016,77.854 C166.293,75.631 168.162,73.917 170.624,72.713 C171.095,72.482 171.864,72.241 172.93,71.99 L173.4,71.963" id="Fill-35" fill="#D9222A"></path>
                <path d="M182.429,60.39 C182.722,60.373 182.94,60.552 183.084,60.927 C183.015,61.266 182.854,61.866 182.601,62.727 C182.607,62.857 182.206,63.73 181.394,65.347 C180.925,66.494 180.558,67.324 180.292,67.838 C179.861,69.023 179.598,69.697 179.504,69.86 C179.229,70.565 178.657,71.872 177.786,73.779 C177.463,74.61 177.209,75.188 177.021,75.513 C176.605,76.506 176.399,77.027 176.402,77.074 C179.049,74.317 180.989,72.903 182.222,72.834 C183.047,72.788 183.58,72.99 183.825,73.441 C183.891,73.635 183.923,73.748 183.925,73.774 C183.965,74.497 183.828,75.259 183.51,76.062 C183.135,77.184 182.612,78.337 181.939,79.522 C181.231,81.011 180.449,82.482 179.593,83.938 C179.075,84.569 178.721,84.889 178.531,84.899 L178.366,84.909 L178.238,84.792 C178.227,84.603 178.384,84.238 178.709,83.701 C178.792,83.47 178.962,83.101 179.222,82.596 C179.322,82.31 179.512,81.985 179.792,81.62 C179.788,81.532 179.922,81.248 180.196,80.768 C180.194,80.748 180.464,80.199 181.006,79.124 C182.26,76.499 182.868,74.844 182.83,74.163 L182.821,74 C182.809,73.782 182.734,73.677 182.599,73.684 C181.423,73.934 179.738,75.207 177.543,77.502 C176.69,78.508 175.822,79.666 174.939,80.979 C174.642,81.659 174.344,82.007 174.044,82.024 C174.023,82.025 173.942,82.043 173.801,82.079 C173.497,82.007 173.285,81.882 173.165,81.704 L173.154,81.489 C173.144,81.319 173.534,80.405 174.322,78.749 C174.602,77.749 175.435,75.728 176.823,72.685 L177.586,70.95 C177.585,70.937 177.67,70.727 177.839,70.322 C178.838,68.271 179.4,67.033 179.527,66.609 C180.116,65.278 180.583,64.288 180.929,63.641 L182.388,60.392 L182.429,60.39" id="Fill-36" fill="#D9222A"></path>
                <path d="M194.161,60.318 L194.242,60.314 C194.361,60.348 194.425,60.46 194.436,60.651 C194.471,61.278 194.129,62.138 193.412,63.229 C193.065,63.994 192.773,64.533 192.538,64.847 C192.456,65.083 192.34,65.336 192.191,65.605 L191.441,67.04 C191.444,67.095 191.225,67.571 190.783,68.471 L190.785,68.511 C191.243,68.514 191.578,68.508 191.789,68.497 C192.417,68.462 193.398,68.421 194.734,68.373 C194.915,68.424 195.007,68.478 195.01,68.532 L195.029,68.879 C195.053,69.315 194.099,69.587 192.164,69.696 L190.253,69.802 C190.093,69.886 189.924,70.23 189.748,70.835 C189.649,70.929 189.352,71.595 188.854,72.832 L188.36,74.08 C187.77,75.609 187.303,77.115 186.961,78.596 C186.812,79.076 186.694,79.619 186.612,80.225 C186.56,80.987 186.393,81.374 186.114,81.391 C186.115,81.424 185.974,81.459 185.689,81.496 C185.251,81.48 185.028,81.406 185.021,81.277 L185.013,81.144 C185.228,79.841 185.468,78.697 185.734,77.711 C186.25,75.714 187.236,73.107 188.688,69.889 C187.763,69.941 187.286,69.722 187.258,69.232 C187.231,69.233 187.214,69.176 187.208,69.061 C187.19,68.734 187.324,68.52 187.613,68.423 L187.951,68.404 C188.074,68.547 188.412,68.603 188.964,68.572 L189.23,68.558 C189.366,68.435 189.719,67.762 190.286,66.541 C190.684,65.848 190.881,65.445 190.874,65.33 C190.991,65.213 191.227,64.793 191.583,64.07 C192.343,62.757 193.061,61.599 193.736,60.598 C193.903,60.418 194.045,60.324 194.161,60.318" id="Fill-37" fill="#D9222A"></path>
                <path d="M198.846,68.955 C198.295,69.623 197.679,69.975 196.995,70.014 C196.945,70 196.917,69.936 196.912,69.822 C197.224,69.576 197.475,69.261 197.667,68.875 C198.003,68.186 198.156,67.565 198.125,67.012 C198.615,66.723 199.039,66.569 199.396,66.549 C199.544,66.541 199.623,66.659 199.638,66.903 C199.676,67.586 199.411,68.271 198.846,68.955" id="Fill-38" fill="#D9222A"></path>
                <path d="M204.329,70.277 L204.983,70.24 C206.484,70.307 207.759,70.501 208.809,70.825 C209.499,71.073 209.874,71.258 209.936,71.377 L209.953,71.684 L209.866,71.781 L209.212,71.817 C207.89,71.509 206.486,71.338 205.002,71.305 C203.285,71.401 202.038,71.939 201.258,72.918 C201.182,73.134 201.145,73.27 201.148,73.324 L201.155,73.457 C201.43,73.845 201.785,74.16 202.223,74.402 C204.086,75.103 205.207,75.705 205.584,76.202 C205.678,76.314 205.807,76.555 205.972,76.929 L205.974,76.97 C206.033,78.026 205.621,78.769 204.735,79.201 C203.556,80.087 202.172,80.574 200.585,80.664 C199.012,80.752 197.852,80.201 197.109,79.013 C197.105,78.924 197.066,78.779 196.994,78.579 L196.939,77.608 C196.913,77.145 197.353,76.577 198.259,75.905 C198.98,75.509 199.526,75.301 199.895,75.279 L200.282,75.258 C200.882,75.225 201.521,75.367 202.203,75.684 C202.544,75.932 202.722,76.171 202.734,76.402 C202.683,76.583 202.568,76.679 202.392,76.689 C202.269,76.696 201.705,76.566 200.699,76.301 C199.909,76.345 199.127,76.786 198.355,77.621 C198.357,77.689 198.292,77.84 198.154,78.073 L198.182,78.553 C198.215,79.166 198.867,79.526 200.137,79.633 L200.27,79.625 C201.421,79.562 202.671,79.051 204.017,78.094 C204.495,77.698 204.75,77.331 204.787,76.995 L204.784,76.954 C204.685,76.64 204.166,76.271 203.226,75.853 C202.56,75.657 201.806,75.3 200.963,74.78 C200.281,74.08 199.933,73.587 199.917,73.301 L199.898,72.953 C199.851,72.115 200.34,71.469 201.367,71.016 C202.299,70.581 203.287,70.335 204.329,70.277" id="Fill-39" fill="#D9222A"></path>
                <path d="M223.521,67.78 C224.836,67.705 225.735,68.151 226.22,69.115 C226.321,69.355 226.377,69.556 226.387,69.72 L226.428,70.456 C226.445,70.776 226.316,71.073 226.037,71.349 L225.958,71.405 L225.651,71.422 L225.554,71.335 L225.546,71.202 C225.536,71.004 225.54,70.83 225.559,70.678 C225.501,69.657 225.13,68.995 224.442,68.691 C224.181,68.643 223.992,68.624 223.875,68.63 C222.248,68.721 220.264,69.737 217.926,71.679 C216.919,72.706 216.015,73.716 215.217,74.711 C214.519,75.802 214.175,76.433 214.184,76.603 C213.762,77.365 213.566,78.015 213.597,78.553 C213.782,78.925 214.082,79.1 214.497,79.076 C215.296,78.956 216.277,78.522 217.438,77.774 C218.066,77.295 218.636,76.782 219.145,76.233 C220.161,74.954 220.779,74.031 221,73.465 C221.274,73.006 221.73,72.064 222.368,70.642 C222.534,70.544 222.665,70.492 222.759,70.487 C223.277,70.458 223.546,70.617 223.566,70.964 C223.584,71.284 223.158,72.227 222.289,73.793 C220.937,76.751 219.748,79.206 218.724,81.157 C217.328,83.701 216.414,85.324 215.982,86.024 C214.686,88.517 213.46,90.057 212.305,90.648 L211.784,90.677 C210.925,90.725 210.411,90.388 210.24,89.667 L210.207,89.054 C210.129,87.691 210.857,85.583 212.385,82.73 C213.233,81.405 213.896,80.73 214.374,80.703 L214.72,80.684 C214.89,80.674 215.042,80.75 215.173,80.914 L215.19,81.221 C215.2,81.384 214.993,81.6 214.571,81.87 C213.886,82.694 213.323,83.556 212.88,84.455 C212.542,84.994 212.227,85.663 211.937,86.465 L211.577,87.716 C211.43,88.265 211.368,88.777 211.396,89.254 C211.415,89.573 211.467,89.731 211.555,89.726 L211.638,89.721 C212.4,89.303 213.33,88.216 214.428,86.46 C214.426,86.405 214.744,85.834 215.389,84.746 C216.949,82.007 218.177,79.755 219.068,77.991 L219.066,77.95 L219.025,77.952 C218.507,78.46 217.648,78.972 216.447,79.49 C216.451,79.565 215.947,79.696 214.931,79.882 C213.617,79.956 212.797,79.608 212.475,78.841 C212.437,78.659 212.412,78.455 212.4,78.23 C212.336,77.106 213.203,75.411 214.996,73.146 C216.22,71.71 217.074,70.849 217.557,70.562 C218.232,69.923 219.199,69.271 220.461,68.606 C221.554,68.107 222.427,67.84 223.081,67.804 L223.521,67.78" id="Fill-40" fill="#D9222A"></path>
                <path d="M228.264,68.846 L228.612,68.827 C228.81,68.816 228.916,68.937 228.929,69.189 L228.943,69.444 C228.502,70.118 228.106,70.663 227.753,71.078 C227.205,71.896 226.572,72.98 225.854,74.332 L225.318,75.376 C224.976,76.215 224.806,76.666 224.81,76.727 C224.697,77.279 224.645,77.621 224.652,77.75 C224.666,77.989 224.802,78.179 225.062,78.322 C225.561,78.164 226.213,77.704 227.025,76.941 C228.545,75.154 229.851,73.438 230.94,71.792 C231.823,70.465 232.287,69.691 232.338,69.47 C232.367,69.27 232.417,69.168 232.484,69.164 L233.374,69.114 C233.577,69.192 233.682,69.313 233.692,69.476 L233.702,69.69 C233.709,69.786 233.609,70.031 233.406,70.425 C233.41,70.493 233.28,70.924 233.017,71.717 C233.023,71.826 232.903,72.26 232.66,73.018 C232.34,74.41 232.187,75.194 232.196,75.372 L232.12,75.468 L232.128,75.631 C231.994,76.76 231.933,77.443 231.945,77.681 L231.965,78.018 C231.969,78.107 231.847,78.185 231.599,78.254 L231.302,78.271 C230.907,78.292 230.702,78.161 230.687,77.874 C230.659,77.391 230.849,75.982 231.259,73.65 C231.361,73.508 231.408,73.362 231.399,73.212 C231.337,73.215 231.246,73.347 231.124,73.606 C230.756,73.983 230.493,74.352 230.335,74.717 C230.282,74.72 229.831,75.281 228.982,76.401 C228.956,76.402 228.56,76.866 227.791,77.79 C226.837,78.718 225.958,79.204 225.156,79.25 L224.952,79.261 C224.091,79.158 223.649,78.872 223.621,78.403 C223.594,78.384 223.552,78.13 223.498,77.64 C223.45,76.776 223.911,75.448 224.885,73.657 L225.812,71.915 L227.021,70.064 C227.055,70.063 227.241,69.854 227.58,69.439 C227.866,69.053 228.094,68.856 228.264,68.846" id="Fill-41" fill="#D9222A"></path>
                <path d="M244.215,57.521 L244.298,57.516 C244.415,57.55 244.48,57.664 244.49,57.854 C244.526,58.481 244.184,59.339 243.466,60.433 C243.119,61.197 242.829,61.735 242.593,62.049 C242.51,62.287 242.395,62.539 242.245,62.807 L241.496,64.243 C241.5,64.297 241.281,64.774 240.838,65.673 L240.84,65.714 C241.297,65.716 241.632,65.711 241.845,65.699 C242.472,65.664 243.453,65.624 244.789,65.576 C244.969,65.627 245.061,65.68 245.065,65.734 L245.083,66.082 C245.108,66.518 244.152,66.79 242.218,66.898 L240.308,67.004 C240.148,67.089 239.979,67.433 239.801,68.037 C239.705,68.131 239.406,68.798 238.909,70.035 L238.414,71.282 C237.824,72.812 237.357,74.317 237.017,75.798 C236.866,76.278 236.75,76.822 236.667,77.427 C236.615,78.189 236.448,78.577 236.168,78.593 C236.17,78.626 236.029,78.662 235.745,78.698 C235.306,78.682 235.083,78.609 235.076,78.48 L235.068,78.347 C235.283,77.043 235.523,75.899 235.789,74.914 C236.305,72.917 237.292,70.31 238.744,67.092 C237.819,67.144 237.34,66.925 237.314,66.435 C237.287,66.436 237.269,66.379 237.263,66.263 C237.244,65.936 237.38,65.723 237.669,65.625 L238.006,65.606 C238.13,65.75 238.467,65.806 239.019,65.775 L239.285,65.76 C239.422,65.637 239.774,64.965 240.341,63.743 C240.739,63.051 240.935,62.648 240.929,62.532 C241.045,62.416 241.282,61.997 241.638,61.273 C242.398,59.959 243.115,58.802 243.791,57.8 C243.958,57.62 244.1,57.528 244.215,57.521" id="Fill-42" fill="#D9222A"></path>
                <path d="M251.229,65.588 C249.896,67.847 248.512,70.31 247.08,72.976 L246.435,72.79 C246.49,72.702 246.546,72.598 246.599,72.48 C246.651,72.362 246.712,72.23 246.779,72.085 L252.769,59.408 C252.837,59.361 253.126,59.251 253.637,59.075 C254.206,58.89 254.51,58.8 254.549,58.808 C254.795,58.856 254.973,58.912 255.08,58.971 L255.087,59.165 L255.127,59.336 C253.863,61.244 252.564,63.328 251.229,65.588 Z M245.905,76.245 C245.661,77.483 244.815,77.959 243.369,77.675 C243.334,77.549 243.323,77.458 243.334,77.402 C243.622,77.142 243.876,76.599 244.099,75.771 C244.364,75.824 244.652,75.801 244.957,75.703 C245.263,75.605 245.54,75.58 245.786,75.628 C245.939,75.658 245.979,75.864 245.905,76.245 L245.905,76.245 Z" id="Fill-43" fill="#D9222A"></path>
            </g>
        </g>
    </g>
</svg>