<svg width="40" height="29" viewBox="0 0 40 29" xmlns="http://www.w3.org/2000/svg"><title>Youtube-color</title><path d="M15.87 19.428l-.001-11.34 10.807 5.69-10.806 5.65zM39.6 6.123s-.391-2.78-1.59-4.005C36.489.51 34.784.502 34.003.408 28.405 0 20.009 0 20.009 0h-.018S11.595 0 5.998.409c-.783.093-2.487.1-4.01 1.709C.79 3.342.4 6.123.4 6.123S0 9.39 0 12.655v3.063c0 3.266.4 6.532.4 6.532s.39 2.78 1.589 4.006C3.51 27.864 5.51 27.813 6.4 27.98c3.2.31 13.6.406 13.6.406s8.405-.013 14.003-.421c.78-.095 2.486-.102 4.007-1.71 1.199-1.225 1.59-4.006 1.59-4.006s.4-3.266.4-6.532v-3.063c0-3.265-.4-6.532-.4-6.532z" fill="#FFF" fill-rule="evenodd"/></svg>