<svg width="82" height="70" viewBox="0 0 82 70" xmlns="http://www.w3.org/2000/svg"><title>Group</title><g fill="#707376"><path d="M69.106 22.577C68.393 10.407 58.348.68 46.238.68c-7.351 0-14.47 3.6-18.88 9.475-.1-.052-.208-.087-.31-.137a11.68 11.68 0 0 0-.818-.364c-.156-.061-.312-.116-.469-.172a12.15 12.15 0 0 0-.832-.257c-.157-.042-.313-.085-.473-.121a12.115 12.115 0 0 0-.924-.168c-.138-.02-.274-.047-.413-.064-.447-.048-.902-.08-1.364-.08-6.717 0-12.184 5.459-12.184 12.17 0 .174.01.344.021.514-5.63 3.066-9.498 9.49-9.498 15.919 0 9.576 7.8 17.368 17.39 17.368h6.979a1.353 1.353 0 1 0 0-2.704h-6.979c-8.096 0-14.682-6.578-14.682-14.664 0-5.617 3.662-11.447 8.707-13.863l.77-.367v-.852c0-.166.01-.336.02-.507l.012-.236-.016-.254c-.007-.118-.017-.236-.017-.355 0-5.217 4.252-9.464 9.477-9.464a9.482 9.482 0 0 1 1.556.139c.363.06.72.138 1.072.24.046.013.094.02.138.034a9.348 9.348 0 0 1 1.412.57c.328.16.649.34.957.54 2.61 1.688 4.342 4.614 4.342 7.941 0 .748.607 1.352 1.354 1.352.747 0 1.354-.604 1.354-1.352 0-3.723-1.687-7.056-4.332-9.29 3.88-5.07 10.273-8.287 16.63-8.287 10.484 0 19.195 8.295 20.102 18.777-1.383-.098-3.456-.148-5.528.169a1.352 1.352 0 1 0 .408 2.673c3.01-.455 6.15-.029 6.341-.003 6.304 1.197 11.056 6.996 11.056 13.5 0 7.476-6.091 13.56-13.576 13.56h-5.378a1.353 1.353 0 1 0 0 2.703h5.378c8.978 0 16.284-7.295 16.284-16.262 0-7.422-5.182-14.078-12.219-15.925z"/><path d="M43.022 36.233a1.357 1.357 0 0 0-1.917 0l-10.83 10.815a1.351 1.351 0 1 0 1.914 1.912l8.52-8.509v27.834c0 .748.607 1.352 1.354 1.352.747 0 1.354-.604 1.354-1.352V40.451l8.52 8.509a1.351 1.351 0 0 0 1.914 0 1.35 1.35 0 0 0 0-1.912l-10.83-10.815z"/></g></svg>