<svg width="17" height="34" viewBox="0 0 17 34" xmlns="http://www.w3.org/2000/svg"><title>Page 1</title><path d="M14.725 15.583l.347-2.833H9.7V7.969c0-1.18.26-2.066.78-2.657.635-.708 1.703-1.062 3.205-1.062h1.559V1.417H11.78c-2.542 0-4.274.53-5.197 1.593-.867.945-1.299 2.45-1.299 4.516v5.224H1.386v2.833h3.898v17h4.417v-17h5.024zm-3.638-4.25h5.543L15.938 17h-4.851v17H3.898V17H0v-5.667h3.898V7.526c0-2.479.606-4.353 1.818-5.622C6.93.634 8.95 0 11.78 0h4.85v5.667h-2.944c-1.098 0-1.806.176-2.122.53-.319.355-.477.946-.477 1.772v3.364z" fill="#707376" fill-rule="evenodd" opacity=".9"/></svg>