<svg width="33" height="33" viewBox="0 0 33 33" xmlns="http://www.w3.org/2000/svg" xmlns:xlink="http://www.w3.org/1999/xlink"><title>Page 1</title><defs><path id="a" d="M0 .411v1.456h5.149V.41H0z"/></defs><g fill="none" fill-rule="evenodd"><path d="M27.12 30.777H4.964v-5.803H27.12v5.803zM14.972 8.093h2.11c4.363 0 7.928 3.57 7.928 7.934v7.892H7.073v-7.892c0-4.364 3.534-7.934 7.9-7.934zm12.66 15.826h-1.567v-7.892c0-4.946-4.039-8.99-8.984-8.99h-2.109c-4.946 0-8.954 4.044-8.954 8.99v7.892H4.421c-.292 0-.513.257-.513.548v6.858c0 .292.221.507.513.507h23.211c.292 0 .543-.215.543-.507v-6.858a.559.559 0 0 0-.543-.548z" fill="#717171"/><path d="M7.273 23.719H24.81v-7.692c0-4.265-3.467-7.734-7.728-7.734h-2.11c-4.245 0-7.698 3.469-7.698 7.734v7.692zm17.937.4H6.873v-8.092c0-4.485 3.632-8.134 8.098-8.134h2.11c4.482 0 8.13 3.649 8.13 8.134v8.092zM5.164 30.577H26.92v-5.402H5.164v5.402zm-.4.4H27.32v-6.203H4.763v6.203zm-.344-6.858c-.172 0-.312.156-.312.348v6.858c0 .18.128.307.312.307h23.211c.193 0 .343-.135.343-.307v-6.858a.359.359 0 0 0-.343-.348h-1.766v-8.092c0-4.847-3.94-8.79-8.784-8.79h-2.11c-4.826 0-8.753 3.943-8.753 8.79v8.092H4.42zm23.211 7.913H4.421a.694.694 0 0 1-.713-.707v-6.858c0-.413.32-.748.712-.748h1.398v-7.692c0-5.067 4.106-9.19 9.153-9.19h2.11c5.064 0 9.184 4.123 9.184 9.19v7.692h1.366c.403 0 .744.343.744.748v6.858c0 .39-.333.707-.744.707zM16.042.2a.526.526 0 0 0-.527.527v4.748a.527.527 0 1 0 1.054 0V.727A.527.527 0 0 0 16.042.2" fill="#717171"/><path d="M16.042.4a.326.326 0 0 0-.327.327v4.748a.326.326 0 1 0 .654 0V.727A.326.326 0 0 0 16.042.4m0 5.803a.73.73 0 0 1-.728-.728V.727a.729.729 0 0 1 1.456 0v4.748a.73.73 0 0 1-.728.728M6.654 8.018L4.265 5.63a.529.529 0 0 0-.746.747l2.39 2.389a.525.525 0 1 0 .745-.746" fill="#717171"/><path d="M3.893 5.676a.327.327 0 0 0-.231.559L6.05 8.623c.12.124.337.124.463 0a.322.322 0 0 0 .095-.231.321.321 0 0 0-.096-.232l-2.39-2.388a.321.321 0 0 0-.23-.096m2.389 3.443a.716.716 0 0 1-.515-.214l-2.39-2.387a.73.73 0 0 1 0-1.03.746.746 0 0 1 1.03 0l2.389 2.389c.138.138.213.32.213.515a.72.72 0 0 1-.213.514.723.723 0 0 1-.514.213M28.283 5.63a.526.526 0 0 0-.745 0L25.15 8.019a.528.528 0 0 0 .746.746l2.388-2.388a.527.527 0 0 0 0-.747" fill="#717171"/><path d="M27.911 5.676a.321.321 0 0 0-.23.096L25.29 8.16a.321.321 0 0 0-.096.232c0 .087.033.17.096.23a.337.337 0 0 0 .464 0l2.386-2.387a.321.321 0 0 0 .097-.231.322.322 0 0 0-.097-.232.32.32 0 0 0-.23-.096m-2.389 3.443a.716.716 0 0 1-.514-.213.72.72 0 0 1-.213-.514c0-.195.075-.377.213-.515l2.388-2.388a.746.746 0 0 1 1.03 0 .725.725 0 0 1-.002 1.029l-2.387 2.388a.725.725 0 0 1-.515.213M4.42 18.643H.729a.528.528 0 1 0 0 1.055H4.42a.527.527 0 0 0 0-1.055" fill="#717171"/><g transform="translate(0 18.032)"><mask id="b" fill="#fff"><use xlink:href="#a"/></mask><path d="M.728.811a.327.327 0 1 0 0 .655H4.42a.328.328 0 0 0 0-.654H.728zM4.42 1.868H.728a.729.729 0 0 1 0-1.456H4.42a.728.728 0 1 1 0 1.456z" fill="#717171" mask="url(#b)"/></g><path d="M31.325 18.643h-3.693a.528.528 0 1 0 0 1.055h3.693a.527.527 0 0 0 0-1.055" fill="#717171"/><path d="M27.632 18.844a.327.327 0 1 0 0 .655h3.693a.328.328 0 0 0 0-.655h-3.693zm3.693 1.055h-3.693a.729.729 0 0 1 0-1.455h3.693a.728.728 0 1 1 0 1.455z" fill="#717171"/></g></svg>