<svg width="42" height="27" viewBox="0 0 42 27" xmlns="http://www.w3.org/2000/svg"><title>GooglePlus-black</title><path d="M37.377 11.094V6.416h-3.302v4.678h-4.754v3.342h4.754v4.812h3.302v-4.812H42v-3.342h-4.623zm-24.037-.267v5.346s5.125-.007 7.211-.007c-1.13 3.466-2.887 5.354-7.211 5.354-4.377 0-7.793-3.59-7.793-8.02s3.416-8.02 7.793-8.02c2.314 0 3.808.823 5.179 1.97 1.097-1.11 1.005-1.268 3.797-3.936A13.204 13.204 0 0 0 13.34 0C5.972 0 0 6.044 0 13.5S5.972 27 13.34 27c11.012 0 13.703-9.704 12.81-16.173H13.34z" fill="#FFF" fill-rule="evenodd"/></svg>