<svg width="32" height="32" viewBox="0 0 32 32" xmlns="http://www.w3.org/2000/svg"><title>Fill 2</title><path d="M29.243 28.272c.783-1.09 1.144-1.863 1.085-2.317-.06-.455-.393-.985-.995-1.592-.663-.727-1.687-1.5-3.074-2.318-1.387-.818-2.531-1.227-3.435-1.227A1.61 1.61 0 0 0 22.1 21c-1.748 1.09-2.863 1.636-3.346 1.636-.482 0-1.175-.393-2.079-1.182h-.09c-1.085-.909-1.99-1.787-2.713-2.636l-.18-.182c-.06-.06-.182-.15-.362-.272-.18-.183-.995-1.092-2.441-2.728v-.09c-1.026-1.152-1.568-2-1.628-2.546-.06-.728.421-1.757 1.447-3.091 1.025-1.333.09-3.728-2.803-7.182l-.09-.091c-.603-.727-1.266-1.09-1.99-1.09-.483 0-1.175.272-2.08.818l-.18.09c-.964.607-1.598 1.334-1.899 2.182-.602 1.818-.09 4.213 1.537 7.182 1.93 3.576 4.22 6.727 6.872 9.455 1.868 1.94 4.16 3.88 6.871 5.818 3.195 2.303 5.726 3.454 7.595 3.454 1.086 0 1.929-.12 2.531-.363.603-.242 1.326-.879 2.17-1.91m1.086-5c1.808 1.818 1.808 3.819 0 6-.723.85-1.432 1.486-2.125 1.91-.693.425-1.266.667-1.718.726-.452.063-1.1.092-1.944.092-2.35 0-5.153-1.212-8.408-3.637a53.227 53.227 0 0 1-7.053-6.09c-2.712-2.848-5.094-6.091-7.143-9.727C.13 9.152-.413 6.364.31 4.18c.362-1.15 1.205-2.15 2.532-3l.09-.09C4.017.363 4.98 0 5.825 0 6.97 0 7.995.545 8.9 1.636l.09.09C10.376 3.547 11.34 4.97 11.883 6c.904 1.88.874 3.485-.09 4.818-.724.97-1.085 1.667-1.085 2.09 0 .183.391.728 1.175 1.637l.09.091c1.447 1.636 2.23 2.516 2.351 2.636.06 0 .12.031.18.091l.182.182.18.182c1.207 1.213 2.08 2.061 2.623 2.545l.09.092c.543.485.905.727 1.085.727.302 0 1.175-.455 2.622-1.364.421-.302.934-.455 1.538-.455 1.084 0 2.395.455 3.932 1.364 1.538.91 2.727 1.789 3.572 2.637" fill="#707376" fill-rule="evenodd"/></svg>