<svg width="35" height="34" viewBox="0 0 35 34" xmlns="http://www.w3.org/2000/svg"><title>Fill 1</title><path d="M17.5 17V6.538h1.39V18.39H9.653V17H17.5zM6.467 28.033c3.05 3.052 6.728 4.578 11.033 4.578 4.304 0 7.981-1.526 11.033-4.578 3.052-3.05 4.578-6.728 4.578-11.033 0-4.304-1.526-7.981-4.578-11.033-3.052-3.051-6.73-4.578-11.033-4.578-4.305 0-7.983 1.527-11.033 4.578C3.415 9.019 1.889 12.697 1.889 17c0 4.305 1.526 7.983 4.578 11.033zM5.485 4.985C8.81 1.663 12.813 0 17.5 0c4.685 0 8.69 1.663 12.015 4.985C32.837 8.31 34.5 12.315 34.5 17c0 4.687-1.663 8.691-4.985 12.015C26.19 32.339 22.185 34 17.5 34c-4.687 0-8.691-1.661-12.015-4.985C2.161 25.69.5 21.687.5 17c0-4.685 1.661-8.69 4.985-12.015z" fill="#707376" fill-rule="evenodd"/></svg>