<svg width="28" height="26" viewBox="0 0 28 26" xmlns="http://www.w3.org/2000/svg"><title>Fill 1</title><path d="M4.083 16.86c1.896 1.76 4.23 2.64 7 2.64 2.722 0 5.056-.902 7-2.708 1.944-1.805 2.916-3.972 2.916-6.5 0-2.527-.972-4.694-2.916-6.5-1.944-1.805-4.278-2.709-7-2.709-2.723 0-5.056.904-7 2.709-1.944 1.806-2.916 3.973-2.916 6.5 0 2.573.972 4.763 2.916 6.568zM28 24.443L26.322 26l-8.239-7.65c-1.994 1.489-4.327 2.233-7 2.233-3.063 0-5.676-1.003-7.839-3.013C1.081 15.562 0 13.136 0 10.292c0-2.844 1.081-5.27 3.244-7.279C5.407 1.005 8.02 0 11.083 0c3.063 0 5.675 1.005 7.839 3.013 2.162 2.01 3.244 4.435 3.244 7.279 0 2.438-.802 4.582-2.406 6.432L28 24.443z" fill="#707376" fill-rule="evenodd"/></svg>