<svg width="32" height="32" viewBox="0 0 32 32" xmlns="http://www.w3.org/2000/svg"><title>Page 1</title><path d="M10.667 24.666h16v-1.333h-16v1.333zm0-7.999h16v-1.333h-16v1.333zm0-8h16V7.332h-16v1.333zm-4 16.666c-.89 0-1.334-.444-1.334-1.333 0-.888.445-1.333 1.334-1.333C7.555 22.667 8 23.112 8 24c0 .889-.445 1.333-1.333 1.333zm0-8c-.89 0-1.334-.444-1.334-1.333 0-.888.445-1.333 1.334-1.333C7.555 14.667 8 15.112 8 16c0 .889-.445 1.333-1.333 1.333zm0-8c-.89 0-1.334-.444-1.334-1.333 0-.888.445-1.333 1.334-1.333C7.555 6.667 8 7.112 8 8c0 .889-.445 1.333-1.333 1.333zM1.333 30.667h29.334V1.333H1.333v29.334zM0 32h32V0H0v32z" fill="#707376" fill-rule="evenodd"/></svg>