<svg width="34" height="34" viewBox="0 0 34 34" xmlns="http://www.w3.org/2000/svg"><title>Group 2</title><g fill="#707376"><path d="M17 0C7.626 0 0 7.626 0 17c0 3.198.889 6.302 2.574 8.998-.671 2.353-1.884 6.803-1.897 6.85a.652.652 0 0 0 .823.796l6.738-2.073A16.958 16.958 0 0 0 17 34c9.374 0 17-7.626 17-17 0-9.374-7.626-17-17-17zm0 32.692c-2.955 0-5.833-.826-8.324-2.387a.654.654 0 0 0-.54-.07l-5.883 1.81c.432-1.577 1.208-4.4 1.659-5.969a.656.656 0 0 0-.08-.537A15.632 15.632 0 0 1 1.308 17C1.308 8.348 8.348 1.308 17 1.308c8.652 0 15.692 7.04 15.692 15.692 0 8.652-7.04 15.692-15.692 15.692z"/><path d="M26.921 20.55a41.89 41.89 0 0 1-2.658-1.632c-.51-.333-.879-.574-1.15-.71-.754-.376-1.327-.11-1.545.11a.582.582 0 0 0-.072.088c-.785 1.177-1.81 2.303-2.11 2.364-.346-.054-1.968-.976-3.58-2.319-1.645-1.371-2.68-2.684-2.833-3.579 1.056-1.087 1.436-1.77 1.436-2.548 0-.802-1.87-4.15-2.209-4.489-.34-.339-1.104-.392-2.273-.159a.588.588 0 0 0-.297.16c-.142.14-3.453 3.517-1.88 7.609 1.728 4.49 6.161 9.71 11.814 10.558.642.096 1.244.144 1.808.144 3.325 0 5.288-1.673 5.84-4.992a.58.58 0 0 0-.29-.605zm-7.184 4.3c-5.978-.895-9.743-6.817-10.9-9.824-1.146-2.981.97-5.64 1.5-6.24.433-.074.887-.105 1.077-.075.397.551 1.77 3.146 1.83 3.613 0 .305-.099.731-1.285 1.917a.58.58 0 0 0-.17.412c0 3.05 6.431 7.28 7.57 7.28.991 0 2.283-1.665 3.018-2.75a.552.552 0 0 1 .216.067c.21.106.573.343 1.033.643.607.397 1.413.923 2.364 1.469-.432 2.079-1.64 4.182-6.253 3.489z"/></g></svg>