<svg width="73" height="73" viewBox="0 0 73 73" xmlns="http://www.w3.org/2000/svg"><title>Fill 2</title><path d="M66.71 64.497c1.787-2.489 2.61-4.251 2.475-5.288-.138-1.037-.896-2.246-2.269-3.63-1.514-1.66-3.85-3.422-7.012-5.288-3.165-1.867-5.775-2.8-7.838-2.8-.55 0-1.102.14-1.65.415-3.989 2.488-6.532 3.732-7.632 3.732-1.102 0-2.68-.895-4.744-2.695h-.206c-2.474-2.074-4.537-4.078-6.188-6.015l-.412-.415c-.137-.136-.414-.343-.825-.62-.412-.417-2.27-2.49-5.57-6.223v-.207c-2.338-2.626-3.576-4.562-3.711-5.806-.14-1.66.959-4.009 3.3-7.053 2.337-3.04.206-8.503-6.394-16.384l-.206-.207c-1.377-1.658-2.889-2.488-4.54-2.488-1.101 0-2.68.621-4.743 1.867l-.412.207c-2.2 1.384-3.645 3.042-4.331 4.977-1.375 4.148-.206 9.61 3.506 16.384 4.4 8.158 9.624 15.346 15.675 21.569 4.261 4.426 9.488 8.85 15.675 13.272 7.289 5.255 13.063 7.88 17.326 7.88 2.477 0 4.4-.275 5.775-.83 1.375-.551 3.024-2.002 4.951-4.354m2.475-11.406c4.125 4.146 4.125 8.71 0 13.687-1.65 1.938-3.267 3.389-4.848 4.355-1.58.97-2.886 1.522-3.917 1.658-1.032.142-2.51.209-4.436.209-5.363 0-11.755-2.764-19.181-8.296-5.914-4.285-11.275-8.918-16.089-13.894-6.186-6.497-11.62-13.896-16.295-22.19C.296 20.879-.943 14.517.707 9.539c.826-2.625 2.75-4.906 5.775-6.844l.206-.207C9.165.828 11.363 0 13.288 0c2.612 0 4.952 1.244 7.014 3.732l.206.207c3.163 4.149 5.363 7.4 6.6 9.748 2.063 4.288 1.993 7.951-.205 10.991-1.651 2.214-2.475 3.804-2.475 4.77 0 .416.892 1.66 2.68 3.734l.206.207c3.3 3.732 5.087 5.739 5.363 6.013.136 0 .275.071.412.207.137.142.277.28.414.416l.412.414c2.75 2.768 4.743 4.702 5.982 5.807l.206.209c1.237 1.107 2.063 1.658 2.475 1.658.688 0 2.68-1.037 5.98-3.111.961-.689 2.132-1.037 3.508-1.037 2.475 0 5.465 1.037 8.971 3.11 3.508 2.075 6.222 4.082 8.148 6.016" fill="#FFF" fill-rule="evenodd"/></svg>