<svg width="201" height="58" viewBox="0 0 201 58" xmlns="http://www.w3.org/2000/svg"><title>Logo_Klindwort-Apo_Pfade_graurot</title><g fill="#FFF" fill-rule="evenodd"><path d="M179.983 21.173h-.088l.099-.111.066.046-.036-.02.036.02v.001l-.024.043-.011.02h-.042"/><path d="M189.222 11.088h2.994V7.395l-2.994-2.099v5.792zm-.942-.845v-.193l.12.097.025.216-.145-.12zm-1.69 5.116a.413.413 0 0 1 .168.313c0 .096-.097.193-.168.24v-.553zm-.604 1.326c-.145.073-.266.193-.508.386a1.62 1.62 0 0 1 .508-.65v.264zm1.472 1.11a1.743 1.743 0 0 0-1.134-.434c-.459 0-.846.169-1.135.435h2.27zm-2.535.58h2.85v-.29h-2.85v.29zm1.667-2.196c.193-.072.386-.338.386-.555 0-.242-.362-.58-.677-.797-.844-.506-1.328-.99-1.448-1.375l.434.145c.17.458 1.207 1.013 1.667 1.496.193.217.266.338.266.53 0 .29-.242.628-.628.846v-.29zm-2.343-4.657c.313-2.196 1.618-2.606 2.294-2.606.507 0 1.063.168 1.231.651-.482-.314-.748-.434-1.231-.434-1.063 0-1.884 1.014-2.052 2.39h-.242zm1.739 4.585c-.628.433-.822.868-.725 1.375.17-.17.387-.387.725-.556v.29h.169V15.02l.266.193v2.003h.169v-.483c.482-.264.893-.748.893-1.085 0-.41-.218-.748-.893-1.23v-.58h-.17v.459l-.265-.193v-.266h-.17v.145c-.096-.048-.217-.169-.337-.337.217.047.386.047.676.047a5.76 5.76 0 0 0 4.008-1.593h-8.017a5.35 5.35 0 0 0 2.174 1.28c.265.603.869 1.11 1.497 1.496v1.23zM182 11.81h8.67v-.289h-5.893c.024-.99.748-2.123 1.763-2.123.628 0 .966.216 1.352 1.012.145.29.266.435.387.628l.048-.048-.217-.7.531.58c-.049-1.328-.797-2.197-2.15-2.197-1.617 0-2.342 1.521-2.535 2.848H182v.29zm.458 5.573l1.112.508v-1.159h-2.729v-5.645h2.729V4.089l7.776-3.86 6.375 4.464v12.475l2.946 2.027-3.622 5.164-4.83-3.379v-4.247h-2.994v4.079l-4.637 3.547-7.052-3.21 4.926-3.765zM8.484 47.782c-1.024-3.747-1.537-5.77-1.537-6.067H6.86c-.019.2-.986 2.223-2.899 6.067h4.524zm2.977 5.366H9.526c0-.629-.25-1.993-.75-4.093H3.445a61.37 61.37 0 0 0-.75 1.672c-.506 1.2-.782 2.006-.827 2.42H0c.033-.187 1.054-2.261 3.065-6.22 1.985-3.93 2.997-6.074 3.035-6.437h2.141c0 .584.537 2.7 1.61 6.348 1.074 3.65 1.61 5.752 1.61 6.31zm9.108-5.201c0-1.996-.704-2.994-2.112-2.994-.7 0-1.388.443-2.063 1.331-.674.888-1.063 1.925-1.167 3.111l-.194 2.207c.629.376 1.238.564 1.828.564 1.24 0 2.167-.39 2.783-1.171.617-.782.925-1.797.925-3.048zm1.664-.584c0 1.757-.448 3.204-1.343 4.341-.895 1.138-2.102 1.706-3.62 1.706-1.03 0-1.786-.214-2.267-.641h-.077a150.729 150.729 0 0 0-.429 4.725l-1.732.097c.818-5.975 1.226-9.79 1.226-11.443 0-.615-.052-1.348-.155-2.197l1.644-.243c.04.538.059 1.293.059 2.265h.077c.856-1.574 2.03-2.362 3.522-2.362.921 0 1.668.338 2.238 1.015.571.678.857 1.59.857 2.737zm8.902.642c0-.907-.205-1.684-.618-2.329-.411-.644-1.006-.967-1.784-.967-.967 0-1.74.452-2.316 1.356a5.361 5.361 0 0 0-.867 2.942c0 .907.21 1.683.628 2.327.419.645 1.02.968 1.805.968.953 0 1.717-.452 2.292-1.356.573-.904.86-1.885.86-2.941zm1.655-.282c0 1.562-.472 2.92-1.417 4.074-.943 1.154-2.187 1.73-3.73 1.73-1.02 0-1.896-.41-2.632-1.23-.737-.82-1.105-1.881-1.105-3.184 0-1.536.47-2.858 1.411-3.966.94-1.109 2.192-1.663 3.756-1.663 1.031 0 1.909.383 2.631 1.147.724.765 1.086 1.796 1.086 3.092zm7.433 3.646l-.243 1.292c-.681.46-1.382.691-2.102.691-.889 0-1.508-.219-1.858-.657-.35-.436-.525-1.135-.525-2.094 0-.804.184-2.538.554-5.202-.344 0-.872.02-1.586.06l.204-1.411c.61.039 1.142.059 1.596.059l.419-2.771 1.459-.156c-.116.661-.269 1.637-.457 2.927.603 0 1.465-.033 2.588-.098l-.195 1.45a75.025 75.025 0 0 0-2.617-.06c-.337 2.178-.506 3.737-.506 4.677 0 .739.094 1.244.282 1.516.188.273.506.409.954.409.648 0 1.326-.21 2.033-.632m10.109-4.871c0 .512-.072 1.555-.219 3.131-.145 1.575-.218 2.748-.218 3.519l-1.645.097c0-.285.094-1.202.283-2.751.188-1.55.281-2.722.281-3.52 0-.758-.137-1.285-.413-1.579-.275-.295-.709-.442-1.299-.442-.707 0-1.387.461-2.038 1.385a6.294 6.294 0 0 0-1.144 3.057 164.469 164.469 0 0 0-.33 3.753l-1.625.097c.078-.597.35-3.046.817-7.35.273-2.592.409-4.734.409-6.426l1.849-.097c0 .233-.058.73-.175 1.488a77.76 77.76 0 0 0-.467 3.81 33.36 33.36 0 0 1-.166 1.303h.078c.843-1.574 2.004-2.362 3.483-2.362 1.693 0 2.54.962 2.54 2.887m8.562-.71c0-.343-.16-.607-.477-.792-.318-.185-.727-.277-1.226-.277-.707 0-1.364.234-1.97.7-.606.467-1 1.183-1.182 2.149 1.99-.04 3.356-.25 4.096-.632.506-.26.759-.642.759-1.148zm1.547-.038c0 .874-.405 1.539-1.216 1.993-1.032.583-2.79.897-5.274.942 0 1.167.203 2.015.608 2.543.406.528 1.088.792 2.048.792.94 0 1.965-.33 3.075-.991l-.243 1.438c-.876.629-1.96.943-3.25.943-1.323 0-2.298-.396-2.924-1.19-.626-.795-.94-1.8-.94-3.02 0-1.794.525-3.196 1.572-4.204 1.048-1.008 2.256-1.512 3.625-1.512.83 0 1.524.201 2.082.603.558.402.837.956.837 1.663zm10.07-1.877c0 .214-.413.74-1.24 1.575a29.722 29.722 0 0 1-2.263 2.09l-.01.097c.727.856 1.347 1.874 1.86 3.054.511 1.179.768 1.998.768 2.459l-1.762.097c0-.344-.186-1.019-.56-2.028-.372-1.007-.817-1.864-1.336-2.57a11.17 11.17 0 0 0-1.168 1.38c-.792 1.115-1.22 2.155-1.285 3.12l-1.615.098c.104-.609.4-3.059.886-7.35.265-2.527.399-4.67.399-6.426l1.79-.097c0 .33-.162 1.761-.486 4.292-.325 2.53-.575 4.623-.75 6.276h.097c.344-.81 1.209-1.963 2.593-3.456 1.385-1.494 2.078-2.384 2.078-2.669l2.004.058m7.56 1.915c0-.343-.159-.607-.476-.792-.318-.185-.726-.277-1.226-.277-.707 0-1.364.234-1.971.7-.606.467-1 1.183-1.182 2.149 1.992-.04 3.357-.25 4.096-.632.506-.26.759-.642.759-1.148zm1.547-.038c0 .874-.405 1.539-1.216 1.993-1.031.583-2.789.897-5.274.942 0 1.167.203 2.015.609 2.543.405.528 1.088.792 2.048.792.94 0 1.965-.33 3.074-.991l-.243 1.438c-.876.629-1.959.943-3.25.943-1.323 0-2.297-.396-2.923-1.19-.626-.795-.94-1.8-.94-3.02 0-1.794.524-3.196 1.572-4.204 1.048-1.008 2.256-1.512 3.625-1.512.83 0 1.524.201 2.081.603.558.402.837.956.837 1.663zm9.789.748c0 .512-.073 1.555-.22 3.131-.145 1.575-.219 2.748-.219 3.519l-1.644.097c0-.285.094-1.202.282-2.751.188-1.55.283-2.722.283-3.52 0-.758-.138-1.285-.414-1.579-.276-.295-.709-.442-1.299-.442-.707 0-1.386.461-2.038 1.385a6.285 6.285 0 0 0-1.143 3.057 159.648 159.648 0 0 0-.331 3.753l-1.587.097c.454-3.357.682-5.625.682-6.805 0-.68-.052-1.51-.156-2.489l1.645-.243c.039.57.058 1.325.058 2.265h.078c.843-1.574 2.004-2.362 3.483-2.362 1.693 0 2.54.962 2.54 2.887M27.49 14.723c.33.66.494 1.328.494 2.008 0 1.074-.368 1.968-1.103 2.68-.735.713-1.63 1.07-2.683 1.07a4.058 4.058 0 0 1-1.284-.197l.132-.264a2.34 2.34 0 0 0 .263-1.118c0-1.185-.713-1.897-2.14-2.138a5.297 5.297 0 0 0-.658-.066c-.813 0-1.597.235-2.354.706-.758.472-1.465 1.202-2.124 2.188l-.395.692c.175.175.373.35.593.526.219.176.45.35.691.525a7.859 7.859 0 0 0 1.761.84c.626.208 1.377.378 2.256.51l.658.098.099 1.02c.22 2.04.779 3.98 1.679 5.823.703 1.447 1.245 2.423 1.63 2.927.383.505.97 1.042 1.76 1.612l.626.427-.79 1.678c-.747-.307-1.613-.515-2.6-.624-.988-.11-2.262-.166-3.82-.166-1.01 0-1.832.062-2.469.181a9.777 9.777 0 0 0-1.91.576l-1.053-1.513c.812-.548 1.218-1.348 1.218-2.402 0-.898-.285-2.072-.856-3.52a8.79 8.79 0 0 0-.823-1.529c-.307-.448-.592-.773-.856-.97-.417-.284-.812-.427-1.185-.427-.68 0-1.196.504-1.547 1.513-.154.395-.23.943-.23 1.645 0 1.294.131 2.231.394 2.812.264.581.845 1.266 1.745 2.056l.988.855-.691 1.448-1.811-.428-1.745-.428-.132-.033a6.729 6.729 0 0 0-.856-.098c-.35-.022-.724-.033-1.12-.033h-1.25c-.395.066-.681.11-.856.13a13.416 13.416 0 0 0-3.687.922L.23 34.757c1.032-.592 1.756-1.485 2.173-2.68.417-1.196.626-3.196.626-6.004v-1.118l-.033-.56-.066-1.513v-3.158c0-.197-.022-.471-.066-.822-.197-1.645-.5-2.884-.905-3.718-.406-.833-.983-1.425-1.729-1.776l.955-1.48.856.165 1.284.229c.966.154 1.882.242 2.75.264.866.022 1.486.033 1.86.033.79 0 1.557-.055 2.304-.165.746-.11 1.514-.274 2.304-.494l.856 1.415a3.545 3.545 0 0 0-1.465 1.348c-.362.592-.686 1.47-.97 2.632a40.02 40.02 0 0 0-.198.97c-.066.34-.1.84-.1 1.497l-.13 1.316v.428a5.006 5.006 0 0 0-.034.625v1.843c.132-.198.29-.456.478-.773.186-.319.323-.554.411-.708l.198-.362.362-.724L13.136 19l.395-.725c1.317-2.192 2.563-3.739 3.737-4.638s2.563-1.425 4.164-1.578c.154 0 .324-.006.51-.017a7.58 7.58 0 0 1 1.169.016c.198.022.473.066.824.132.921.176 1.646.45 2.172.823.527.372.988.942 1.383 1.71m12.083-1.578c-.571.505-.988 1.064-1.252 1.677-.263.615-.493 1.569-.69 2.863a29.394 29.394 0 0 0-.1 2.04c-.022.92-.032 2.29-.032 4.111v1.776c0 1.272.021 2.265.065 2.977.044.713.088 1.267.132 1.661.175 1.492.34 2.48.494 2.961.152.483.483 1.02.988 1.612l.362.395-.692 1.119c-.944-.44-2.085-.724-3.423-.857h-2.437c-1.053.045-1.953.253-2.7.625l-.79-1.051c.57-.44.977-.927 1.219-1.464.24-.538.482-1.563.724-3.076.066-.35.12-.729.164-1.135.044-.406.066-.828.066-1.266v-1.81l-.033-2.402-.033-1.348-.131-3.223c-.154-1.82-.368-3.12-.643-3.899-.275-.778-.751-1.508-1.431-2.188l.625-1.316a9 9 0 0 0 1.482.544c.46.12 1.053.18 1.777.18h.988c1.25 0 2.167-.037 2.748-.115a5.333 5.333 0 0 0 1.763-.576l.79 1.185m8.921-.428c.307.614.46 1.218.46 1.81a3.56 3.56 0 0 1-.51 1.89c-.34.56-.823 1-1.448 1.316-.626.319-1.224.478-1.794.478a3.405 3.405 0 0 1-2.058-.659c-.604-.438-1.059-1.063-1.366-1.875a3.4 3.4 0 0 1-.297-1.348c0-.153.033-.41.1-.773.065-.361.246-.745.542-1.15a4.15 4.15 0 0 1 1.103-1.038c.615-.372 1.251-.56 1.91-.56.702 0 1.35.166 1.942.495.593.329 1.065.8 1.416 1.414zm2.074 6.382c-.812.811-1.383 1.683-1.712 2.616-.33.932-.494 2.319-.494 4.16v1.876c0 2.302.137 3.864.412 4.687.274.822.85 1.618 1.728 2.385l-.362 1.414-.362-.098-.56-.1-.823-.13c-1.844-.307-3.172-.46-3.984-.46-.614 0-1.135.06-1.563.18-.428.12-.939.334-1.531.64l-.757-1.182c.57-.44.992-.95 1.267-1.53.275-.581.489-1.42.642-2.517l.198-1.908v-4.013c-.066-.307-.11-.526-.132-.659l-.033-.262-.33-1.513c-.153-.811-.274-1.35-.361-1.613-.088-.262-.264-.591-.527-.986a3.194 3.194 0 0 0-.379-.543 10.697 10.697 0 0 0-.51-.542l.658-.987c1.273.57 2.766.854 4.478.854 1.8 0 3.28-.284 4.444-.854l.593 1.085zM71.44 35.185c-.24.438-.63.79-1.168 1.052-.538.264-1.202.395-1.992.395-.944 0-1.81-.147-2.6-.443-.79-.297-1.515-.795-2.174-1.497-1.229-1.382-1.843-2.752-1.843-4.112 0-.417.054-.867.164-1.349.045-.219.132-.526.264-.92l.494-1.186.098-.164 1.284-2.006c.395-.592.675-1.13.84-1.613.165-.481.247-.888.247-1.216 0-1.448-.736-2.172-2.206-2.172a4.7 4.7 0 0 0-.626.033c-.812.132-1.405.637-1.777 1.513-.44 1.053-.659 2.741-.659 5.066v1.777c0 1.907.154 3.322.461 4.243.241.746.768 1.547 1.58 2.401l-.362 1.283-.954-.328a16.611 16.611 0 0 0-2.14-.429c-.593-.043-1.021-.076-1.284-.098a9.242 9.242 0 0 0-2.749.18 8.61 8.61 0 0 0-1.926.709l-.56-1.448a6.774 6.774 0 0 0 1.169-1.81c.274-.635.466-1.458.576-2.466l.066-.856v-1.94l-.033-1.58-.033-.295-.066-.66c-.242-1.972-.472-3.31-.691-4.011-.22-.703-.626-1.382-1.219-2.04l.33-1.217.724.196c.636.154 1.322.264 2.058.33.734.066 1.98.099 3.736.099a8.99 8.99 0 0 0 1.186-.1c.745-.13 1.437-.24 2.074-.329l.921-.097c2.26 0 4.05.251 5.367.755 1.317.506 2.283 1.294 2.897 2.37.614 1.074.922 2.115.922 3.124 0 1.755-.879 3.4-2.634 4.935l-.79.624c-.746.549-1.257.97-1.531 1.268a2.68 2.68 0 0 0-.593.986 3.2 3.2 0 0 0-.18 1.004c0 .79.296 1.316.888 1.578.088.045.23.066.428.066.504 0 .845-.241 1.02-.723.044-.176.067-.33.067-.462 0-.438-.176-.909-.527-1.413l-.428-.396c.417-.657 1.03-.987 1.844-.987.306 0 .614.056.921.166.307.11.615.296.922.559.549.46.823 1.052.823 1.776 0 .57-.209 1.195-.625 1.875m14.848-4.408l-.033-2.138v-3.62l-.033-1.775c0-.505-.011-.861-.033-1.069a13.122 13.122 0 0 0-.099-.708c-.22-1.053-.856-1.578-1.91-1.578-.285 0-.526.043-.724.13a2.858 2.858 0 0 0-1.153.872c-.328.407-.603.96-.822 1.662-.11.35-.192.691-.247 1.02-.055.328-.082.833-.082 1.513l-.066 1.152-.033.657v1.81l.066.657c.087.988.181 1.7.28 2.139.099.439.224.833.378 1.183.57.987 1.262 1.48 2.075 1.48.24 0 .543-.043.905-.131.362-.087.68-.328.955-.723.273-.395.444-.866.51-1.414.066-.55.087-.921.066-1.119zm8.526 3.685l-1.35 1.808c-.35-.285-.702-.471-1.053-.56-.351-.087-.889-.13-1.613-.13-.46 0-.9.005-1.317.016-.417.012-.812.017-1.185.017l-.593.065-.329.033-2.075.297a16.59 16.59 0 0 1-2.634.229 8.572 8.572 0 0 1-2.896-.493c-1.624-.57-2.87-1.327-3.737-2.27-.867-.942-1.553-2.368-2.057-4.276a6.349 6.349 0 0 1-.198-1.102 11.214 11.214 0 0 1-.066-1.168c0-2.28.686-4.167 2.058-5.658 1.372-1.491 3.362-2.478 5.975-2.961l1.383-.197-1.185-1.414-.296-.395-.89-.955a22.033 22.033 0 0 0-1.449-1.496 10.21 10.21 0 0 0-1.25-1.004l.56-1.085c1.492.394 3.029.592 4.608.592 1.274 0 2.207-.033 2.8-.098a12.681 12.681 0 0 0 2.04-.428l.56 1.185c-.395.284-.592.624-.592 1.019 0 .44.219.999.658 1.677.439.68 1.174 1.602 2.206 2.763.702.77 1.558 1.503 2.568 2.205-.22.482-.379.932-.478 1.348-.098.417-.18.944-.246 1.58l-.033.592-.033.888c0 .592-.006 1.157-.017 1.694a73.08 73.08 0 0 0-.016 1.53c0 .24.01.488.033.74.021.252.033.422.033.51.175 1.908.383 3.14.625 3.7.241.56.735.96 1.48 1.202zM121.35 19.33c-.658.24-1.19.597-1.596 1.068-.407.472-.84 1.256-1.3 2.353-.177.46-.297.81-.363 1.052-.132.46-.263.987-.395 1.578l-.033.23-.428 2.238-.691 3.816a4.093 4.093 0 0 0-.1.625 7.84 7.84 0 0 0-.032.625c0 .877.285 1.667.856 2.368l-.494.922c-1.141-.351-2.382-.527-3.72-.527-.812 0-1.723.087-2.733.264l-1.185.263-.757-.954a2.27 2.27 0 0 0 .757-1.151c.132-.462.198-1.163.198-2.107 0-.328-.017-.602-.05-.822a50.065 50.065 0 0 0-.247-1.38 11.436 11.436 0 0 0-.46-1.778 10.69 10.69 0 0 0-.66-1.447 7.125 7.125 0 0 0-.427.955c-.11.307-.23.767-.362 1.381l-.296 1.578-.165.824-.132.756a8.059 8.059 0 0 0-.099 1.184c0 .68.132 1.338.395 1.974l-.493.987a5.366 5.366 0 0 0-2.733-.725c-.263 0-.587.017-.971.05l-.938.083c-.812.11-1.668.306-2.568.592l-.56-.79c.35-.767.527-1.6.527-2.5 0-.657-.077-1.442-.23-2.352-.154-.91-.412-2.088-.774-3.536-.363-1.448-.631-2.462-.807-3.044a15.185 15.185 0 0 0-.56-1.562c-.395-.876-.757-1.557-1.086-2.04a7.634 7.634 0 0 0-1.185-1.348l.263-.921a11.3 11.3 0 0 0 2.124.527c.735.11 1.585.164 2.551.164 1.075 0 2.272-.187 3.589-.559l.856-.263.526 1.052a3.399 3.399 0 0 0-.724.84c-.176.295-.301.57-.379.822-.077.252-.115.586-.115 1.002 0 .637.186 1.832.56 3.586.087.526.23 1.102.428 1.728.197.624.417 1.266.658 1.923.483-1.03.812-2.061.988-3.091.35-1.755.527-2.994.527-3.717 0-.68-.187-1.37-.56-2.073l.296-.954 1.153.197c.636.066 1.08.11 1.333.131.252.023.642.033 1.169.033a15.83 15.83 0 0 0 3.72-.46l.33 1.053a4.57 4.57 0 0 0-.495 2.073c0 .197.022.427.066.69.044.264.099.548.165.856l.296.953.659 2.139.56 1.447.625-2.302.033-.23.362-1.876c.153-.767.23-1.415.23-1.941 0-.657-.208-1.238-.625-1.743a3.132 3.132 0 0 0-.576-.608 2.843 2.843 0 0 0-.708-.379l.395-1.151.658.23a8.96 8.96 0 0 0 2.404.33c.614 0 1.36-.09 2.238-.265l.79-.164.527 1.218m12.675 8.88v-2.927l-.165-1.546-.098-.724c-.132-1.03-.308-1.765-.527-2.203a1.992 1.992 0 0 0-.987-.954c-.44-.198-.824-.296-1.154-.296-1.009 0-1.679.734-2.007 2.204-.088.35-.154.69-.197 1.019-.046.33-.067.867-.067 1.612l-.131 1.876-.034.164v1.118c0 .285.05.938.148 1.957.1 1.02.203 1.794.314 2.32.11.525.262.975.46 1.349.44.854 1.054 1.283 1.844 1.283.549 0 1.054-.252 1.514-.757.264-.242.489-.62.676-1.136.186-.514.279-1.123.279-1.825l.1-1.744.032-.79zm6.946-.426c0 .394-.054.821-.164 1.283-.11.46-.253.932-.428 1.413-.658 1.733-1.701 3.115-3.128 4.146-1.536 1.118-3.27 1.678-5.2 1.678-1.735 0-3.255-.258-4.562-.774-1.305-.514-2.484-1.365-3.539-2.549-.855-1.008-1.437-1.985-1.744-2.928-.308-.943-.462-2.05-.462-3.323 0-.854.122-1.628.363-2.318.241-.692.614-1.432 1.119-2.22a8.84 8.84 0 0 1 3.325-3.093c1.384-.745 2.909-1.118 4.577-1.118.943 0 1.854.109 2.732.328 1.931.461 3.512 1.371 4.742 2.731.855.921 1.464 1.918 1.826 2.994.362 1.074.543 2.324.543 3.75zm18.043-4.968c0 .637-.111 1.223-.33 1.76-.22.538-.62 1.108-1.201 1.711-.583.602-.874 1.135-.874 1.595 0 .307.154.636.461.987a2.385 2.385 0 0 1-1.35.395c-.548 0-1.108-.176-1.679-.527-.482-.262-.883-.724-1.2-1.38-.32-.66-.479-1.24-.479-1.745 0-.811.505-1.896 1.515-3.256.153-.176.252-.494.297-.954v-.494c0-.395-.176-.745-.528-1.052a1.117 1.117 0 0 0-.822-.329 1.25 1.25 0 0 0-1.021.493c-.263.328-.45.658-.56.987-.11.328-.23.888-.362 1.678l-.098.887c-.045.396-.078.9-.1 1.514-.021.614-.033 1.03-.033 1.25 0 2.654.176 4.573.528 5.757.35 1.183.987 2.259 1.909 3.223l-.987.921a12.643 12.643 0 0 0-1.877-.51c-.637-.12-1.296-.18-1.976-.18-1.47 0-2.447.038-2.93.114-.483.078-1.031.28-1.645.609l-.593-1.283c.702-.767 1.184-1.579 1.448-2.434.264-.855.395-2.16.395-3.914 0-.35-.005-.718-.017-1.102a41.038 41.038 0 0 1-.016-1.202v-.394c0-1.995-.137-3.448-.412-4.358a6.32 6.32 0 0 0-1.398-2.45l.56-1.053.723.229c1.01.286 1.865.428 2.568.428.505 0 1.284-.088 2.338-.264 1.69-.284 2.853-.426 3.49-.426.921 0 1.662.054 2.222.164.56.11 1.048.295 1.465.56.944.57 1.608 1.15 1.992 1.742.383.592.577 1.36.577 2.303m16.69 6.941c.154.438.23.9.23 1.382 0 .505-.098 1.053-.296 1.645-.329.987-.862 1.749-1.596 2.286-.736.538-1.817.915-3.243 1.135a11.49 11.49 0 0 1-1.844.132c-1.295 0-2.442-.204-3.44-.61-1-.405-1.992-1.035-2.98-1.891l-1.02-.987-.461-.56c.395-.437.67-.892.823-1.364.153-.472.318-1.332.494-2.582.043-.22.066-.58.066-1.086 0-.504.01-.932.033-1.283v-1.119l-.033-.624-.033-1.743a4.56 4.56 0 0 0-.659-.034c-.724 0-1.35.154-1.876.461l-.659-1.118c.659-.592 1.36-.998 2.107-1.218.351-.088.614-.131.79-.131.022-.219.038-.411.05-.576a5.354 5.354 0 0 0-.082-1.431c-.198-.986-.374-1.667-.527-2.04a1.931 1.931 0 0 0-.725-.888l.395-1.316c.396.067.692.11.89.132.197.022.482.032.855.032 1.295 0 2.908-.316 4.84-.953l1.053-.427 1.087.624-.691 1.118a6.669 6.669 0 0 0-.461 1.316c-.11.462-.198 1.042-.264 1.744l-.099 1.052-.032.56c.504.11.965.165 1.382.165 1.01 0 1.997-.242 2.963-.725.154-.086.264-.142.33-.164a2.4 2.4 0 0 0 .493-.362c.373.615.56 1.261.56 1.942 0 1.556-.45 2.664-1.35 3.321-.505.33-.999.494-1.481.494a4.67 4.67 0 0 1-.708-.065 15.82 15.82 0 0 0-.708-.1l-1.679-.262v7.203l.263 1.71c.11.813.269 1.345.478 1.597.208.252.586.378 1.136.378.372 0 .701-.11.987-.33.285-.219.455-.497.51-.837.055-.34.083-.62.083-.84 0-.724-.28-1.113-.84-1.168-.56-.054-.872-.103-.938-.148-.154-.11-.301-.34-.444-.69a2.625 2.625 0 0 1-.214-.988c0-.526.197-.986.592-1.38.395-.395.977-.66 1.745-.79a6.96 6.96 0 0 1 .79-.067c1.317 0 2.338.615 3.062 1.843l.296.625"/></g></svg>