<svg width="256" height="94" viewBox="0 0 256 94" xmlns="http://www.w3.org/2000/svg" xmlns:xlink="http://www.w3.org/1999/xlink"><title>Logo_Klindwort-Apo_Pfade_graurot</title><defs><path id="a" d="M.06.773v14.622h13.169V.773H.06z"/><path id="c" d="M28.056 23H.606V.09h27.45V23z"/></defs><g fill="none" fill-rule="evenodd"><path fill="#FFF" d="M207.742 24.458h-.102l.114-.128.076.053-.041-.022.041.022v.002l-.027.049-.013.024h-.048"/><path d="M218.405 12.808h3.456V8.543l-3.456-2.425v6.69zm-1.087-.976v-.223l.139.112.028.25-.167-.139zm-1.951 5.91a.477.477 0 0 1 .195.362c0 .111-.112.223-.195.278v-.64zm-.697 1.532c-.167.084-.307.223-.586.446.168-.362.363-.585.586-.752v.306zm1.7 1.283a2.01 2.01 0 0 0-1.31-.502c-.529 0-.976.195-1.31.502h2.62zm-2.927.669h3.289v-.334h-3.289v.334zm1.924-2.537c.223-.083.446-.39.446-.641 0-.279-.418-.669-.781-.92-.975-.585-1.533-1.143-1.672-1.589l.501.168c.196.529 1.394 1.17 1.924 1.728.223.251.307.39.307.613 0 .334-.279.725-.725.976v-.335zm-2.704-5.379c.362-2.537 1.868-3.011 2.648-3.011.585 0 1.227.195 1.421.753-.557-.363-.863-.502-1.421-.502-1.227 0-2.174 1.171-2.369 2.76h-.279zm2.007 5.296c-.725.501-.948 1.003-.836 1.589.195-.196.446-.447.836-.642v.334h.195v-2.536l.307.223v2.313h.195v-.557c.557-.306 1.031-.864 1.031-1.254 0-.474-.251-.864-1.031-1.421v-.67h-.195v.53l-.307-.223v-.307h-.195v.168c-.111-.056-.251-.195-.39-.39.251.055.446.055.78.055a6.65 6.65 0 0 0 4.627-1.84h-9.254a6.175 6.175 0 0 0 2.509 1.478c.306.697 1.003 1.282 1.728 1.728v1.422zm-4.599-4.962h10.006v-.334h-6.801c.028-1.143.864-2.453 2.035-2.453.725 0 1.115.25 1.561 1.17.167.335.307.502.446.725l.056-.056-.251-.808.613.669c-.056-1.533-.92-2.537-2.481-2.537-1.867 0-2.704 1.757-2.927 3.29h-2.257v.334zm.529 6.438l1.283.586V19.33h-3.15v-6.522h3.15V4.724l8.975-4.46 7.359 5.157v14.411l3.4 2.341-4.181 5.966-5.575-3.903V19.33h-3.456v4.711l-5.352 4.098-8.139-3.708 5.686-4.349z" fill="#D9242A"/><g transform="translate(0 46)"><mask id="b" fill="#fff"><use xlink:href="#a"/></mask><path d="M9.793 9.196C8.61 4.868 8.019 2.532 8.019 2.188h-.102c-.022.232-1.138 2.568-3.346 7.008h5.222zm3.436 6.199h-2.234c0-.726-.289-2.302-.865-4.728H3.976c-.33.711-.618 1.355-.865 1.932-.584 1.385-.903 2.317-.955 2.796H0c.038-.217 1.217-2.613 3.538-7.187C5.829 3.67 6.997 1.192 7.041.773h2.471c0 .674.62 3.118 1.859 7.333 1.239 4.216 1.858 6.645 1.858 7.289z" fill="#565F61" mask="url(#b)"/></g><path d="M23.741 55.387c0-2.306-.812-3.459-2.437-3.459-.808 0-1.602.512-2.381 1.538-.778 1.026-1.228 2.224-1.347 3.594l-.225 2.549c.726.434 1.43.652 2.111.652 1.431 0 2.501-.451 3.212-1.353.712-.903 1.067-2.076 1.067-3.521zm1.921-.674c0 2.029-.517 3.701-1.55 5.014-1.033 1.315-2.426 1.971-4.178 1.971-1.19 0-2.062-.247-2.617-.741h-.089a174.257 174.257 0 0 0-.495 5.458l-1.999.112c.944-6.902 1.415-11.309 1.415-13.218 0-.711-.06-1.557-.179-2.538l1.898-.281c.045.622.067 1.494.067 2.617h.09c.988-1.819 2.343-2.729 4.065-2.729 1.063 0 1.925.391 2.583 1.173.659.783.989 1.837.989 3.162zm10.275.741c0-1.048-.237-1.945-.713-2.69-.475-.744-1.162-1.117-2.06-1.117-1.116 0-2.007.522-2.673 1.566a6.197 6.197 0 0 0-1 3.398c0 1.048.242 1.945.724 2.689.484.745 1.178 1.118 2.084 1.118 1.1 0 1.982-.522 2.645-1.567a6.225 6.225 0 0 0 .993-3.397zm1.91-.326c0 1.805-.545 3.373-1.635 4.706-1.089 1.333-2.525 1.999-4.306 1.999-1.176 0-2.188-.474-3.038-1.42-.85-.948-1.275-2.174-1.275-3.679 0-1.774.543-3.301 1.629-4.582 1.085-1.28 2.53-1.92 4.335-1.92 1.19 0 2.203.442 3.037 1.325.835.883 1.253 2.074 1.253 3.571zm8.58 4.212l-.281 1.493c-.786.532-1.595.798-2.426.798-1.026 0-1.741-.253-2.145-.759-.404-.504-.606-1.311-.606-2.419 0-.929.213-2.932.64-6.009-.397 0-1.007.023-1.831.068l.236-1.629c.704.045 1.318.068 1.842.068.045-.308.206-1.374.483-3.201l1.684-.18c-.134.764-.31 1.891-.527 3.381.696 0 1.691-.038 2.987-.113l-.225 1.674a86.526 86.526 0 0 0-3.021-.068c-.389 2.516-.584 4.317-.584 5.402 0 .854.109 1.438.326 1.752.217.315.584.472 1.101.472.748 0 1.531-.243 2.347-.73m11.668-5.627c0 .592-.084 1.797-.253 3.617-.168 1.819-.252 3.174-.252 4.065l-1.898.112c0-.329.108-1.388.326-3.178.217-1.79.325-3.144.325-4.065 0-.876-.159-1.485-.477-1.825-.318-.341-.818-.511-1.499-.511-.816 0-1.601.533-2.353 1.6a7.274 7.274 0 0 0-1.32 3.532 190.142 190.142 0 0 0-.382 4.335l-1.875.112c.09-.689.404-3.519.943-8.49.315-2.995.472-5.469.472-7.423l2.134-.113c0 .27-.067.843-.202 1.719a89.897 89.897 0 0 0-.539 4.402 38.49 38.49 0 0 1-.191 1.505h.09c.973-1.819 2.313-2.729 4.02-2.729 1.954 0 2.931 1.112 2.931 3.335m9.883-.82c0-.396-.184-.701-.55-.915-.367-.213-.839-.32-1.415-.32-.816 0-1.575.27-2.275.809-.699.539-1.154 1.366-1.364 2.482 2.298-.045 3.874-.288 4.728-.73.584-.3.876-.741.876-1.326zm1.786-.044c0 1.01-.468 1.778-1.404 2.302-1.191.674-3.219 1.037-6.087 1.089 0 1.348.234 2.327.702 2.937.468.61 1.256.915 2.364.915 1.085 0 2.268-.382 3.549-1.145l-.281 1.662c-1.011.726-2.261 1.089-3.751 1.089-1.527 0-2.652-.458-3.375-1.375-.722-.918-1.084-2.08-1.084-3.488 0-2.073.605-3.692 1.814-4.857 1.209-1.164 2.604-1.746 4.184-1.746.958 0 1.759.232 2.403.696.644.465.966 1.105.966 1.921zm11.623-2.168c0 .247-.477.854-1.432 1.819a34.317 34.317 0 0 1-2.611 2.415l-.011.112c.838.989 1.554 2.164 2.145 3.527.591 1.362.887 2.309.887 2.841l-2.033.112c0-.397-.215-1.177-.646-2.342-.43-1.164-.944-2.154-1.543-2.97a12.9 12.9 0 0 0-1.348 1.595c-.914 1.288-1.408 2.489-1.483 3.605l-1.864.112c.12-.703.461-3.533 1.022-8.49.307-2.92.461-5.394.461-7.423l2.066-.113c0 .382-.187 2.035-.561 4.959-.375 2.923-.663 5.34-.865 7.249h.112c.397-.936 1.395-2.267 2.993-3.992 1.598-1.726 2.398-2.754 2.398-3.083l2.313.067m8.726 2.212c0-.396-.183-.701-.55-.915-.367-.213-.838-.32-1.415-.32-.816 0-1.574.27-2.275.809-.699.539-1.154 1.366-1.364 2.482 2.299-.045 3.875-.288 4.728-.73.584-.3.876-.741.876-1.326zm1.786-.044c0 1.01-.468 1.778-1.404 2.302-1.19.674-3.219 1.037-6.087 1.089 0 1.348.234 2.327.702 2.937.468.61 1.256.915 2.364.915 1.086 0 2.269-.382 3.549-1.145l-.281 1.662c-1.011.726-2.261 1.089-3.751 1.089-1.527 0-2.652-.458-3.374-1.375-.723-.918-1.084-2.08-1.084-3.488 0-2.073.604-3.692 1.813-4.857 1.21-1.164 2.604-1.746 4.184-1.746.958 0 1.759.232 2.403.696.644.465.966 1.105.966 1.921zm11.298.864c0 .592-.084 1.797-.253 3.617-.168 1.819-.253 3.174-.253 4.065l-1.898.112c0-.329.109-1.388.326-3.178.217-1.79.326-3.144.326-4.065 0-.876-.159-1.485-.478-1.825-.318-.341-.818-.511-1.499-.511-.816 0-1.6.533-2.352 1.6a7.264 7.264 0 0 0-1.32 3.532 184.568 184.568 0 0 0-.382 4.335l-1.831.112c.524-3.878.787-6.498.787-7.861 0-.786-.06-1.745-.18-2.875l1.898-.281c.045.659.067 1.531.067 2.617h.09c.973-1.819 2.314-2.729 4.021-2.729 1.954 0 2.931 1.112 2.931 3.335M31.73 17.008c.38.761.57 1.534.57 2.319 0 1.241-.425 2.274-1.273 3.096-.849.824-1.881 1.236-3.097 1.236a4.68 4.68 0 0 1-1.482-.228l.152-.305c.202-.379.304-.81.304-1.291 0-1.369-.823-2.191-2.47-2.47a6.109 6.109 0 0 0-.76-.076c-.938 0-1.843.272-2.717.816-.874.545-1.691 1.388-2.451 2.527l-.456.799c.202.203.43.405.684.608.253.203.519.405.798.607a9.068 9.068 0 0 0 2.033.97c.722.24 1.589.437 2.603.589l.76.113.114 1.179a20.109 20.109 0 0 0 1.938 6.726c.811 1.672 1.437 2.799 1.881 3.381.443.584 1.121 1.204 2.033 1.862l.722.494-.912 1.938c-.862-.355-1.862-.595-3.002-.721-1.14-.127-2.61-.191-4.408-.191-1.166 0-2.115.071-2.85.209-.735.139-1.469.362-2.204.665l-1.216-1.748c.937-.633 1.406-1.557 1.406-2.774 0-1.038-.329-2.394-.988-4.066a10.156 10.156 0 0 0-.95-1.767c-.355-.518-.684-.893-.988-1.12-.482-.329-.938-.494-1.368-.494-.785 0-1.381.583-1.786 1.748-.178.456-.266 1.089-.266 1.9 0 1.495.152 2.578.456 3.249.304.671.975 1.462 2.014 2.375l1.14.987-.798 1.673-2.09-.494-2.014-.495-.152-.038a7.76 7.76 0 0 0-.988-.113 21.011 21.011 0 0 0-1.292-.038H6.916c-.456.076-.786.126-.988.151-1.47.153-2.888.507-4.256 1.064L.266 40.15c1.191-.684 2.026-1.715 2.508-3.096.481-1.381.722-3.692.722-6.935v-1.292l-.038-.646-.076-1.748v-3.648a8.31 8.31 0 0 0-.076-.95c-.228-1.9-.577-3.332-1.045-4.295-.469-.962-1.134-1.646-1.995-2.051l1.102-1.711.988.191 1.482.265a23.96 23.96 0 0 0 3.173.305c1 .025 1.716.038 2.147.038.912 0 1.798-.063 2.66-.19a21.755 21.755 0 0 0 2.66-.571l.988 1.635a4.093 4.093 0 0 0-1.691 1.557c-.418.684-.792 1.698-1.121 3.04-.076.356-.152.729-.228 1.121-.076.393-.114.97-.114 1.729l-.152 1.52v.495a5.787 5.787 0 0 0-.038.722v2.128c.152-.228.335-.526.551-.893l.475-.817.228-.418.418-.837 1.368-2.849.456-.837c1.52-2.532 2.958-4.319 4.313-5.358 1.355-1.038 2.958-1.646 4.807-1.823.177 0 .373-.006.589-.019.215-.013.361-.019.437-.019.38 0 .684.013.912.038.228.025.545.075.95.152 1.064.203 1.9.519 2.508.95.608.43 1.14 1.089 1.596 1.975m13.946-1.823c-.659.583-1.14 1.229-1.445 1.937-.303.71-.569 1.812-.797 3.307-.051.507-.089 1.292-.114 2.356a213.32 213.32 0 0 0-.038 4.75v2.051c0 1.47.025 2.617.075 3.439.051.824.102 1.464.153 1.919.202 1.723.392 2.864.57 3.421.176.557.557 1.177 1.14 1.862l.418.456-.798 1.292c-1.09-.508-2.407-.836-3.952-.989h-2.812c-1.216.052-2.255.292-3.117.722l-.911-1.215c.658-.507 1.127-1.071 1.406-1.691.278-.621.557-1.805.836-3.553.076-.405.139-.842.189-1.311.051-.469.077-.957.077-1.463v-2.09l-.038-2.775-.039-1.557-.151-3.724c-.178-2.103-.425-3.604-.742-4.503s-.867-1.742-1.652-2.528l.722-1.52c.608.28 1.177.489 1.71.628.531.139 1.216.209 2.051.209h1.141c1.443 0 2.501-.044 3.172-.134a6.152 6.152 0 0 0 2.034-.665l.912 1.369m10.297-.495c.355.71.532 1.407.532 2.091 0 .811-.196 1.538-.589 2.184-.393.646-.95 1.154-1.672 1.52-.722.368-1.413.552-2.071.552a3.928 3.928 0 0 1-2.375-.761c-.697-.506-1.222-1.228-1.577-2.166a3.93 3.93 0 0 1-.342-1.557c0-.177.038-.475.114-.893.076-.418.285-.861.627-1.33a4.793 4.793 0 0 1 1.273-1.198c.709-.43 1.444-.646 2.204-.646a4.54 4.54 0 0 1 2.242.571c.684.38 1.229.924 1.634 1.633zm2.394 7.373c-.937.937-1.596 1.944-1.976 3.021-.38 1.077-.57 2.679-.57 4.807v2.166c0 2.659.158 4.464.475 5.415.317.949.982 1.868 1.995 2.755l-.418 1.633-.418-.113-.646-.115-.95-.152c-2.128-.354-3.661-.531-4.598-.531-.709 0-1.311.07-1.805.209-.494.138-1.083.385-1.767.74l-.874-1.367c.659-.507 1.146-1.096 1.463-1.767.317-.671.564-1.64.741-2.908l.228-2.204v-4.635a18.44 18.44 0 0 1-.152-.761l-.038-.303-.38-1.748c-.178-.937-.317-1.559-.418-1.863-.101-.303-.304-.683-.608-1.139a3.69 3.69 0 0 0-.437-.627c-.165-.19-.361-.399-.589-.627l.76-1.14c1.469.659 3.192.987 5.168.987 2.077 0 3.787-.328 5.13-.987l.684 1.254zm24.092 18.582c-.279.506-.729.912-1.349 1.215-.621.305-1.387.456-2.299.456-1.09 0-2.09-.17-3.002-.512-.912-.343-1.748-.918-2.508-1.729-1.419-1.596-2.128-3.179-2.128-4.75 0-.481.063-1.001.19-1.558.051-.253.152-.608.304-1.064l.57-1.369.114-.189 1.482-2.318c.456-.684.779-1.305.969-1.863.19-.556.285-1.026.285-1.405 0-1.672-.849-2.509-2.546-2.509a5.42 5.42 0 0 0-.722.038c-.938.153-1.622.736-2.052 1.748-.507 1.217-.76 3.167-.76 5.852v2.053c0 2.203.177 3.838.532 4.902.278.861.886 1.786 1.824 2.773l-.418 1.482-1.102-.379a19.16 19.16 0 0 0-2.47-.495c-.684-.05-1.178-.088-1.482-.113a10.66 10.66 0 0 0-3.173.209 9.932 9.932 0 0 0-2.223.817l-.646-1.672a7.826 7.826 0 0 0 1.349-2.091c.317-.734.538-1.684.665-2.849l.076-.989v-2.241l-.038-1.824-.038-.342-.076-.761c-.279-2.279-.545-3.824-.798-4.635-.254-.811-.722-1.596-1.406-2.356l.38-1.406.836.227c.734.178 1.526.305 2.375.38.848.077 2.286.115 4.313.115.354 0 .81-.038 1.368-.115a68.273 68.273 0 0 1 2.394-.38l1.064-.113c2.609 0 4.674.291 6.194.873 1.52.584 2.635 1.495 3.344 2.737.709 1.241 1.064 2.444 1.064 3.609 0 2.027-1.014 3.928-3.04 5.701l-.912.721c-.861.634-1.451 1.121-1.767 1.464a3.096 3.096 0 0 0-.684 1.139 3.699 3.699 0 0 0-.209 1.16c0 .912.342 1.52 1.026 1.823.101.052.266.076.494.076.582 0 .975-.278 1.178-.835.05-.203.076-.38.076-.533 0-.506-.203-1.05-.608-1.633l-.494-.457c.481-.759 1.19-1.14 2.128-1.14.354 0 .709.064 1.064.191.354.127.709.342 1.064.646.633.531.95 1.216.95 2.052 0 .659-.241 1.38-.722 2.166m17.138-5.092l-.038-2.47v-4.181l-.038-2.051c0-.583-.013-.995-.038-1.235a15.17 15.17 0 0 0-.114-.818c-.254-1.216-.988-1.823-2.204-1.823-.33 0-.608.05-.836.151-.507.204-.95.539-1.331 1.007-.379.47-.696 1.109-.949 1.92a8.573 8.573 0 0 0-.285 1.177c-.064.38-.095.963-.095 1.749l-.076 1.33-.038.759v2.091l.076.759c.1 1.141.209 1.964.323 2.471.114.507.259.962.437 1.367.658 1.14 1.456 1.71 2.394 1.71.278 0 .627-.05 1.045-.152.418-.101.785-.379 1.102-.835.316-.457.513-1.001.589-1.634.076-.634.101-1.064.076-1.292zm9.841 4.256l-1.557 2.089c-.406-.329-.811-.544-1.216-.646-.406-.101-1.026-.151-1.862-.151-.532 0-1.039.006-1.52.019-.482.013-.938.019-1.368.019l-.685.075-.379.038-2.395.343a19.133 19.133 0 0 1-3.04.265 9.887 9.887 0 0 1-3.343-.569c-1.875-.659-3.313-1.533-4.313-2.623-1.001-1.088-1.793-2.735-2.375-4.939a7.34 7.34 0 0 1-.228-1.273 12.965 12.965 0 0 1-.076-1.35c0-2.634.791-4.813 2.375-6.536 1.583-1.722 3.881-2.862 6.897-3.42l1.596-.228-1.368-1.633-.342-.456-1.026-1.103a25.442 25.442 0 0 0-1.673-1.729 11.805 11.805 0 0 0-1.443-1.159l.646-1.254c1.722.456 3.496.684 5.319.684 1.47 0 2.547-.038 3.231-.113.684-.076 1.469-.241 2.356-.494l.646 1.368c-.456.329-.684.721-.684 1.177 0 .508.253 1.154.76 1.938.506.786 1.355 1.85 2.546 3.192.81.888 1.798 1.736 2.964 2.547a8.523 8.523 0 0 0-.551 1.557 14.72 14.72 0 0 0-.285 1.825l-.038.684-.038 1.026c0 .684-.007 1.336-.019 1.957-.013.621-.019 1.21-.019 1.767 0 .278.012.564.038.855.025.291.038.487.038.588.202 2.205.443 3.629.722 4.275.278.646.848 1.109 1.709 1.388zm30.628-17.48c-.76.278-1.374.69-1.843 1.234-.469.545-.969 1.451-1.501 2.718-.203.532-.342.937-.418 1.216a31.81 31.81 0 0 0-.456 1.823l-.038.266-.494 2.584-.798 4.409a4.732 4.732 0 0 0-.114.721c-.025.28-.038.52-.038.722 0 1.014.329 1.926.988 2.736l-.57 1.065c-1.317-.406-2.749-.609-4.294-.609-.937 0-1.989.101-3.154.305l-1.368.304-.874-1.102c.431-.355.722-.799.874-1.33.152-.533.228-1.343.228-2.433 0-.379-.019-.696-.057-.95a57.87 57.87 0 0 0-.285-1.595c-.152-.811-.329-1.495-.532-2.053a12.353 12.353 0 0 0-.76-1.672c-.203.38-.367.748-.494 1.103s-.266.887-.418 1.596l-.342 1.823-.19.951-.152.874a9.316 9.316 0 0 0-.114 1.367c0 .786.152 1.546.456 2.281l-.57 1.14a6.19 6.19 0 0 0-3.154-.837c-.304 0-.678.019-1.121.057l-1.083.096c-.937.127-1.925.354-2.964.684l-.646-.912a6.87 6.87 0 0 0 .608-2.889c0-.759-.089-1.665-.266-2.716-.177-1.052-.475-2.413-.893-4.085-.418-1.673-.728-2.844-.931-3.516a17.55 17.55 0 0 0-.646-1.805c-.456-1.012-.874-1.798-1.254-2.356a8.817 8.817 0 0 0-1.368-1.558l.304-1.064a13 13 0 0 0 2.451.609c.849.127 1.83.19 2.945.19 1.241 0 2.622-.216 4.142-.646l.988-.304.608 1.215a3.925 3.925 0 0 0-.836.97 4.405 4.405 0 0 0-.437.95c-.089.291-.133.677-.133 1.158 0 .736.215 2.116.646 4.142.101.608.266 1.273.494 1.996.228.721.481 1.463.76 2.222.557-1.19.937-2.381 1.14-3.571.405-2.027.608-3.458.608-4.294 0-.786-.215-1.583-.646-2.394l.342-1.102 1.33.227c.735.077 1.248.128 1.539.152.291.026.741.038 1.349.038 1.393 0 2.824-.176 4.294-.531l.38 1.216a5.282 5.282 0 0 0-.57 2.394c0 .228.025.494.076.797.051.305.114.634.19.989l.342 1.101.76 2.471.646 1.671.722-2.659.038-.266.418-2.166c.177-.887.266-1.635.266-2.243 0-.759-.241-1.43-.722-2.013a3.616 3.616 0 0 0-.665-.703 3.28 3.28 0 0 0-.817-.437l.456-1.33.76.266c.912.253 1.837.38 2.774.38.709 0 1.571-.102 2.584-.305l.912-.19.608 1.407m14.629 10.259v-3.382l-.19-1.786-.113-.836c-.152-1.19-.355-2.039-.608-2.545a2.3 2.3 0 0 0-1.14-1.102c-.508-.229-.951-.342-1.331-.342-1.165 0-1.938.848-2.317 2.546-.102.405-.178.797-.228 1.177-.052.381-.077 1.002-.077 1.863l-.151 2.166-.039.19v1.292c0 .329.058 1.083.171 2.26.115 1.179.234 2.072.362 2.68.126.607.303 1.127.531 1.558.507.987 1.217 1.482 2.128 1.482.634 0 1.217-.291 1.748-.874.305-.279.564-.716.78-1.312.215-.594.322-1.297.322-2.108l.115-2.015.037-.912zm8.018-.493c0 .455-.063.949-.19 1.482a14.818 14.818 0 0 1-.494 1.633c-.759 2.002-1.963 3.598-3.61 4.789-1.773 1.292-3.774 1.938-6.003 1.938-2.002 0-3.756-.298-5.264-.894-1.507-.594-2.868-1.577-4.085-2.944-.987-1.165-1.659-2.293-2.013-3.383-.356-1.089-.533-2.368-.533-3.838 0-.987.14-1.881.418-2.678.279-.799.709-1.654 1.292-2.565a10.208 10.208 0 0 1 3.838-3.572c1.597-.861 3.357-1.292 5.283-1.292 1.088 0 2.14.126 3.153.379 2.229.533 4.054 1.584 5.473 3.155.987 1.064 1.69 2.216 2.108 3.458.418 1.241.627 2.685.627 4.332zm20.825-5.739c0 .736-.128 1.413-.381 2.034-.253.621-.716 1.279-1.386 1.976-.672.696-1.008 1.311-1.008 1.842 0 .355.177.735.532 1.141a2.751 2.751 0 0 1-1.558.456c-.633 0-1.279-.203-1.938-.609-.557-.303-1.02-.836-1.386-1.595-.368-.761-.552-1.432-.552-2.015 0-.937.583-2.19 1.748-3.761.177-.203.291-.571.343-1.102v-.571c0-.456-.203-.86-.609-1.215a1.289 1.289 0 0 0-.949-.38c-.482 0-.874.19-1.179.569-.303.38-.519.761-.646 1.141-.127.379-.266 1.025-.418 1.938l-.113 1.025c-.052.457-.09 1.04-.115 1.749-.025.709-.038 1.19-.038 1.443 0 3.066.203 5.283.609 6.651.404 1.367 1.139 2.609 2.203 3.723l-1.139 1.064a14.583 14.583 0 0 0-2.166-.589 12.35 12.35 0 0 0-2.281-.209c-1.697 0-2.825.045-3.382.133-.557.09-1.19.324-1.899.703l-.684-1.482c.81-.886 1.367-1.824 1.671-2.812.305-.987.456-2.495.456-4.521 0-.405-.006-.83-.019-1.273a47.445 47.445 0 0 1-.019-1.388v-.456c0-2.304-.158-3.983-.475-5.034a7.302 7.302 0 0 0-1.614-2.831l.646-1.216.835.265c1.165.33 2.153.495 2.964.495.583 0 1.482-.102 2.699-.305 1.95-.328 3.293-.493 4.027-.493 1.064 0 1.919.063 2.565.19.646.127 1.21.341 1.691.646 1.09.659 1.856 1.33 2.3 2.013.442.684.665 1.572.665 2.66m19.265 8.019c.177.506.266 1.039.266 1.596 0 .583-.114 1.216-.342 1.9-.38 1.14-.995 2.02-1.843 2.641-.849.621-2.097 1.057-3.743 1.311-.608.1-1.318.152-2.128.152-1.495 0-2.819-.235-3.971-.704-1.153-.468-2.299-1.196-3.439-2.185l-1.178-1.14-.532-.646c.456-.506.773-1.031.95-1.576.177-.545.367-1.539.57-2.983.05-.253.076-.671.076-1.255 0-.582.012-1.076.038-1.482v-1.292l-.038-.721-.038-2.014a5.26 5.26 0 0 0-.76-.039c-.836 0-1.558.178-2.166.533l-.76-1.292c.76-.684 1.57-1.153 2.432-1.407.405-.101.709-.151.912-.151.025-.253.044-.475.057-.665a6.19 6.19 0 0 0-.095-1.653c-.228-1.14-.431-1.926-.608-2.357a2.23 2.23 0 0 0-.836-1.026l.456-1.52c.456.077.798.128 1.026.153.228.025.557.037.988.037 1.494 0 3.356-.366 5.586-1.101l1.216-.494 1.254.721-.798 1.292a7.708 7.708 0 0 0-.532 1.52c-.127.533-.228 1.204-.304 2.014l-.114 1.216-.038.646a7.476 7.476 0 0 0 1.596.191c1.165 0 2.305-.279 3.42-.837.177-.1.304-.164.38-.19.152-.075.342-.214.57-.418.43.71.646 1.457.646 2.243 0 1.798-.52 3.078-1.558 3.837-.583.38-1.153.57-1.71.57-.228 0-.501-.025-.817-.075a18.247 18.247 0 0 0-.817-.115l-1.938-.303v8.321l.304 1.976c.126.938.31 1.553.551 1.844.24.291.677.437 1.311.437.43 0 .81-.127 1.14-.381.329-.253.525-.575.589-.968.063-.393.095-.716.095-.97 0-.836-.323-1.285-.969-1.349-.646-.062-1.007-.119-1.083-.171-.178-.126-.348-.392-.513-.797a3.035 3.035 0 0 1-.247-1.141c0-.608.228-1.139.684-1.595.456-.456 1.127-.761 2.014-.912.405-.051.709-.077.912-.077 1.52 0 2.698.71 3.534 2.128l.342.723" fill="#565F61"/><path d="M64.592 86.791c.05.907-.455 1.39-1.515 1.449l-.074-.185c.156-.232.237-.657.244-1.273.195-.011.392-.077.588-.2a1.18 1.18 0 0 1 .565-.2c.112-.007.176.13.192.409m3.975-.222c.051.907-.454 1.389-1.514 1.449l-.074-.185c.155-.232.236-.657.244-1.273.195-.011.392-.078.588-.201.195-.122.384-.19.566-.199.11-.007.174.13.19.409m3.976-.222c.051.907-.455 1.39-1.514 1.448l-.074-.185c.155-.231.237-.656.243-1.272.196-.011.393-.078.588-.201.197-.122.385-.19.567-.2.111-.006.175.131.19.41m7.769-9.232l.348-.019c.197-.012.304.11.318.361l.014.255a16.754 16.754 0 0 1-1.19 1.635c-.549.817-1.181 1.901-1.899 3.253l-.535 1.045c-.343.838-.513 1.289-.509 1.351-.112.553-.166.894-.159 1.023.013.239.151.429.412.572.496-.158 1.151-.617 1.962-1.381 1.52-1.786 2.824-3.503 3.915-5.149.882-1.328 1.348-2.101 1.398-2.323.028-.2.078-.301.146-.306l.889-.049c.202.077.308.198.317.361l.012.215c.005.096-.093.34-.297.734.003.069-.125.499-.389 1.293.006.109-.113.542-.358 1.301-.318 1.391-.472 2.175-.462 2.353l-.077.096.009.164c-.134 1.128-.196 1.811-.183 2.05l.019.337c.005.088-.117.168-.366.236l-.296.017c-.395.022-.6-.11-.617-.397-.027-.484.164-1.892.574-4.224a.68.68 0 0 0 .139-.439c-.06.004-.153.136-.275.395-.369.376-.631.746-.788 1.11-.055.004-.505.565-1.351 1.685-.028.002-.426.465-1.194 1.389-.953.927-1.831 1.414-2.634 1.459L77 87.53c-.86-.102-1.303-.389-1.329-.859-.028-.019-.069-.272-.124-.761-.049-.866.413-2.193 1.387-3.983l.926-1.744 1.209-1.85c.034-.002.221-.211.56-.627.286-.385.514-.581.683-.591m14.861-.39c1.513-.084 2.527.382 3.041 1.399.071.289.107.451.11.486l-.039.053.054.223.01.172c-.04 1.124-.745 2.704-2.114 4.742a27.35 27.35 0 0 1-2.128 2.815l-.133.007c-.717-.007-1.085-.168-1.103-.481l-.007-.133.885-1.034c1.144-1.533 1.967-2.82 2.47-3.859.081-.004.304-.601.669-1.789.009-.316.008-.572-.002-.769-.182-.558-.45-.826-.804-.807l-.186-.03-.266.015c-.94.053-2.022.502-3.246 1.349-.974.78-1.655 1.429-2.043 1.95-.059.03-.481.563-1.263 1.597-1.089 1.81-1.656 3.144-1.704 4.001.009.177-.21.278-.66.303-.313.018-.574-.132-.783-.448.034-.979.574-2.311 1.622-3.996.444-.728 1.083-1.571 1.918-2.526.34-.415 1.023-1.024 2.051-1.826 1.468-.888 2.685-1.359 3.651-1.414m19.079-9.655c.478 0 .76.087.845.26l.015.256c.027.49-1.292 3.185-3.956 8.082-.825 1.406-1.608 3.28-2.351 5.624-.394 1.273-.57 2.289-.527 3.044.076.249.19.461.344.637.545-.147 1.291-.612 2.236-1.396.205-.155.361-.235.47-.242l.296-.016.096.077.006.092c.02.361-.232.795-.758 1.303-.781.685-1.476 1.046-2.081 1.08-.729.041-1.253-.221-1.571-.784-.099-.295-.152-.524-.161-.688-.048-.831.125-1.903.516-3.216l-.091.004c-1.277 1.739-2.442 3.027-3.495 3.866-1.121.724-2.002 1.106-2.642 1.142l-.082.005c-.988.054-1.689-.269-2.104-.97-.225-.356-.352-.8-.382-1.332-.082-1.471.308-2.815 1.169-4.032.473-.839 1.242-1.682 2.308-2.527.815-.585 1.377-.924 1.686-1.017a6.61 6.61 0 0 1 2.576-.666c.707.062 1.064.145 1.07.247l.019.347c-.029.091-.115.14-.258.148l-.613.035c-1.019.118-2.029.492-3.033 1.122-.694.429-1.4 1.052-2.119 1.871-1.226 1.545-1.803 2.957-1.732 4.238l.012.215c.207 1.007.614 1.493 1.22 1.459 1.045-.257 2.278-1.112 3.7-2.565 1.54-1.787 2.664-3.257 3.371-4.411.633-.924 1.333-2.2 2.103-3.828l2.953-6.407c.204-.251.392-.552.565-.903a.596.596 0 0 1 .38-.154m10.23 7.535c.6-.033 1.27.09 2.009.37.764.456 1.164 1.025 1.203 1.706.034-.002.073.143.117.434l.04-.002a14.927 14.927 0 0 1 3.031-2.066c.444-.263 1.154-.498 2.134-.703.906-.051 1.619.06 2.14.332.671.386 1.027.939 1.067 1.662.072 1.301-.558 2.665-1.893 4.092.004.095-.246.376-.752.842-1.088 1.086-2.035 1.876-2.841 2.373-.818.632-1.565.968-2.238 1.007l-.226.012c-.471.006-.711-.07-.72-.227l-.014-.265c-.004-.068.181-.168.556-.297a17.6 17.6 0 0 0 2.522-1.648c.869-.705 1.305-1.098 1.308-1.18.711-.607 1.433-1.43 2.167-2.469.563-.933.831-1.655.803-2.166l-.013-.225c-.031-.559-.371-.82-1.018-.783-1.437.08-3.155 1.02-5.152 2.819-.876.821-1.357 1.435-1.444 1.844-.257.65-.779 1.639-1.566 2.967l-.215.012c-.483.027-.865-.201-1.145-.684l-.003-.051c-.037-.66.616-1.876 1.959-3.645.143-.602.202-1.153.174-1.65-.036-.661-.342-1.102-.913-1.322a3.963 3.963 0 0 0-.576-.009c-.653.036-1.522.335-2.605.893-.6.382-1.208.874-1.824 1.477l-1.074 1.34c-.998 1.696-1.487 2.7-1.47 3.014-.091.209-.218.319-.382.328l-.133.008c-.211.011-.407-.08-.589-.275l-.002-.051c-.063-1.124.549-2.589 1.834-4.397 1.435-1.713 2.883-2.754 4.346-3.123l1.398-.294m18.604-8.614c.858-.048 1.488.409 1.891 1.37.04.238.062.376.064.417.045.81-.371 1.423-1.25 1.833a2.878 2.878 0 0 1-.538.112c-.844.048-1.456-.38-1.834-1.282-.029-.025-.067-.207-.113-.546-.042-.749.345-1.331 1.163-1.746.099-.068.305-.12.617-.158zm-3.704 7.823l.164-.009c.307-.018.469.145.488.485-.027.247-.264.79-.708 1.628-1.347 2.562-1.994 4.505-1.94 5.828l.007.123c.035.626.381 1.071 1.038 1.336.205.132.312.266.319.402l.02.337c-.041.111-.138.172-.288.18l-.541.03c-.114-.089-.346-.202-.696-.341-.639-.441-.981-1.067-1.027-1.878l-.01-.164c-.073-1.309.546-3.249 1.857-5.824.639-1.169 1.079-1.881 1.317-2.133z" fill="#D9222A"/><g transform="translate(139 71)"><mask id="d" fill="#fff"><use xlink:href="#c"/></mask><path d="M9.061 2.4l.511-.028c.341-.019.833.11 1.477.389.431.386.655.718.672.997l.017.327c.019.348-.059.588-.237.721l-.337.019c-.083-.016-.334-.346-.752-.993-.372-.301-.679-.454-.917-.461l-.328.018c-.361.02-.823.186-1.387.497-.532.242-1.204.813-2.015 1.712a16.936 16.936 0 0 0-2.837 4.812l-.906 2.306c-.126.191-.321.295-.588.309l-.051.003c-.497.028-.754-.097-.769-.377l-.008-.143c.947-2.868 1.854-4.86 2.721-5.974.229-.416.563-.875.998-1.378.893-1.041 1.79-1.778 2.696-2.211.533-.248 1.212-.43 2.04-.545M25.147.097c1.315-.074 2.214.372 2.699 1.336.102.24.158.442.168.606l.04.735c.018.321-.113.618-.39.893l-.079.056-.308.017-.096-.087-.008-.133a3.133 3.133 0 0 1 .012-.523c-.057-1.022-.429-1.684-1.116-1.988a2.816 2.816 0 0 0-.567-.061c-1.627.092-3.611 1.108-5.949 3.049a41.175 41.175 0 0 0-2.71 3.032c-.697 1.091-1.042 1.722-1.031 1.892-.423.762-.62 1.412-.589 1.95.185.373.485.546.901.523.8-.12 1.779-.554 2.94-1.301a13.356 13.356 0 0 0 1.708-1.542c1.015-1.279 1.633-2.202 1.854-2.768.274-.46.731-1.4 1.369-2.823.166-.098.296-.15.392-.155.517-.029.786.13.805.477.018.321-.408 1.264-1.276 2.83-1.353 2.957-2.54 5.413-3.566 7.363-1.395 2.545-2.31 4.168-2.742 4.868-1.295 2.491-2.521 4.032-3.677 4.623l-.522.03c-.858.047-1.371-.29-1.542-1.011l-.034-.613c-.077-1.363.65-3.47 2.178-6.323.848-1.326 1.511-2.001 1.988-2.028l.348-.019c.17-.01.321.067.453.23l.016.306c.011.165-.196.38-.618.651a13.078 13.078 0 0 0-1.691 2.584c-.339.539-.653 1.209-.943 2.011l-.361 1.25a4.943 4.943 0 0 0-.181 1.538c.019.32.071.477.161.472l.081-.004c.762-.418 1.693-1.505 2.791-3.262-.003-.054.317-.625.96-1.714 1.562-2.739 2.788-4.991 3.68-6.755l-.001-.041-.041.003c-.519.506-1.378 1.02-2.579 1.537.004.075-.501.206-1.516.392-1.314.074-2.133-.273-2.457-1.041a4.082 4.082 0 0 1-.075-.611c-.063-1.124.803-2.819 2.596-5.085 1.225-1.436 2.079-2.296 2.562-2.583.675-.638 1.642-1.291 2.903-1.955 1.094-.499 1.967-.767 2.621-.803l.439-.025" fill="#D9222A" mask="url(#d)"/></g><path d="M173.4 71.963c.756-.041 1.253.246 1.494.86l.02.378c.026.47-.595 1.332-1.865 2.586-1.247 1.149-2.405 1.753-3.475 1.813l-.726.041c-.401.022-.711-.132-.927-.461l-.02-.347c-.002-.042.054-.099.164-.174l.338-.018c.116-.007.305.009.567.05.586-.033 1.388-.406 2.407-1.119 1.517-1.342 2.264-2.235 2.239-2.677l-.044-.049c-1.796.258-3.647 1.246-5.553 2.965-.204.168-.431.434-.684.796-.108.028-.451.491-1.028 1.392-.879 1.51-1.306 2.501-1.281 2.971l-.046.085c.085.418.253.62.506.607 1.015-.064 2.716-.924 5.104-2.582l.388-.022c.11.029.172.152.185.37l.002.041c.025.442-.981 1.268-3.019 2.475-.771.384-1.47.594-2.097.629l-.123.008c-1.069.059-1.746-.33-2.032-1.169l-.065-.426c-.043-.77.353-1.814 1.187-3.132 1.277-2.223 3.146-3.937 5.608-5.141.471-.231 1.24-.472 2.306-.723l.47-.027m9.029-11.573c.293-.017.511.162.655.537-.069.339-.23.939-.483 1.8.006.13-.395 1.003-1.207 2.62-.469 1.147-.836 1.977-1.102 2.491-.431 1.185-.694 1.859-.788 2.022-.275.705-.847 2.012-1.718 3.919-.323.831-.577 1.409-.765 1.734-.416.993-.622 1.514-.619 1.561 2.647-2.757 4.587-4.171 5.82-4.24.825-.046 1.358.156 1.603.607.066.194.098.307.1.333.04.723-.097 1.485-.415 2.288a19.643 19.643 0 0 1-1.571 3.46 57.042 57.042 0 0 1-2.346 4.416c-.518.631-.872.951-1.062.961l-.165.01-.128-.117c-.011-.189.146-.554.471-1.091.083-.231.253-.6.513-1.105.1-.286.29-.611.57-.976-.004-.088.13-.372.404-.852-.002-.02.268-.569.81-1.644 1.254-2.625 1.862-4.28 1.824-4.961l-.009-.163c-.012-.218-.087-.323-.222-.316-1.176.25-2.861 1.523-5.056 3.818a39.257 39.257 0 0 0-2.604 3.477c-.297.68-.595 1.028-.895 1.045a2.326 2.326 0 0 0-.243.055c-.304-.072-.516-.197-.636-.375l-.011-.215c-.01-.17.38-1.084 1.168-2.74.28-1 1.113-3.021 2.501-6.064l.763-1.735a10.59 10.59 0 0 1 .253-.628c.999-2.051 1.561-3.289 1.688-3.713.589-1.331 1.056-2.321 1.402-2.968l1.459-3.249.041-.002m11.732-.072l.081-.004c.119.034.183.146.194.337.035.627-.307 1.487-1.024 2.578-.347.765-.639 1.304-.874 1.618a4.905 4.905 0 0 1-.347.758l-.75 1.435c.003.055-.216.531-.658 1.431l.002.04c.458.003.793-.003 1.004-.014.628-.035 1.609-.076 2.945-.124.181.051.273.105.276.159l.019.347c.024.436-.93.708-2.865.817l-1.911.106c-.16.084-.329.428-.505 1.033-.099.094-.396.76-.894 1.997l-.494 1.248a33.487 33.487 0 0 0-1.399 4.516c-.149.48-.267 1.023-.349 1.629-.052.762-.219 1.149-.498 1.166.001.033-.14.068-.425.105-.438-.016-.661-.09-.668-.219l-.008-.133c.215-1.303.455-2.447.721-3.433.516-1.997 1.502-4.604 2.954-7.822-.925.052-1.402-.167-1.43-.657-.027.001-.044-.056-.05-.171-.018-.327.116-.541.405-.638l.338-.019c.123.143.461.199 1.013.168l.266-.014c.136-.123.489-.796 1.056-2.017.398-.693.595-1.096.588-1.211.117-.117.353-.537.709-1.26a60.171 60.171 0 0 1 2.153-3.472c.167-.18.309-.274.425-.28m4.685 8.637c-.551.668-1.167 1.02-1.851 1.059-.05-.014-.078-.078-.083-.192.312-.246.563-.561.755-.947.336-.689.489-1.31.458-1.863.49-.289.914-.443 1.271-.463.148-.008.227.11.242.354.038.683-.227 1.368-.792 2.052m5.483 1.322l.654-.037c1.501.067 2.776.261 3.826.585.69.248 1.065.433 1.127.552l.017.307-.087.097-.654.036a20.538 20.538 0 0 0-4.21-.512c-1.717.096-2.964.634-3.744 1.613-.076.216-.113.352-.11.406l.007.133c.275.388.63.703 1.068.945 1.863.701 2.984 1.303 3.361 1.8.094.112.223.353.388.727l.002.041c.059 1.056-.353 1.799-1.239 2.231-1.179.886-2.563 1.373-4.15 1.463-1.573.088-2.733-.463-3.476-1.651a1.73 1.73 0 0 0-.115-.434l-.055-.971c-.026-.463.414-1.031 1.32-1.703.721-.396 1.267-.604 1.636-.626l.387-.021c.6-.033 1.239.109 1.921.426.341.248.519.487.531.718-.051.181-.166.277-.342.287-.123.007-.687-.123-1.693-.388-.79.044-1.572.485-2.344 1.32.002.068-.063.219-.201.452l.028.48c.033.613.685.973 1.955 1.08l.133-.008c1.151-.063 2.401-.574 3.747-1.531.478-.396.733-.763.77-1.099l-.003-.041c-.099-.314-.618-.683-1.558-1.101-.666-.196-1.42-.553-2.263-1.073-.682-.7-1.03-1.193-1.046-1.479l-.019-.348c-.047-.838.442-1.484 1.469-1.937a7.99 7.99 0 0 1 2.962-.739m19.192-2.497c1.315-.075 2.214.371 2.699 1.335.101.24.157.441.167.605l.041.736c.017.32-.112.617-.391.893l-.079.056-.307.017-.097-.087-.008-.133a3.032 3.032 0 0 1 .013-.524c-.058-1.021-.429-1.683-1.117-1.987a2.73 2.73 0 0 0-.567-.061c-1.627.091-3.611 1.107-5.949 3.049a40.949 40.949 0 0 0-2.709 3.032c-.698 1.091-1.042 1.722-1.033 1.892-.422.762-.618 1.412-.587 1.95.185.372.485.547.9.523.799-.12 1.78-.554 2.941-1.302a13.408 13.408 0 0 0 1.707-1.541c1.016-1.279 1.634-2.202 1.855-2.768.274-.459.73-1.401 1.368-2.823.166-.098.297-.15.391-.155.518-.029.787.13.807.477.018.32-.408 1.263-1.277 2.829-1.352 2.958-2.541 5.413-3.565 7.364-1.396 2.544-2.31 4.167-2.742 4.867-1.296 2.493-2.522 4.033-3.677 4.624l-.521.029c-.859.048-1.373-.289-1.544-1.01l-.033-.613c-.078-1.363.65-3.471 2.178-6.324.848-1.325 1.511-2 1.989-2.027l.346-.019c.17-.01.322.066.453.23l.017.307c.01.163-.197.379-.619.649a13.1 13.1 0 0 0-1.691 2.585c-.338.539-.653 1.208-.943 2.01l-.36 1.251a4.855 4.855 0 0 0-.181 1.538c.019.319.071.477.159.472l.083-.005c.762-.418 1.692-1.505 2.79-3.261-.002-.055.316-.626.961-1.714 1.56-2.739 2.788-4.991 3.679-6.755l-.002-.041-.041.002c-.518.508-1.377 1.02-2.578 1.538.004.075-.5.206-1.516.392-1.314.074-2.134-.274-2.456-1.041a4.065 4.065 0 0 1-.075-.611c-.064-1.124.803-2.819 2.596-5.084 1.224-1.436 2.078-2.297 2.561-2.584.675-.639 1.642-1.291 2.904-1.956 1.093-.499 1.966-.766 2.62-.802l.44-.024m4.743 1.066l.348-.019c.198-.011.304.11.317.362l.014.255a16.603 16.603 0 0 1-1.19 1.634c-.548.818-1.181 1.902-1.899 3.254l-.536 1.044c-.342.839-.512 1.29-.508 1.351-.113.552-.165.894-.158 1.023.014.239.15.429.41.572.499-.158 1.151-.618 1.963-1.381 1.52-1.787 2.826-3.503 3.915-5.149.883-1.327 1.347-2.101 1.398-2.322.029-.2.079-.302.146-.306l.89-.05c.203.078.308.199.318.362l.01.214c.007.096-.093.341-.296.735.004.068-.126.499-.389 1.292.006.109-.114.543-.357 1.301-.32 1.392-.473 2.176-.464 2.354l-.076.096.008.163c-.134 1.129-.195 1.812-.183 2.05l.02.337c.004.089-.118.167-.366.236l-.297.017c-.395.021-.6-.11-.615-.397-.028-.483.162-1.892.572-4.224a.67.67 0 0 0 .14-.438c-.062.003-.153.135-.275.394-.368.377-.631.746-.789 1.111-.053.003-.504.564-1.353 1.684-.026.001-.422.465-1.191 1.389-.954.928-1.833 1.414-2.635 1.46l-.204.011c-.861-.103-1.303-.389-1.331-.858-.027-.019-.069-.273-.123-.763-.048-.864.413-2.192 1.387-3.983l.927-1.742 1.209-1.851c.034-.001.22-.21.559-.625.286-.386.514-.583.684-.593m15.951-11.325l.083-.005c.117.034.182.148.192.338.036.627-.306 1.485-1.024 2.579-.347.764-.637 1.302-.873 1.616-.083.238-.198.49-.348.758l-.749 1.436c.004.054-.215.531-.658 1.43l.002.041c.457.002.792-.003 1.005-.015.627-.035 1.608-.075 2.944-.123.18.051.272.104.276.158l.018.348c.025.436-.931.708-2.865.816l-1.91.106c-.16.085-.329.429-.507 1.033-.096.094-.395.761-.892 1.998l-.495 1.247a33.23 33.23 0 0 0-1.397 4.516 9.972 9.972 0 0 0-.35 1.629c-.052.762-.219 1.15-.499 1.166.002.033-.139.069-.423.105-.439-.016-.662-.089-.669-.218l-.008-.133c.215-1.304.455-2.448.721-3.433.516-1.997 1.503-4.604 2.955-7.822-.925.052-1.404-.167-1.43-.657-.027.001-.045-.056-.051-.172-.019-.327.117-.54.406-.638l.337-.019c.124.144.461.2 1.013.169l.266-.015c.137-.123.489-.795 1.056-2.017.398-.692.594-1.095.588-1.211.116-.116.353-.535.709-1.259a59.673 59.673 0 0 1 2.153-3.473c.167-.18.309-.272.424-.279m7.014 8.067a211.597 211.597 0 0 0-4.149 7.388l-.645-.186a2.59 2.59 0 0 0 .164-.31c.052-.118.113-.25.18-.395l5.99-12.677c.068-.047.357-.157.868-.333.569-.185.873-.275.912-.267.246.048.424.104.531.163l.007.194.04.171a143.476 143.476 0 0 0-3.898 6.252zm-5.324 10.657c-.244 1.238-1.09 1.714-2.536 1.43-.035-.126-.046-.217-.035-.273.288-.26.542-.803.765-1.631a1.7 1.7 0 0 0 .858-.068c.306-.098.583-.123.829-.075.153.03.193.236.119.617z" fill="#D9222A"/></g></svg>