<svg xmlns="http://www.w3.org/2000/svg" width="299" height="105.836" viewBox="0 0 299 105.836"><path fill-rule="evenodd" clip-rule="evenodd" fill="#C21921" d="M265.373 23.697l1.535.701v-1.6h-3.768v-7.801h3.768V5.334L277.641 0l8.799 6.164v17.232l4.066 2.799-5 7.135-6.666-4.666v-5.865h-4.133v5.633l-6.4 4.898-9.731-4.434 6.797-5.199zm-.633-7.701h11.968v-.398h-8.134c.034-1.367 1.034-2.932 2.433-2.932.869 0 1.334.299 1.868 1.398.199.4.367.6.533.867l.068-.066-.303-.969.734.801c-.068-1.832-1.101-3.033-2.967-3.033-2.232 0-3.234 2.102-3.5 3.934h-2.701v.398zm5.501 5.936c-.866.598-1.133 1.199-1 1.9.233-.232.532-.535 1-.768v.4h.233V20.43l.367.268v2.768h.233V22.8c.665-.367 1.233-1.035 1.233-1.502 0-.566-.302-1.033-1.233-1.699V18.8h-.233v.631l-.367-.264V18.8h-.233v.199c-.134-.068-.299-.234-.468-.467.302.066.535.066.935.066a7.95 7.95 0 0 0 5.532-2.201h-11.064a7.368 7.368 0 0 0 2.998 1.768c.367.834 1.201 1.533 2.067 2.066v1.701zm-2.398-6.334c.432-3.033 2.232-3.6 3.164-3.6.701 0 1.47.232 1.7.9-.666-.434-1.032-.602-1.7-.602-1.467 0-2.599 1.402-2.833 3.301h-.331zm3.232 6.433c.266-.1.532-.467.532-.768 0-.332-.5-.799-.935-1.1-1.165-.699-1.831-1.365-1.999-1.9l.601.201c.233.633 1.667 1.4 2.3 2.066.267.301.367.467.367.732 0 .402-.334.867-.866 1.168v-.399zm-2.301 3.033h3.933v-.4h-3.933v.4zm3.501-.798c-.435-.367-.967-.602-1.567-.602-.633 0-1.168.234-1.567.602h3.134zm-2.034-1.536c-.198.1-.367.266-.701.533.201-.434.435-.699.701-.9v.367zm.834-1.832c.133.1.233.268.233.434 0 .133-.133.266-.233.334v-.768zm2.333-7.068v-.266l.166.135.032.299-.198-.168zm1.299 1.168h4.133v-5.1l-4.133-2.9v8z"/><path fill="#707476" d="M51.49 20.02c.454.91.681 1.834.681 2.773 0 1.486-.507 2.719-1.522 3.703-1.016.984-2.249 1.479-3.703 1.479-.394 0-.75-.031-1.068-.092s-.552-.121-.705-.184l.183-.361c.241-.455.363-.969.363-1.545 0-1.637-.984-2.621-2.953-2.955a7.82 7.82 0 0 0-.909-.092c-1.122 0-2.204.328-3.249.979-1.045.652-2.022 1.658-2.931 3.021l-.545.953c.241.244.514.486.818.727.302.244.621.486.954.73.757.482 1.568.871 2.431 1.156.864.289 1.9.523 3.113.703l.908.139.137 1.408a24.078 24.078 0 0 0 2.317 8.043c.97 1.998 1.718 3.348 2.249 4.043.53.699 1.34 1.439 2.431 2.227l.863.592-1.09 2.316c-1.031-.424-2.227-.711-3.589-.863-1.363-.15-3.122-.227-5.271-.227-1.394 0-2.528.082-3.408.25-.879.166-1.757.43-2.636.795l-1.454-2.092c1.12-.756 1.681-1.861 1.681-3.314 0-1.242-.394-2.865-1.182-4.863a12.107 12.107 0 0 0-1.136-2.113c-.425-.619-.818-1.068-1.182-1.34-.576-.393-1.122-.592-1.636-.592-.938 0-1.651.697-2.135 2.092-.213.545-.318 1.305-.318 2.271 0 1.787.181 3.082.545 3.885.363.805 1.166 1.75 2.408 2.84l1.363 1.184-.954 1.998-2.499-.592-2.409-.59-.181-.045a9.44 9.44 0 0 0-1.183-.137 24.204 24.204 0 0 0-1.544-.047h-1.727c-.545.092-.94.154-1.182.184-1.756.18-3.453.605-5.089 1.271l-1.681-2.043c1.424-.82 2.423-2.055 2.999-3.705s.863-4.414.863-8.293v-1.543l-.045-.775-.091-2.088v-4.364c0-.273-.031-.65-.09-1.135-.272-2.273-.689-3.984-1.25-5.135-.56-1.15-1.355-1.969-2.385-2.455l1.317-2.045 1.182.229 1.772.318c1.333.213 2.597.332 3.794.361 1.196.033 2.052.047 2.568.047 1.09 0 2.151-.076 3.181-.229 1.03-.15 2.09-.377 3.181-.68l1.181 1.953a4.895 4.895 0 0 0-2.022 1.861c-.5.818-.947 2.031-1.341 3.637-.09.426-.182.873-.272 1.34-.09.471-.136 1.158-.136 2.068l-.182 1.816v.592a6.76 6.76 0 0 0-.045.863v2.543c.182-.271.402-.627.659-1.066.257-.438.446-.764.568-.977l.273-.5.5-1 1.636-3.408.545-1c1.817-3.029 3.537-5.164 5.157-6.406s3.537-1.969 5.748-2.182c.212 0 .446-.006.705-.023.257-.014.431-.021.522-.021.455 0 .817.016 1.09.045.272.031.652.092 1.136.182 1.272.244 2.271.623 2.999 1.137.727.517 1.363 1.304 1.909 2.363m16.675-2.18c-.788.697-1.363 1.471-1.727 2.318-.363.848-.682 2.166-.954 3.953-.061.605-.106 1.545-.137 2.816s-.045 3.166-.045 5.68v2.453c0 1.76.03 3.129.091 4.113.06.986.121 1.75.182 2.295.242 2.059.47 3.424.682 4.09.212.666.666 1.408 1.363 2.227l.5.545-.954 1.545c-1.303-.607-2.878-.998-4.726-1.182h-3.363c-1.454.061-2.696.35-3.726.863l-1.091-1.453c.787-.607 1.348-1.281 1.681-2.023.333-.74.667-2.158 1-4.248.091-.482.166-1.008.228-1.566.059-.561.09-1.145.09-1.75v-2.498l-.045-3.32-.045-1.861-.182-4.453c-.213-2.514-.507-4.309-.886-5.385-.379-1.076-1.038-2.082-1.977-3.021l.863-1.816c.727.332 1.409.582 2.045.748.636.166 1.454.25 2.454.25h1.363c1.727 0 2.99-.053 3.794-.16.802-.104 1.613-.369 2.431-.793l1.091 1.633zm15.176 8.224c-1.121 1.121-1.909 2.324-2.363 3.613-.455 1.287-.682 3.201-.682 5.748v2.588c0 3.182.188 5.34.568 6.477.379 1.135 1.174 2.232 2.385 3.295l-.5 1.953-.5-.137-.772-.135-1.136-.182c-2.545-.424-4.378-.639-5.498-.639-.848 0-1.568.084-2.159.25-.59.168-1.295.463-2.113.887l-1.045-1.637c.787-.604 1.37-1.307 1.75-2.111.379-.803.675-1.961.886-3.477l.273-2.635v-5.545a23.15 23.15 0 0 1-.182-.908l-.045-.363-.454-2.09c-.213-1.121-.379-1.861-.5-2.227-.121-.363-.364-.816-.727-1.363-.153-.271-.326-.521-.523-.75s-.432-.477-.705-.75l.909-1.361c1.756.785 3.816 1.18 6.179 1.18 2.484 0 4.529-.395 6.134-1.18l.82 1.499zm-2.862-8.816c.423.848.636 1.682.636 2.5 0 .971-.236 1.84-.705 2.613-.47.773-1.135 1.377-1.999 1.816-.863.441-1.69.66-2.476.66-1.062 0-2.008-.303-2.84-.908-.834-.607-1.461-1.471-1.886-2.592-.273-.635-.409-1.256-.409-1.861 0-.213.045-.57.136-1.07.091-.498.341-1.027.75-1.588a5.688 5.688 0 0 1 1.522-1.432c.848-.516 1.727-.773 2.635-.773.97 0 1.863.227 2.682.682a5.051 5.051 0 0 1 1.954 1.953m31.67 31.037c-.333.605-.872 1.09-1.613 1.453-.743.363-1.659.545-2.749.545-1.303 0-2.499-.205-3.59-.613-1.09-.408-2.09-1.098-2.999-2.066-1.697-1.908-2.544-3.803-2.544-5.682 0-.574.075-1.195.227-1.863.062-.301.182-.725.364-1.271l.681-1.635.137-.229 1.772-2.77c.545-.818.931-1.561 1.158-2.229.228-.666.341-1.227.341-1.68 0-2-1.015-3-3.044-3-.364 0-.651.016-.863.045-1.122.184-1.94.879-2.454 2.09-.607 1.455-.909 3.787-.909 6.998v2.455c0 2.633.212 4.588.637 5.861.332 1.029 1.059 2.135 2.181 3.316l-.5 1.771-1.318-.455a23.226 23.226 0 0 0-2.953-.59c-.818-.059-1.409-.105-1.772-.137a12.88 12.88 0 0 0-3.795.25c-.863.199-1.75.523-2.658.977l-.772-1.998a9.36 9.36 0 0 0 1.613-2.5c.379-.879.643-2.014.795-3.408l.091-1.182v-2.679l-.046-2.182-.045-.408-.091-.91c-.334-2.725-.651-4.572-.954-5.541-.304-.969-.863-1.91-1.681-2.818l.455-1.682.999.273c.878.211 1.826.363 2.84.453 1.014.092 2.733.137 5.157.137.423 0 .969-.045 1.636-.137a80.276 80.276 0 0 1 2.863-.453l1.272-.137c3.12 0 5.588.348 7.406 1.045 1.817.697 3.151 1.787 3.999 3.271s1.272 2.924 1.272 4.316c0 2.424-1.212 4.697-3.635 6.816l-1.091.863c-1.029.758-1.735 1.34-2.113 1.748-.379.41-.652.865-.818 1.365a4.41 4.41 0 0 0-.25 1.385c0 1.09.409 1.818 1.227 2.18.121.062.317.092.59.092.696 0 1.166-.332 1.409-1 .06-.242.091-.453.091-.635 0-.607-.243-1.256-.727-1.955l-.59-.545c.575-.906 1.424-1.363 2.544-1.363.424 0 .848.078 1.272.227.424.154.848.41 1.272.773.757.637 1.136 1.455 1.136 2.455.001.79-.288 1.654-.863 2.593m32.261-1l-1.862 2.498c-.486-.393-.971-.65-1.455-.771-.483-.121-1.227-.184-2.226-.184-.636 0-1.242.01-1.817.023-.575.018-1.121.025-1.636.025l-.818.09-.454.045-2.863.408a22.604 22.604 0 0 1-3.635.318c-1.394 0-2.726-.227-3.998-.68-2.243-.791-3.96-1.834-5.157-3.137s-2.143-3.271-2.84-5.906a8.92 8.92 0 0 1-.273-1.523 15.496 15.496 0 0 1-.091-1.613c0-3.152.946-5.754 2.84-7.814 1.893-2.061 4.642-3.424 8.247-4.09l1.908-.273-1.636-1.953-.409-.545-1.227-1.318a30.116 30.116 0 0 0-2-2.066 14.047 14.047 0 0 0-1.726-1.387l.772-1.5c2.06.547 4.18.818 6.361.818 1.757 0 3.045-.045 3.863-.137.817-.092 1.756-.287 2.816-.592l.772 1.637c-.544.395-.817.863-.817 1.41 0 .605.303 1.379.909 2.316.604.939 1.62 2.211 3.043 3.816.969 1.061 2.152 2.074 3.545 3.045a10.144 10.144 0 0 0-.66 1.863c-.135.576-.25 1.301-.341 2.18l-.044.818-.045 1.229c0 .816-.01 1.598-.023 2.34-.015.742-.022 1.447-.022 2.111 0 .334.015.674.045 1.021.029.348.045.584.045.707.241 2.633.529 4.338.863 5.111.335.773 1.015 1.328 2.046 1.66m-11.768-5.088l-.045-2.955v-4.998l-.045-2.455c0-.695-.015-1.188-.046-1.477a18.072 18.072 0 0 0-.136-.975c-.303-1.455-1.181-2.182-2.635-2.182-.395 0-.728.061-1 .182-.606.242-1.136.643-1.591 1.203-.454.562-.833 1.326-1.136 2.295-.151.484-.265.953-.341 1.408-.075.455-.113 1.152-.113 2.092l-.09 1.59-.046.908v2.5l.092.906c.12 1.365.25 2.348.386 2.957.137.605.311 1.15.522 1.633.788 1.365 1.741 2.047 2.863 2.047.332 0 .75-.061 1.249-.182.5-.123.939-.457 1.318-1 .378-.545.614-1.197.705-1.955.089-.755.118-1.27.089-1.542m48.391-15.814c-.908.334-1.645.824-2.205 1.477-.561.65-1.158 1.734-1.793 3.25a16.978 16.978 0 0 0-.5 1.453 37.99 37.99 0 0 0-.547 2.182l-.044.316-.591 3.092-.953 5.27a5.7 5.7 0 0 0-.138.863c-.03.334-.044.621-.044.863 0 1.213.392 2.305 1.182 3.271l-.683 1.273c-1.576-.486-3.288-.727-5.136-.727-1.121 0-2.378.119-3.771.361l-1.635.365-1.046-1.316a3.142 3.142 0 0 0 1.046-1.592c.182-.637.272-1.605.272-2.908 0-.455-.022-.832-.069-1.137a61.247 61.247 0 0 0-.339-1.908c-.183-.969-.396-1.787-.637-2.455a14.832 14.832 0 0 0-.909-1.998 9.933 9.933 0 0 0-.59 1.318c-.152.424-.319 1.061-.5 1.908l-.408 2.182-.229 1.135-.182 1.047c-.092.605-.136 1.15-.136 1.635 0 .939.181 1.85.546 2.727l-.683 1.363a7.402 7.402 0 0 0-3.772-1c-.362 0-.81.023-1.34.068s-.962.084-1.295.115c-1.121.15-2.303.424-3.544.816l-.771-1.092c.483-1.059.726-2.211.726-3.453 0-.908-.106-1.992-.317-3.248-.213-1.258-.569-2.885-1.069-4.885s-.871-3.4-1.113-4.203c-.243-.803-.5-1.521-.771-2.158-.545-1.211-1.045-2.15-1.501-2.818-.454-.664-1-1.285-1.634-1.861l.363-1.273c.938.334 1.915.578 2.931.727 1.013.152 2.188.229 3.521.229 1.483 0 3.136-.258 4.953-.773l1.182-.363.727 1.455c-.424.363-.758.75-1 1.158a5.19 5.19 0 0 0-.521 1.137c-.108.348-.16.811-.16 1.385 0 .879.258 2.529.773 4.953.12.729.317 1.521.591 2.385.271.863.574 1.75.908 2.658a16.72 16.72 0 0 0 1.363-4.271c.484-2.422.727-4.135.727-5.133 0-.939-.258-1.895-.772-2.863l.409-1.318 1.592.273c.877.09 1.489.15 1.838.18.349.033.887.047 1.614.047 1.665 0 3.378-.213 5.134-.637l.455 1.455a6.31 6.31 0 0 0-.682 2.863c0 .271.031.59.091.953.059.363.136.758.228 1.182l.408 1.318.364 1.18.544 1.773.773 2 .864-3.182.044-.318.5-2.59c.213-1.061.318-1.953.318-2.682 0-.908-.288-1.711-.862-2.406-.273-.365-.54-.645-.797-.842s-.584-.371-.976-.523l.543-1.59.912.318c1.09.303 2.195.455 3.315.455.849 0 1.878-.123 3.091-.365l1.09-.227.727 1.681zm27.08 11.678c0 .545-.075 1.135-.227 1.773a17.698 17.698 0 0 1-.592 1.953c-.908 2.393-2.346 4.303-4.315 5.725-2.12 1.545-4.515 2.316-7.179 2.316-2.395 0-4.492-.355-6.295-1.066-1.801-.713-3.431-1.887-4.883-3.521-1.182-1.393-1.985-2.742-2.41-4.045-.423-1.303-.636-2.832-.636-4.59 0-1.182.166-2.248.5-3.201.331-.957.848-1.979 1.546-3.068a12.168 12.168 0 0 1 4.59-4.271c1.908-1.029 4.012-1.545 6.314-1.545 1.303 0 2.561.15 3.771.455 2.665.635 4.847 1.895 6.542 3.771 1.183 1.271 2.022 2.65 2.522 4.133.502 1.485.752 3.212.752 5.181m-9.588.591v-4.045l-.227-2.135-.137-1c-.181-1.424-.424-2.439-.727-3.045a2.761 2.761 0 0 0-1.364-1.318c-.604-.271-1.135-.41-1.589-.41-1.394 0-2.318 1.018-2.771 3.045-.121.486-.213.955-.273 1.41-.061.453-.091 1.195-.091 2.225l-.183 2.592-.044.227v1.545c0 .395.067 1.295.203 2.703.138 1.41.28 2.477.433 3.203.151.729.363 1.35.637 1.865.605 1.182 1.453 1.771 2.544 1.771.756 0 1.454-.348 2.09-1.047.364-.33.675-.854.932-1.566s.386-1.553.386-2.521l.138-2.408.043-1.091zm34.489-7.453a6.39 6.39 0 0 1-.453 2.43c-.304.744-.857 1.533-1.658 2.363-.804.834-1.205 1.568-1.205 2.205 0 .424.213.879.635 1.361-.543.365-1.165.547-1.861.547-.758 0-1.531-.242-2.316-.729-.668-.361-1.221-1-1.66-1.908s-.659-1.709-.659-2.408c0-1.119.696-2.619 2.091-4.498.213-.24.348-.682.408-1.316v-.682c0-.547-.242-1.031-.727-1.455a1.548 1.548 0 0 0-1.135-.453c-.576 0-1.047.227-1.41.682-.361.453-.621.908-.771 1.361-.151.457-.316 1.229-.5 2.318l-.137 1.227c-.061.545-.105 1.244-.136 2.092s-.044 1.424-.044 1.725c0 3.668.24 6.316.727 7.953.482 1.635 1.363 3.119 2.634 4.453l-1.362 1.271a16.798 16.798 0 0 0-2.59-.703 14.524 14.524 0 0 0-2.728-.25c-2.029 0-3.377.051-4.042.158-.669.107-1.425.385-2.273.84l-.816-1.771c.967-1.061 1.635-2.182 1.998-3.363.363-1.18.545-2.982.545-5.406 0-.484-.008-.992-.023-1.523a62.66 62.66 0 0 1-.021-1.658v-.545c0-2.756-.191-4.764-.567-6.02a8.736 8.736 0 0 0-1.931-3.387l.77-1.453 1 .318c1.395.395 2.576.59 3.545.59.696 0 1.773-.119 3.226-.363 2.333-.393 3.938-.59 4.818-.59 1.271 0 2.294.076 3.066.227.772.152 1.446.408 2.022.771 1.301.789 2.219 1.59 2.749 2.408s.791 1.878.791 3.181m23.037 9.588c.213.605.317 1.242.317 1.91 0 .695-.136 1.451-.408 2.27-.454 1.363-1.189 2.416-2.202 3.16-1.016.74-2.509 1.264-4.478 1.566-.726.121-1.574.182-2.544.182-1.789 0-3.369-.279-4.747-.84-1.381-.561-2.751-1.432-4.113-2.613l-1.408-1.365-.638-.771c.547-.605.926-1.234 1.138-1.885.21-.65.438-1.842.679-3.566.063-.305.092-.805.092-1.5s.016-1.287.047-1.773v-1.545l-.047-.861-.045-2.408c-.182-.031-.482-.047-.908-.047-.999 0-1.863.213-2.59.637l-.908-1.545c.908-.818 1.877-1.379 2.907-1.682.483-.121.848-.182 1.091-.182.03-.303.051-.568.068-.795a7.292 7.292 0 0 0-.116-1.976c-.271-1.363-.514-2.303-.727-2.818a2.655 2.655 0 0 0-.999-1.227l.546-1.816c.545.09.953.152 1.227.182.273.031.666.045 1.182.045 1.787 0 4.013-.439 6.68-1.318l1.453-.59 1.499.863-.953 1.543a9.482 9.482 0 0 0-.638 1.818c-.152.639-.271 1.439-.361 2.408l-.139 1.455-.044.773a8.993 8.993 0 0 0 1.907.225c1.396 0 2.756-.334 4.09-.998.213-.121.365-.197.455-.227.181-.092.41-.258.683-.5.514.848.771 1.742.771 2.682 0 2.15-.619 3.68-1.861 4.588-.697.453-1.381.682-2.045.682-.273 0-.599-.029-.977-.09a25.526 25.526 0 0 0-.979-.139l-2.316-.361v9.951l.363 2.361c.152 1.121.371 1.857.658 2.205.288.348.811.521 1.568.521.516 0 .969-.15 1.363-.453.393-.303.628-.689.703-1.158a7.44 7.44 0 0 0 .114-1.16c0-1-.386-1.535-1.159-1.613-.771-.074-1.204-.143-1.295-.203-.211-.152-.416-.469-.612-.955-.198-.484-.296-.939-.296-1.363 0-.727.273-1.363.819-1.908.544-.545 1.348-.908 2.407-1.092.484-.059.848-.09 1.091-.09 1.817 0 3.226.848 4.226 2.545l.409.861zM95.506 97.203l-2.832-7.234h-9.117l-2.8 7.234h-2.676l8.992-22.838h2.225l8.945 22.838h-2.737zm-3.656-9.615l-2.645-7.047a37.902 37.902 0 0 1-1.058-3.283c-.228.996-.555 2.09-.98 3.283l-2.676 7.047h7.359zm17.067 9.926c-1.11 0-2.124-.205-3.042-.615-.918-.408-1.688-1.039-2.31-1.889h-.187c.125.994.187 1.939.187 2.83v7.018h-2.583V80.152h2.1l.358 2.334h.125c.664-.934 1.436-1.607 2.318-2.023.881-.414 1.893-.623 3.034-.623 2.261 0 4.006.773 5.235 2.318 1.229 1.547 1.844 3.713 1.844 6.504 0 2.801-.625 4.975-1.875 6.525s-2.985 2.327-5.204 2.327zm-.374-15.479c-1.742 0-3.002.482-3.78 1.445-.778.965-1.177 2.5-1.198 4.605v.576c0 2.395.399 4.109 1.198 5.141.798 1.033 2.079 1.549 3.843 1.549 1.472 0 2.626-.596 3.461-1.789.834-1.193 1.252-2.836 1.252-4.932 0-2.127-.417-3.758-1.252-4.893-.835-1.135-2.01-1.702-3.524-1.702zm26.681 6.627c0 2.779-.7 4.949-2.1 6.51-1.4 1.562-3.334 2.342-5.803 2.342-1.525 0-2.878-.357-4.061-1.074-1.182-.715-2.095-1.742-2.738-3.08s-.964-2.902-.964-4.697c0-2.779.695-4.945 2.084-6.496 1.39-1.551 3.319-2.326 5.788-2.326 2.385 0 4.281.795 5.686 2.381 1.405 1.587 2.108 3.733 2.108 6.44zm-12.991 0c0 2.178.436 3.838 1.307 4.979s2.152 1.711 3.842 1.711 2.974-.568 3.851-1.703c.876-1.137 1.314-2.799 1.314-4.986 0-2.168-.438-3.814-1.314-4.939s-2.17-1.688-3.882-1.688c-1.69 0-2.966.555-3.827 1.664-.86 1.109-1.291 2.763-1.291 4.962zm23.025 6.721c.457 0 .897-.033 1.323-.102a8.435 8.435 0 0 0 1.011-.209v1.975c-.28.135-.692.246-1.237.334s-1.035.133-1.47.133c-3.298 0-4.947-1.736-4.947-5.211V82.158h-2.442v-1.244l2.442-1.074 1.089-3.639h1.494v3.951h4.947v2.006h-4.947v10.035c0 1.027.244 1.814.731 2.365.486.549 1.156.825 2.006.825zm17.408 1.82V86.172c0-1.389-.316-2.426-.948-3.111-.633-.684-1.624-1.025-2.972-1.025-1.795 0-3.104.486-3.928 1.461-.824.977-1.236 2.572-1.236 4.793v8.914h-2.583V72.996h2.583v7.326c0 .883-.043 1.613-.125 2.195h.155c.509-.82 1.231-1.465 2.171-1.938.938-.473 2.009-.709 3.212-.709 2.085 0 3.648.496 4.69 1.486 1.043.99 1.563 2.564 1.563 4.723v11.123h-2.582zm15.091.311c-2.521 0-4.509-.768-5.966-2.303s-2.186-3.666-2.186-6.395c0-2.748.676-4.932 2.029-6.549s3.172-2.428 5.453-2.428c2.137 0 3.827.703 5.072 2.109 1.244 1.404 1.866 3.26 1.866 5.561v1.635H172.28c.051 2.002.557 3.521 1.517 4.559.959 1.037 2.31 1.555 4.052 1.555 1.836 0 3.651-.383 5.445-1.15v2.303c-.912.393-1.775.676-2.59.848-.813.169-1.796.255-2.947.255zm-.7-15.51c-1.369 0-2.461.445-3.274 1.338-.814.891-1.294 2.125-1.438 3.701h8.914c0-1.627-.363-2.875-1.09-3.74-.727-.867-1.764-1.299-3.112-1.299zm13.923 6.471c.446-.633 1.125-1.463 2.039-2.488l5.506-5.834h3.065l-6.907 7.266 7.39 9.785h-3.127l-6.021-8.059-1.945 1.68v6.379h-2.551V72.996h2.551V85.83c0 .57-.041 1.453-.124 2.645h.124zm21.376 9.039c-2.521 0-4.509-.768-5.966-2.303s-2.186-3.666-2.186-6.395c0-2.748.676-4.932 2.029-6.549s3.172-2.428 5.453-2.428c2.137 0 3.827.703 5.072 2.109 1.244 1.404 1.866 3.26 1.866 5.561v1.635h-11.745c.051 2.002.557 3.521 1.517 4.559.959 1.037 2.31 1.555 4.052 1.555 1.836 0 3.651-.383 5.445-1.15v2.303c-.912.393-1.775.676-2.59.848-.813.169-1.795.255-2.947.255zm-.7-15.51c-1.369 0-2.461.445-3.274 1.338-.814.891-1.294 2.125-1.438 3.701h8.914c0-1.627-.363-2.875-1.09-3.74-.726-.867-1.763-1.299-3.112-1.299z"/><path fill="#707476" stroke="#707476" stroke-miterlimit="10" d="M0 60.16h299"/></svg>